<?xml version="1.0" encoding="UTF-8"?>
<svg id="_1A" data-name="1A" xmlns="http://www.w3.org/2000/svg" width="305.04" height="259.57" viewBox="0 0 305.04 259.57">
  <g>
    <path d="m63.92,121.5v-1.61h.09v1.52h.45v.09h-.54Z" style="fill: #9d9a9a;"/>
    <path d="m65.36,121.37c-.09.09-.21.14-.34.14s-.25-.05-.34-.14c-.09-.09-.14-.21-.14-.34s.05-.25.14-.34c.09-.1.2-.14.34-.14s.25.05.34.14c.09.09.14.21.14.34s-.05.25-.14.34Zm-.07-.62c-.08-.08-.17-.12-.28-.12s-.2.04-.27.12c-.08.08-.12.17-.12.28s.04.2.12.28c.08.08.17.12.27.12s.2-.04.28-.11c.08-.08.11-.17.11-.28s-.04-.2-.11-.28Z" style="fill: #9d9a9a;"/>
    <path d="m66.17,120.7s-.05-.03-.08-.04c-.03-.01-.06-.02-.09-.02-.03,0-.05,0-.07.02-.02.02-.04.04-.06.06-.02.02-.03.05-.04.08-.01.03-.01.05-.01.08v.61h-.09v-.93h.09v.13s.05-.07.08-.1c.03-.03.07-.04.1-.04.05,0,.08,0,.11.02.03.01.06.03.1.06l-.05.08Z" style="fill: #9d9a9a;"/>
    <path d="m66.31,121.01c0,.13.03.23.1.3.07.08.17.11.29.11.06,0,.12-.01.17-.03.06-.03.12-.08.17-.16l.08.04c-.06.11-.15.19-.27.23-.05.01-.1.02-.16.02-.14,0-.25-.05-.35-.14-.09-.09-.14-.21-.14-.34s.05-.26.14-.35c.09-.09.21-.14.35-.14s.25.04.34.13c.09.09.14.2.14.33h-.87Zm.64-.3c-.07-.05-.15-.08-.24-.08-.19,0-.32.1-.38.28h.76c-.01-.09-.06-.16-.13-.21Z" style="fill: #9d9a9a;"/>
    <path d="m68.46,121.5v-.64c0-.06-.02-.11-.06-.15-.04-.04-.09-.06-.16-.06-.15,0-.22.07-.22.21v.64h-.09v-.64c0-.06-.02-.11-.06-.15-.04-.04-.1-.06-.16-.06s-.11.02-.16.06c-.04.04-.06.09-.06.15v.64h-.09v-.93h.09v.09c.05-.07.12-.11.22-.11.12,0,.21.05.27.15.05-.1.14-.15.26-.15.09,0,.17.03.23.08.06.05.09.13.09.22v.64h-.09Z" style="fill: #9d9a9a;"/>
    <path d="m69.49,120.4s-.03,0-.05-.02c-.01-.01-.02-.03-.02-.05,0-.04.03-.07.07-.07.04,0,.06.03.07.07,0,.05-.02.07-.07.07Zm-.05,1.1v-.93h.09v.93h-.09Z" style="fill: #9d9a9a;"/>
    <path d="m70.55,121.37c-.09.09-.21.14-.34.14-.15,0-.28-.06-.38-.19v.61h-.09v-1.37h.09v.18c.1-.13.22-.19.38-.19.14,0,.25.05.34.14.09.09.14.21.14.34s-.05.25-.14.34Zm-.07-.62c-.08-.08-.17-.11-.27-.11s-.2.04-.28.11c-.08.08-.11.17-.11.28s.04.2.11.28c.08.08.17.12.28.12s.2-.04.27-.11c.08-.08.12-.17.12-.28s-.04-.2-.12-.28Z" style="fill: #9d9a9a;"/>
    <path d="m71.35,121.44c-.06.05-.13.08-.22.08-.14,0-.25-.06-.32-.2l.08-.05s.06.08.09.11c.04.03.09.04.15.04.14,0,.21-.06.21-.18,0-.05-.02-.1-.07-.14-.02,0-.04-.02-.06-.03-.03-.01-.06-.02-.1-.04-.07-.03-.13-.05-.16-.08-.05-.04-.07-.09-.07-.17,0-.06.02-.12.07-.16.05-.05.11-.07.18-.07.1,0,.19.04.26.11l-.07.06c-.05-.05-.12-.08-.2-.08-.11,0-.16.05-.16.14,0,.04.02.08.05.1.03.02.07.04.13.06.05.02.09.04.13.05.03.02.06.03.07.04.07.05.1.12.1.2s-.03.15-.09.2Z" style="fill: #9d9a9a;"/>
    <path d="m72.23,121.41c-.06.07-.15.1-.26.1s-.2-.03-.26-.1c-.06-.06-.09-.16-.09-.27v-.58h.09v.58c0,.09.02.16.06.2.04.05.1.07.19.07.17,0,.26-.09.26-.28v-.58h.09v.58c0,.11-.03.2-.09.27Z" style="fill: #9d9a9a;"/>
    <path d="m73.67,121.5v-.64c0-.06-.02-.11-.06-.15-.04-.04-.09-.06-.16-.06-.15,0-.22.07-.22.21v.64h-.09v-.64c0-.06-.02-.11-.06-.15-.04-.04-.1-.06-.16-.06s-.11.02-.16.06c-.04.04-.06.09-.06.15v.64h-.09v-.93h.09v.09c.05-.07.12-.11.22-.11.12,0,.21.05.27.15.05-.1.14-.15.26-.15.09,0,.17.03.23.08.06.05.09.13.09.22v.64h-.09Z" style="fill: #9d9a9a;"/>
    <path d="m75.44,121.5v-.17c-.1.12-.23.18-.38.18-.14,0-.25-.05-.34-.14-.09-.09-.14-.21-.14-.34s.05-.25.14-.34c.09-.09.21-.14.34-.14.15,0,.28.06.38.18v-.91h.09v1.67h-.09Zm-.1-.74c-.08-.08-.17-.11-.28-.11s-.2.04-.28.11c-.08.08-.12.17-.12.28s.04.2.12.28c.08.08.17.12.28.12s.2-.04.28-.11c.08-.08.11-.17.11-.28s-.04-.2-.11-.28Z" style="fill: #9d9a9a;"/>
    <path d="m76.56,121.37c-.09.09-.21.14-.34.14s-.25-.05-.34-.14c-.09-.09-.14-.21-.14-.34s.05-.25.14-.34c.09-.1.21-.14.34-.14s.25.05.34.14c.09.09.14.21.14.34s-.05.25-.14.34Zm-.07-.62c-.07-.08-.17-.12-.28-.12s-.2.04-.27.12c-.08.08-.12.17-.12.28s.04.2.12.28c.08.08.17.12.27.12s.2-.04.28-.11c.08-.08.12-.17.12-.28s-.04-.2-.11-.28Z" style="fill: #9d9a9a;"/>
    <path d="m76.96,121.5v-1.67h.09v1.67h-.09Z" style="fill: #9d9a9a;"/>
    <path d="m78.12,121.37c-.09.09-.21.14-.34.14s-.25-.05-.34-.14c-.09-.09-.14-.21-.14-.34s.05-.25.14-.34c.09-.1.21-.14.34-.14s.25.05.34.14c.09.09.14.21.14.34s-.05.25-.14.34Zm-.07-.62c-.08-.08-.17-.12-.28-.12s-.2.04-.27.12c-.08.08-.12.17-.12.28s.04.2.12.28c.08.08.17.12.28.12s.2-.04.28-.11c.08-.08.11-.17.11-.28s-.04-.2-.11-.28Z" style="fill: #9d9a9a;"/>
    <path d="m78.93,120.7s-.05-.03-.08-.04c-.03-.01-.06-.02-.09-.02-.02,0-.05,0-.07.02-.02.02-.04.04-.06.06-.02.02-.03.05-.04.08-.01.03-.01.05-.01.08v.61h-.09v-.93h.09v.13s.05-.07.08-.1c.03-.03.07-.04.1-.04.05,0,.08,0,.11.02.03.01.07.03.1.06l-.05.08Z" style="fill: #9d9a9a;"/>
    <path d="m80.22,121.44c-.06.05-.13.08-.22.08-.14,0-.25-.06-.32-.2l.08-.05s.06.08.09.11c.04.03.09.04.15.04.14,0,.21-.06.21-.18,0-.05-.03-.1-.07-.14-.01,0-.04-.02-.06-.03-.03-.01-.06-.02-.1-.04-.08-.03-.13-.05-.16-.08-.05-.04-.07-.09-.07-.17,0-.06.02-.12.07-.16.05-.05.11-.07.18-.07.1,0,.19.04.27.11l-.07.06c-.05-.05-.12-.08-.2-.08-.11,0-.16.05-.16.14,0,.04.02.08.05.1.03.02.07.04.13.06.05.02.09.04.13.05.03.02.06.03.07.04.07.05.1.12.1.2s-.03.15-.09.2Z" style="fill: #9d9a9a;"/>
    <path d="m80.57,120.4s-.03,0-.05-.02c-.01-.01-.02-.03-.02-.05,0-.04.03-.07.07-.07.04,0,.06.03.07.07,0,.05-.02.07-.07.07Zm-.05,1.1v-.93h.09v.93h-.09Z" style="fill: #9d9a9a;"/>
    <path d="m81.06,120.66v.84h-.09v-.84h-.13v-.09h.13v-.41h.09v.41h.22v.09h-.22Z" style="fill: #9d9a9a;"/>
    <path d="m82.85,121.5v-.16c-.1.12-.22.18-.37.18-.13,0-.25-.05-.34-.14-.09-.09-.14-.21-.14-.34s.05-.25.14-.34c.09-.09.21-.14.34-.14.15,0,.27.06.37.18v-.16h.09v.93h-.09Zm-.1-.74c-.08-.08-.17-.11-.28-.11s-.2.04-.27.11c-.08.08-.12.17-.12.28s.04.2.12.28c.08.08.17.12.27.12s.2-.04.28-.11c.08-.08.12-.17.12-.28s-.04-.2-.12-.28Z" style="fill: #9d9a9a;"/>
    <path d="m84.27,121.5v-.64c0-.06-.02-.11-.06-.15-.04-.04-.09-.06-.16-.06-.15,0-.22.07-.22.21v.64h-.09v-.64c0-.06-.02-.11-.06-.15-.04-.04-.09-.06-.16-.06s-.11.02-.15.06c-.04.04-.06.09-.06.15v.64h-.09v-.93h.09v.09c.05-.07.12-.11.22-.11.12,0,.21.05.27.15.05-.1.14-.15.26-.15.09,0,.17.03.23.08.06.05.09.13.09.22v.64h-.09Z" style="fill: #9d9a9a;"/>
    <path d="m84.68,121.01c0,.13.03.23.1.3.07.08.17.11.29.11.06,0,.12-.01.17-.03.06-.03.12-.08.17-.16l.08.04c-.06.11-.15.19-.27.23-.05.01-.1.02-.16.02-.14,0-.26-.05-.35-.14-.09-.09-.14-.21-.14-.34s.05-.26.14-.35c.09-.09.21-.14.35-.14s.25.04.34.13c.09.09.14.2.14.33h-.87Zm.64-.3c-.07-.05-.15-.08-.24-.08-.19,0-.32.1-.38.28h.76c-.02-.09-.06-.16-.13-.21Z" style="fill: #9d9a9a;"/>
    <path d="m85.8,120.66v.84h-.09v-.84h-.13v-.09h.13v-.41h.09v.41h.22v.09h-.22Z" style="fill: #9d9a9a;"/>
    <path d="m86.21,121.73l-.03-.02.17-.37.08.03-.22.35Z" style="fill: #9d9a9a;"/>
    <path d="m64.05,123.92c-.14,0-.25-.05-.34-.14-.09-.09-.14-.21-.14-.34s.05-.25.14-.34c.09-.09.21-.14.34-.14.12,0,.21.03.28.08v.11l-.06-.04-.06-.03c-.06-.02-.11-.03-.16-.03-.12,0-.21.04-.28.11s-.11.17-.11.28.04.21.11.28c.07.07.17.11.28.11s.2-.04.28-.11v.11c-.08.06-.18.08-.28.08Z" style="fill: #9d9a9a;"/>
    <path d="m65.21,123.78c-.09.09-.21.14-.34.14s-.25-.05-.34-.14c-.09-.09-.14-.21-.14-.34s.05-.25.14-.34c.09-.09.21-.14.34-.14s.25.05.34.14c.09.09.14.21.14.34s-.05.25-.14.34Zm-.07-.62c-.07-.08-.17-.12-.28-.12s-.2.04-.27.12c-.08.08-.12.17-.12.28s.04.2.12.28c.08.08.17.12.27.12s.2-.04.27-.11c.08-.08.12-.17.12-.28s-.04-.2-.11-.28Z" style="fill: #9d9a9a;"/>
    <path d="m66.21,123.9v-.56c0-.2-.09-.3-.27-.3-.09,0-.15.03-.2.08-.05.05-.07.12-.07.21v.57h-.09v-.93h.09v.11c.04-.08.13-.12.27-.12.12,0,.21.03.27.1.06.07.09.16.09.28v.57h-.09Z" style="fill: #9d9a9a;"/>
    <path d="m67.06,123.84c-.06.05-.13.08-.22.08-.14,0-.25-.07-.32-.2l.08-.05s.06.08.09.11c.04.03.09.04.15.04.14,0,.21-.06.21-.18,0-.05-.02-.1-.07-.14-.01,0-.04-.02-.06-.03-.03-.01-.06-.02-.1-.04-.07-.03-.13-.05-.16-.08-.05-.04-.07-.09-.07-.17,0-.06.02-.12.07-.16.05-.05.11-.07.18-.07.1,0,.19.04.26.11l-.07.06c-.05-.05-.12-.08-.2-.08-.11,0-.16.05-.16.14,0,.04.02.08.05.1.03.02.07.04.13.06.05.02.09.04.13.05.03.02.06.03.07.04.06.05.1.12.1.2s-.03.15-.09.2Z" style="fill: #9d9a9a;"/>
    <path d="m67.37,123.42c0,.13.03.23.1.3.07.08.17.11.29.11.06,0,.12-.01.17-.03.06-.03.12-.08.17-.16l.08.04c-.06.11-.15.19-.27.23-.05.01-.1.02-.16.02-.14,0-.25-.05-.35-.14-.09-.09-.14-.21-.14-.34s.05-.25.13-.34c.09-.09.21-.14.35-.14s.25.04.34.13c.09.09.14.2.14.33h-.87Zm.64-.3c-.07-.05-.15-.08-.24-.08-.19,0-.32.1-.38.28h.76c-.01-.09-.06-.16-.13-.21Z" style="fill: #9d9a9a;"/>
    <path d="m68.89,123.92c-.14,0-.25-.05-.34-.14-.09-.09-.14-.21-.14-.34s.05-.25.14-.34c.09-.09.21-.14.34-.14.12,0,.21.03.28.08v.11l-.06-.04-.06-.03c-.06-.02-.11-.03-.16-.03-.12,0-.21.04-.28.11-.07.07-.11.17-.11.28s.04.21.11.28c.07.07.17.11.28.11s.2-.04.28-.11v.11c-.08.06-.18.08-.28.08Z" style="fill: #9d9a9a;"/>
    <path d="m69.58,123.06v.84h-.09v-.84h-.13v-.09h.13v-.41h.09v.41h.22v.09h-.22Z" style="fill: #9d9a9a;"/>
    <path d="m70.02,123.42c0,.13.03.23.1.3.07.08.17.11.29.11.06,0,.12-.01.17-.03.07-.03.12-.08.17-.16l.08.04c-.06.11-.15.19-.27.23-.05.01-.1.02-.16.02-.14,0-.26-.05-.34-.14-.09-.09-.14-.21-.14-.34s.05-.25.14-.34c.09-.09.21-.14.35-.14s.25.04.34.13c.09.09.14.2.14.33h-.87Zm.64-.3c-.07-.05-.15-.08-.24-.08-.19,0-.32.1-.38.28h.76c-.02-.09-.06-.16-.13-.21Z" style="fill: #9d9a9a;"/>
    <path d="m71.14,123.06v.84h-.09v-.84h-.13v-.09h.13v-.41h.09v.41h.22v.09h-.22Z" style="fill: #9d9a9a;"/>
    <path d="m72.16,123.82c-.06.07-.15.1-.26.1s-.19-.03-.26-.1c-.06-.06-.09-.16-.09-.27v-.58h.09v.58c0,.09.02.16.06.2.04.05.1.07.19.07.17,0,.26-.09.26-.28v-.58h.09v.58c0,.11-.03.2-.09.27Z" style="fill: #9d9a9a;"/>
    <path d="m72.98,123.11s-.05-.03-.08-.04c-.03-.01-.06-.02-.09-.02-.03,0-.05,0-.07.02-.02.02-.04.04-.06.06-.02.02-.03.05-.04.08,0,.03-.01.05-.01.08v.61h-.09v-.93h.09v.13s.05-.07.08-.09c.03-.03.07-.04.1-.04.05,0,.08,0,.12.02.03.01.06.03.1.06l-.05.08Z" style="fill: #9d9a9a;"/>
    <path d="m74.59,123.9v-.16c-.1.12-.22.18-.37.18-.14,0-.25-.05-.34-.14-.09-.09-.14-.21-.14-.34s.05-.25.14-.34c.09-.09.21-.14.34-.14.15,0,.27.06.37.18v-.16h.09v.93h-.09Zm-.1-.74c-.08-.08-.17-.11-.28-.11s-.2.04-.28.11c-.08.08-.12.17-.12.28s.04.2.12.28c.08.08.17.12.28.12s.2-.04.28-.11c.08-.08.12-.17.12-.28s-.04-.2-.12-.28Z" style="fill: #9d9a9a;"/>
    <path d="m75.77,123.9v-.17c-.1.12-.23.18-.38.18-.13,0-.25-.05-.34-.14-.09-.09-.14-.21-.14-.34s.05-.25.14-.34c.09-.09.21-.14.34-.14.15,0,.28.06.38.18v-.91h.09v1.67h-.09Zm-.1-.74c-.08-.08-.17-.11-.28-.11s-.2.04-.28.11c-.08.08-.12.17-.12.28s.04.2.12.28c.08.08.17.12.28.12s.2-.04.28-.11c.08-.08.12-.17.12-.28s-.04-.2-.12-.28Z" style="fill: #9d9a9a;"/>
    <path d="m76.2,122.8s-.03,0-.05-.02c-.01-.01-.02-.03-.02-.05,0-.04.02-.06.07-.07.04,0,.06.02.07.07,0,.05-.02.07-.07.07Zm-.05,1.1v-.93h.09v.93h-.09Z" style="fill: #9d9a9a;"/>
    <path d="m77.26,123.78c-.09.09-.21.14-.34.14-.15,0-.28-.06-.38-.19v.61h-.09v-1.37h.09v.18c.1-.13.22-.19.38-.19.14,0,.25.05.34.14.09.09.14.21.14.34s-.05.25-.14.34Zm-.07-.62c-.08-.08-.17-.11-.28-.11s-.2.04-.28.11c-.08.08-.11.17-.11.28s.04.2.11.28c.08.08.17.12.28.12s.2-.04.28-.11c.08-.08.11-.17.11-.28s-.04-.2-.11-.28Z" style="fill: #9d9a9a;"/>
    <path d="m77.67,122.8s-.03,0-.05-.02c-.01-.01-.02-.03-.02-.05,0-.04.02-.06.07-.07.04,0,.06.02.07.07,0,.05-.02.07-.07.07Zm-.05,1.1v-.93h.09v.93h-.09Z" style="fill: #9d9a9a;"/>
    <path d="m78.48,123.84c-.06.05-.13.08-.22.08-.15,0-.25-.07-.33-.2l.08-.05s.06.08.09.11c.04.03.09.04.15.04.14,0,.21-.06.21-.18,0-.05-.02-.1-.07-.14-.02,0-.04-.02-.07-.03-.03-.01-.06-.02-.1-.04-.08-.03-.13-.05-.16-.08-.05-.04-.07-.09-.07-.17,0-.06.02-.12.07-.16.05-.05.11-.07.18-.07.1,0,.19.04.26.11l-.07.06c-.05-.05-.12-.08-.2-.08-.11,0-.16.05-.16.14,0,.04.02.08.05.1.03.02.07.04.13.06.05.02.09.04.13.05.03.02.06.03.08.04.06.05.1.12.1.2s-.03.15-.09.2Z" style="fill: #9d9a9a;"/>
    <path d="m78.83,122.8s-.03,0-.05-.02c-.01-.01-.02-.03-.02-.05,0-.04.02-.06.07-.07.04,0,.06.02.07.07,0,.05-.02.07-.07.07Zm-.05,1.1v-.93h.09v.93h-.09Z" style="fill: #9d9a9a;"/>
    <path d="m79.62,123.92c-.14,0-.25-.05-.35-.14-.09-.09-.14-.21-.14-.34s.05-.25.14-.34c.09-.09.21-.14.35-.14.12,0,.21.03.28.08v.11l-.06-.04-.06-.03c-.06-.02-.11-.03-.16-.03-.12,0-.21.04-.28.11-.07.07-.11.17-.11.28s.04.21.11.28c.07.07.17.11.28.11.11,0,.2-.04.28-.11v.11c-.08.06-.18.08-.28.08Z" style="fill: #9d9a9a;"/>
    <path d="m80.18,122.8s-.03,0-.05-.02c-.01-.01-.02-.03-.02-.05,0-.04.02-.06.07-.07.04,0,.06.02.07.07,0,.05-.03.07-.07.07Zm-.05,1.1v-.93h.09v.93h-.09Z" style="fill: #9d9a9a;"/>
    <path d="m81.05,123.9v-.56c0-.2-.09-.3-.27-.3-.09,0-.15.03-.2.08-.05.05-.07.12-.07.21v.57h-.09v-.93h.09v.11c.04-.08.13-.12.27-.12.12,0,.2.03.27.1.06.07.09.16.09.28v.57h-.09Z" style="fill: #9d9a9a;"/>
    <path d="m82.19,124.21c-.09.08-.2.13-.33.13-.25,0-.41-.1-.46-.3h.09c.02.07.06.13.14.16.06.03.14.04.22.04.12,0,.21-.03.27-.1.06-.07.1-.16.1-.27v-.14c-.1.12-.22.18-.37.18-.14,0-.25-.05-.34-.14-.09-.09-.14-.21-.14-.34s.05-.25.14-.34c.09-.09.21-.14.34-.14.15,0,.27.06.37.18v-.16h.09v.91c0,.14-.04.25-.13.33Zm-.06-1.05c-.08-.08-.17-.11-.27-.11s-.2.04-.28.11c-.08.08-.11.17-.11.28s.04.2.11.28c.08.08.17.12.28.12s.2-.04.27-.11c.08-.08.12-.17.12-.28s-.04-.2-.12-.28Z" style="fill: #9d9a9a;"/>
    <path d="m83.18,123.42c0,.13.03.23.1.3.07.08.17.11.29.11.06,0,.12-.01.17-.03.07-.03.12-.08.17-.16l.08.04c-.06.11-.15.19-.27.23-.05.01-.1.02-.16.02-.14,0-.26-.05-.35-.14-.09-.09-.14-.21-.14-.34s.05-.25.14-.34c.09-.09.21-.14.35-.14s.25.04.34.13c.09.09.14.2.14.33h-.87Zm.64-.3c-.07-.05-.15-.08-.24-.08-.19,0-.32.1-.38.28h.76c-.02-.09-.06-.16-.13-.21Z" style="fill: #9d9a9a;"/>
    <path d="m84.3,123.9v-1.67h.09v1.67h-.09Z" style="fill: #9d9a9a;"/>
    <path d="m84.65,122.8s-.03,0-.05-.02c-.01-.01-.02-.03-.02-.05,0-.04.03-.06.07-.07.04,0,.06.02.07.07,0,.05-.02.07-.07.07Zm-.05,1.1v-.93h.09v.93h-.09Z" style="fill: #9d9a9a;"/>
    <path d="m85.14,123.06v.84h-.09v-.84h-.13v-.09h.13v-.41h.09v.41h.22v.09h-.22Z" style="fill: #9d9a9a;"/>
    <path d="m85.55,124.14l-.03-.02.17-.37.08.03-.22.35Z" style="fill: #9d9a9a;"/>
    <path d="m64.12,126.11c-.06.05-.13.08-.22.08-.14,0-.25-.07-.32-.2l.08-.05s.06.08.09.11c.04.03.09.04.15.04.14,0,.21-.06.21-.18,0-.05-.02-.1-.07-.14-.01,0-.04-.02-.06-.03-.03-.01-.06-.02-.1-.04-.08-.03-.13-.05-.16-.08-.05-.04-.07-.09-.07-.17,0-.06.02-.12.07-.16.05-.05.11-.07.18-.07.1,0,.19.04.26.11l-.07.06c-.05-.05-.12-.08-.2-.08-.11,0-.16.05-.16.14,0,.04.02.08.05.1.03.02.07.04.13.06.05.02.09.04.13.05.03.02.06.03.07.04.07.05.1.12.1.2s-.03.15-.09.2Z" style="fill: #9d9a9a;"/>
    <path d="m64.42,125.69c0,.13.03.23.1.3.07.08.17.11.29.11.06,0,.12-.01.17-.03.06-.03.12-.08.17-.16l.08.04c-.06.11-.15.19-.27.23-.05.01-.1.02-.16.02-.14,0-.26-.05-.35-.14-.09-.09-.14-.21-.14-.34s.05-.25.14-.34c.09-.09.21-.14.35-.14s.25.04.34.13c.09.09.14.2.14.33h-.87Zm.64-.3c-.07-.05-.15-.08-.24-.08-.19,0-.32.1-.38.28h.76c-.01-.09-.06-.16-.13-.21Z" style="fill: #9d9a9a;"/>
    <path d="m66.32,126.17v-.17c-.1.12-.23.18-.38.18-.14,0-.25-.05-.34-.14-.09-.09-.14-.21-.14-.34s.05-.25.14-.34c.09-.09.21-.14.34-.14.15,0,.28.06.38.18v-.91h.09v1.67h-.09Zm-.1-.74c-.08-.08-.17-.11-.28-.11s-.2.04-.28.11c-.08.08-.11.17-.11.28s.04.2.11.28c.08.08.17.12.28.12s.2-.04.28-.11c.08-.08.12-.17.12-.28s-.04-.2-.12-.28Z" style="fill: #9d9a9a;"/>
    <path d="m68.07,126.17v-.17c-.1.12-.23.18-.38.18-.13,0-.25-.05-.34-.14-.09-.09-.14-.21-.14-.34s.05-.25.14-.34c.09-.09.21-.14.34-.14.15,0,.28.06.38.18v-.91h.09v1.67h-.09Zm-.1-.74c-.08-.08-.17-.11-.28-.11s-.2.04-.28.11c-.08.08-.11.17-.11.28s.04.2.11.28c.08.08.17.12.28.12s.2-.04.28-.11c.08-.08.12-.17.12-.28s-.04-.2-.12-.28Z" style="fill: #9d9a9a;"/>
    <path d="m69.19,126.05c-.09.09-.21.14-.34.14s-.25-.05-.34-.14c-.09-.09-.14-.21-.14-.34s.05-.25.14-.34c.09-.09.2-.14.34-.14s.25.05.34.14c.09.09.14.21.14.34s-.05.25-.14.34Zm-.07-.62c-.07-.08-.17-.12-.28-.12-.1,0-.2.04-.27.12-.08.08-.12.17-.12.28s.04.2.12.28c.08.08.17.12.27.12s.2-.04.28-.11c.08-.08.11-.17.11-.28s-.04-.2-.11-.28Z" style="fill: #9d9a9a;"/>
  </g>
  <g>
    <path d="m75.63,136.43c-.41.41-.92.61-1.53.61s-1.14-.2-1.54-.59c-.39-.41-.59-.92-.59-1.55v-.28s0-.07,0-.1c0-.04.01-.08.03-.15.01-.06.03-.14.06-.24.03-.12.07-.24.11-.34.05-.11.09-.21.15-.31l1.56-2.79h.41l-1.32,2.41.36-.18.37-.1.39-.04c.61,0,1.11.2,1.52.61.41.41.62.92.62,1.52s-.2,1.12-.61,1.53Zm-.26-2.78c-.35-.35-.77-.53-1.27-.53s-.91.17-1.26.52c-.35.35-.52.77-.52,1.26s.17.94.5,1.28c.34.34.77.51,1.28.51s.93-.17,1.28-.51c.34-.34.51-.77.51-1.28,0-.48-.17-.89-.52-1.25Z" style="fill: #e44a12;"/>
    <path d="m79.76,136.45c-.34.32-.76.48-1.28.48-.43,0-.8-.12-1.1-.36-.29-.24-.49-.57-.59-1h.38c.07.28.24.52.49.71.25.19.52.29.82.29.38,0,.71-.13.98-.39.27-.27.41-.6.41-.97,0-.47-.17-.84-.5-1.1-.26-.2-.52-.3-.78-.3h-.36v-.51h.36c.37,0,.66-.1.88-.3.21-.2.32-.48.32-.86s-.12-.65-.35-.88c-.23-.23-.53-.35-.9-.35-.69,0-1.12.37-1.26,1.1h-.41c.05-.45.23-.81.53-1.06.3-.26.68-.39,1.14-.39s.87.14,1.19.43c.32.28.48.67.48,1.15,0,.77-.39,1.24-1.16,1.42.81.24,1.22.8,1.22,1.67,0,.52-.17.93-.5,1.24Z" style="fill: #e44a12;"/>
    <path d="m83.11,132.67c-.22.21-.48.31-.77.31s-.53-.11-.75-.32c-.22-.22-.33-.47-.33-.75s.1-.54.31-.76c.21-.22.47-.32.77-.32s.55.11.76.32c.21.21.32.47.32.76s-.1.56-.31.76Zm-1.34,4.21h-.35l3.37-6.2h.35l-3.37,6.2Zm1.08-5.48c-.15-.14-.32-.22-.51-.22s-.36.07-.5.22c-.14.14-.22.32-.22.51s.07.36.22.5c.14.14.31.22.5.22.17,0,.34-.07.51-.21.14-.14.22-.31.22-.5s-.07-.37-.22-.51Zm2,5.24c-.22.21-.48.31-.77.31s-.53-.11-.75-.32c-.22-.22-.33-.47-.33-.75s.1-.54.31-.76c.21-.22.47-.32.76-.32s.55.11.77.32c.21.21.32.47.32.76s-.1.56-.31.76Zm-.26-1.27c-.14-.14-.32-.22-.51-.22s-.36.07-.5.22c-.14.15-.22.32-.22.51s.07.36.22.5c.14.14.31.22.5.22s.35-.07.5-.21c.15-.15.23-.32.23-.5,0-.2-.07-.37-.22-.51Z" style="fill: #e44a12;"/>
  </g>
  <rect x="63.28" y="118.83" width="23.18" height=".2" style="fill: #5f5e5e;"/>
  <rect x="63.28" y="138.84" width="23.18" height=".2" style="fill: #5f5e5e;"/>
  <polygon points="86.45 68.23 80.71 64.19 74.97 60.15 69.23 64.19 63.49 68.23 63.5 68.23 63.5 113.48 86.46 113.48 86.46 68.23 86.45 68.23" style="fill: #e44a12;"/>
</svg>