<?xml version="1.0" encoding="UTF-8"?>
<svg id="_1C" data-name="1C" xmlns="http://www.w3.org/2000/svg" width="305.04" height="259.57" viewBox="0 0 305.04 259.57">
  <polygon points="146.18 66.66 140.5 61.53 134.82 56.41 129.14 61.53 123.45 66.66 123.46 66.66 123.46 113.48 146.19 113.48 146.19 66.66 146.18 66.66" style="fill: #8ebfa2;"/>
  <g>
    <path d="m126.08,137.14v-6.46h-.91l.2-.39h1.01v6.86h-.31Z" style="fill: #8ebfa2;"/>
    <path d="m127.34,137.24l-.25-.25,3.24-6.31h-3.19v-.39h3.76l-3.56,6.95Z" style="fill: #8ebfa2;"/>
    <path d="m132.19,137.14v-6.46h-.91l.2-.39h1.01v6.86h-.31Z" style="fill: #8ebfa2;"/>
    <path d="m134.44,137.2c-.05,0-.11-.03-.17-.09-.05-.06-.07-.13-.08-.23,0-.17.08-.28.25-.32.12,0,.21.11.25.32,0,.21-.08.32-.25.32Z" style="fill: #8ebfa2;"/>
    <path d="m137.12,137.14v-6.46h-.91l.2-.39h1.01v6.86h-.31Z" style="fill: #8ebfa2;"/>
    <path d="m139.15,137.14v-6.46h-.91l.2-.39h1.01v6.86h-.31Z" style="fill: #8ebfa2;"/>
    <path d="m143.18,135.84v1.31h-.31v-1.31h-2.75l3.06-5.65v5.26h.62v.38h-.62Zm-.31-4.43l-2.2,4.04h2.2v-4.04Z" style="fill: #8ebfa2;"/>
  </g>
  <g>
    <path d="m123.82,121.5v-1.61h.09v1.52h.45v.09h-.54Z" style="fill: #9d9a9a;"/>
    <path d="m125.26,121.37c-.09.09-.21.14-.34.14s-.25-.05-.34-.14c-.09-.09-.14-.21-.14-.34s.05-.25.14-.34c.09-.1.2-.14.34-.14s.25.05.34.14c.09.09.14.21.14.34s-.05.25-.14.34Zm-.06-.62c-.08-.08-.17-.12-.28-.12s-.2.04-.27.12c-.08.08-.12.17-.12.28s.04.2.12.28c.08.08.17.12.28.12s.2-.04.27-.11c.08-.08.12-.17.12-.28s-.04-.2-.11-.28Z" style="fill: #9d9a9a;"/>
    <path d="m126.07,120.7s-.05-.03-.08-.04c-.03-.01-.06-.02-.09-.02-.03,0-.05,0-.07.02-.02.02-.04.04-.06.06-.02.02-.03.05-.04.08-.01.03-.01.05-.01.08v.61h-.09v-.93h.09v.13s.05-.07.08-.1c.03-.03.07-.04.1-.04.05,0,.09,0,.12.02.03.01.06.03.1.06l-.05.08Z" style="fill: #9d9a9a;"/>
    <path d="m126.22,121.01c0,.13.03.23.1.3.07.08.17.11.29.11.06,0,.12-.01.17-.03.06-.03.12-.08.17-.16l.08.04c-.06.11-.15.19-.27.23-.05.01-.1.02-.16.02-.14,0-.25-.05-.35-.14-.09-.09-.14-.21-.14-.34s.05-.26.14-.35c.09-.09.21-.14.35-.14s.25.04.34.13c.09.09.14.2.14.33h-.87Zm.64-.3c-.07-.05-.15-.08-.24-.08-.19,0-.32.1-.38.28h.76c-.02-.09-.06-.16-.13-.21Z" style="fill: #9d9a9a;"/>
    <path d="m128.37,121.5v-.64c0-.06-.02-.11-.06-.15-.04-.04-.09-.06-.16-.06-.15,0-.22.07-.22.21v.64h-.09v-.64c0-.06-.02-.11-.06-.15-.04-.04-.1-.06-.16-.06s-.11.02-.16.06c-.04.04-.06.09-.06.15v.64h-.09v-.93h.09v.09c.05-.07.12-.11.22-.11.12,0,.21.05.27.15.05-.1.14-.15.26-.15.09,0,.17.03.23.08.06.05.09.13.09.22v.64h-.09Z" style="fill: #9d9a9a;"/>
    <path d="m129.4,120.4s-.03,0-.05-.02c-.01-.01-.02-.03-.02-.05,0-.04.03-.07.07-.07.04,0,.06.03.07.07,0,.05-.03.07-.07.07Zm-.05,1.1v-.93h.09v.93h-.09Z" style="fill: #9d9a9a;"/>
    <path d="m130.46,121.37c-.09.09-.21.14-.34.14-.16,0-.28-.06-.38-.19v.61h-.09v-1.37h.09v.18c.1-.13.22-.19.38-.19.13,0,.25.05.34.14.09.09.14.21.14.34s-.05.25-.14.34Zm-.07-.62c-.08-.08-.17-.11-.27-.11s-.2.04-.28.11c-.08.08-.11.17-.11.28s.04.2.11.28c.08.08.17.12.28.12s.2-.04.27-.11c.08-.08.12-.17.12-.28s-.04-.2-.12-.28Z" style="fill: #9d9a9a;"/>
    <path d="m131.26,121.44c-.06.05-.13.08-.22.08-.14,0-.25-.06-.33-.2l.08-.05s.06.08.09.11c.04.03.09.04.15.04.14,0,.21-.06.21-.18,0-.05-.02-.1-.07-.14-.02,0-.04-.02-.06-.03-.03-.01-.06-.02-.1-.04-.08-.03-.13-.05-.16-.08-.05-.04-.07-.09-.07-.17,0-.06.02-.12.07-.16.05-.05.11-.07.18-.07.1,0,.19.04.26.11l-.07.06c-.05-.05-.12-.08-.2-.08-.11,0-.16.05-.16.14,0,.04.02.08.05.1.03.02.07.04.13.06.05.02.09.04.13.05.03.02.06.03.08.04.06.05.1.12.1.2s-.03.15-.09.2Z" style="fill: #9d9a9a;"/>
    <path d="m132.14,121.41c-.06.07-.15.1-.26.1s-.19-.03-.26-.1c-.06-.06-.09-.16-.09-.27v-.58h.09v.58c0,.09.02.16.06.2.04.05.11.07.19.07.17,0,.26-.09.26-.28v-.58h.09v.58c0,.11-.03.2-.09.27Z" style="fill: #9d9a9a;"/>
    <path d="m133.57,121.5v-.64c0-.06-.02-.11-.06-.15-.04-.04-.09-.06-.16-.06-.15,0-.22.07-.22.21v.64h-.09v-.64c0-.06-.02-.11-.06-.15-.04-.04-.1-.06-.16-.06s-.11.02-.16.06c-.04.04-.06.09-.06.15v.64h-.09v-.93h.09v.09c.05-.07.12-.11.22-.11.12,0,.21.05.27.15.05-.1.14-.15.26-.15.09,0,.17.03.23.08.06.05.09.13.09.22v.64h-.09Z" style="fill: #9d9a9a;"/>
    <path d="m135.35,121.5v-.17c-.1.12-.23.18-.38.18-.14,0-.25-.05-.34-.14-.09-.09-.14-.21-.14-.34s.05-.25.14-.34c.09-.09.21-.14.34-.14.15,0,.28.06.38.18v-.91h.09v1.67h-.09Zm-.1-.74c-.08-.08-.17-.11-.28-.11s-.2.04-.28.11c-.08.08-.12.17-.12.28s.04.2.12.28c.08.08.17.12.28.12s.2-.04.28-.11c.08-.08.11-.17.11-.28s-.04-.2-.11-.28Z" style="fill: #9d9a9a;"/>
    <path d="m136.47,121.37c-.09.09-.21.14-.34.14s-.25-.05-.34-.14c-.09-.09-.14-.21-.14-.34s.05-.25.14-.34c.09-.1.21-.14.34-.14s.25.05.34.14c.09.09.14.21.14.34s-.05.25-.14.34Zm-.07-.62c-.08-.08-.17-.12-.28-.12s-.2.04-.27.12c-.08.08-.12.17-.12.28s.04.2.12.28c.08.08.17.12.28.12s.2-.04.28-.11c.08-.08.11-.17.11-.28s-.04-.2-.11-.28Z" style="fill: #9d9a9a;"/>
    <path d="m136.86,121.5v-1.67h.09v1.67h-.09Z" style="fill: #9d9a9a;"/>
    <path d="m138.03,121.37c-.09.09-.21.14-.34.14s-.25-.05-.34-.14c-.09-.09-.14-.21-.14-.34s.05-.25.14-.34c.09-.1.2-.14.34-.14s.25.05.34.14c.09.09.14.21.14.34s-.05.25-.14.34Zm-.07-.62c-.07-.08-.17-.12-.28-.12s-.2.04-.27.12c-.08.08-.12.17-.12.28s.04.2.12.28c.08.08.17.12.27.12s.2-.04.28-.11c.08-.08.11-.17.11-.28s-.04-.2-.11-.28Z" style="fill: #9d9a9a;"/>
    <path d="m138.84,120.7s-.05-.03-.08-.04c-.03-.01-.06-.02-.09-.02-.03,0-.05,0-.07.02-.02.02-.04.04-.06.06-.02.02-.03.05-.04.08-.01.03-.01.05-.01.08v.61h-.09v-.93h.09v.13s.05-.07.08-.1c.03-.03.07-.04.1-.04.05,0,.08,0,.11.02.03.01.07.03.1.06l-.05.08Z" style="fill: #9d9a9a;"/>
    <path d="m140.13,121.44c-.06.05-.13.08-.22.08-.14,0-.25-.06-.32-.2l.08-.05s.06.08.09.11c.04.03.09.04.15.04.14,0,.21-.06.21-.18,0-.05-.03-.1-.08-.14-.01,0-.04-.02-.06-.03-.03-.01-.06-.02-.1-.04-.08-.03-.13-.05-.16-.08-.05-.04-.07-.09-.07-.17,0-.06.02-.12.07-.16.05-.05.11-.07.18-.07.1,0,.19.04.26.11l-.07.06c-.05-.05-.12-.08-.2-.08-.11,0-.16.05-.16.14,0,.04.02.08.05.1.03.02.07.04.13.06.05.02.09.04.13.05.03.02.06.03.07.04.06.05.1.12.1.2s-.03.15-.09.2Z" style="fill: #9d9a9a;"/>
    <path d="m140.48,120.4s-.03,0-.05-.02c-.01-.01-.02-.03-.02-.05,0-.04.02-.07.07-.07.04,0,.06.03.07.07,0,.05-.02.07-.07.07Zm-.05,1.1v-.93h.09v.93h-.09Z" style="fill: #9d9a9a;"/>
    <path d="m140.97,120.66v.84h-.09v-.84h-.13v-.09h.13v-.41h.09v.41h.22v.09h-.22Z" style="fill: #9d9a9a;"/>
    <path d="m142.75,121.5v-.16c-.1.12-.22.18-.37.18-.14,0-.25-.05-.34-.14-.09-.09-.14-.21-.14-.34s.05-.25.14-.34c.09-.09.21-.14.34-.14.15,0,.27.06.37.18v-.16h.09v.93h-.09Zm-.1-.74c-.08-.08-.17-.11-.28-.11s-.2.04-.27.11c-.08.08-.12.17-.12.28s.04.2.12.28c.08.08.17.12.27.12s.2-.04.28-.11c.08-.08.12-.17.12-.28s-.04-.2-.12-.28Z" style="fill: #9d9a9a;"/>
    <path d="m144.18,121.5v-.64c0-.06-.02-.11-.06-.15-.04-.04-.09-.06-.16-.06-.15,0-.22.07-.22.21v.64h-.09v-.64c0-.06-.02-.11-.06-.15-.04-.04-.1-.06-.16-.06s-.11.02-.15.06c-.04.04-.06.09-.06.15v.64h-.09v-.93h.09v.09c.05-.07.12-.11.22-.11.12,0,.21.05.27.15.05-.1.14-.15.26-.15.09,0,.17.03.23.08.06.05.08.13.08.22v.64h-.09Z" style="fill: #9d9a9a;"/>
    <path d="m144.59,121.01c0,.13.03.23.1.3.07.08.17.11.29.11.06,0,.12-.01.17-.03.06-.03.12-.08.17-.16l.08.04c-.06.11-.15.19-.27.23-.05.01-.1.02-.16.02-.14,0-.26-.05-.35-.14-.09-.09-.14-.21-.14-.34s.05-.26.14-.35c.09-.09.21-.14.35-.14s.25.04.34.13c.09.09.14.2.14.33h-.87Zm.64-.3c-.07-.05-.15-.08-.24-.08-.19,0-.32.1-.38.28h.76c-.02-.09-.06-.16-.13-.21Z" style="fill: #9d9a9a;"/>
    <path d="m145.71,120.66v.84h-.09v-.84h-.13v-.09h.13v-.41h.09v.41h.22v.09h-.22Z" style="fill: #9d9a9a;"/>
    <path d="m146.12,121.73l-.03-.02.17-.37.08.03-.22.35Z" style="fill: #9d9a9a;"/>
    <path d="m123.96,123.92c-.14,0-.25-.05-.35-.14-.09-.09-.14-.21-.14-.34s.05-.25.14-.34c.09-.09.21-.14.35-.14.12,0,.21.03.28.08v.11l-.06-.04-.06-.03c-.06-.02-.11-.03-.16-.03-.12,0-.21.04-.28.11-.07.07-.11.17-.11.28s.04.21.11.28c.07.07.17.11.28.11s.2-.04.28-.11v.11c-.08.06-.18.08-.28.08Z" style="fill: #9d9a9a;"/>
    <path d="m125.12,123.78c-.09.09-.21.14-.34.14s-.25-.05-.34-.14c-.09-.09-.14-.21-.14-.34s.05-.25.14-.34c.09-.09.21-.14.34-.14s.25.05.34.14c.09.09.14.21.14.34s-.05.25-.14.34Zm-.07-.62c-.07-.08-.17-.12-.28-.12s-.2.04-.27.12c-.08.08-.12.17-.12.28s.04.2.12.28c.08.08.17.12.28.12s.2-.04.27-.11c.08-.08.12-.17.12-.28s-.04-.2-.11-.28Z" style="fill: #9d9a9a;"/>
    <path d="m126.12,123.9v-.56c0-.2-.09-.3-.27-.3-.09,0-.15.03-.2.08-.05.05-.07.12-.07.21v.57h-.09v-.93h.09v.11c.04-.08.13-.12.27-.12.12,0,.2.03.27.1.06.07.09.16.09.28v.57h-.09Z" style="fill: #9d9a9a;"/>
    <path d="m126.97,123.84c-.06.05-.13.08-.22.08-.14,0-.25-.07-.32-.2l.08-.05s.06.08.09.11c.04.03.09.04.15.04.14,0,.21-.06.21-.18,0-.05-.02-.1-.07-.14-.02,0-.04-.02-.07-.03-.03-.01-.06-.02-.1-.04-.08-.03-.13-.05-.16-.08-.05-.04-.07-.09-.07-.17,0-.06.02-.12.07-.16.05-.05.11-.07.18-.07.1,0,.19.04.26.11l-.07.06c-.05-.05-.12-.08-.2-.08-.11,0-.16.05-.16.14,0,.04.02.08.05.1.03.02.07.04.13.06.05.02.09.04.13.05.03.02.06.03.08.04.06.05.1.12.1.2s-.03.15-.09.2Z" style="fill: #9d9a9a;"/>
    <path d="m127.27,123.42c0,.13.03.23.1.3.07.08.17.11.29.11.06,0,.12-.01.17-.03.07-.03.12-.08.17-.16l.08.04c-.06.11-.15.19-.27.23-.05.01-.1.02-.16.02-.14,0-.25-.05-.34-.14-.09-.09-.14-.21-.14-.34s.05-.25.14-.34c.09-.09.21-.14.35-.14s.25.04.34.13c.09.09.14.2.14.33h-.87Zm.64-.3c-.07-.05-.15-.08-.24-.08-.19,0-.32.1-.38.28h.76c-.01-.09-.06-.16-.13-.21Z" style="fill: #9d9a9a;"/>
    <path d="m128.8,123.92c-.14,0-.25-.05-.34-.14-.09-.09-.14-.21-.14-.34s.05-.25.14-.34c.09-.09.21-.14.34-.14.12,0,.22.03.28.08v.11l-.06-.04-.06-.03c-.06-.02-.11-.03-.16-.03-.11,0-.21.04-.28.11-.07.07-.11.17-.11.28s.04.21.11.28c.07.07.17.11.28.11s.2-.04.28-.11v.11c-.08.06-.18.08-.28.08Z" style="fill: #9d9a9a;"/>
    <path d="m129.49,123.06v.84h-.09v-.84h-.13v-.09h.13v-.41h.09v.41h.22v.09h-.22Z" style="fill: #9d9a9a;"/>
    <path d="m129.93,123.42c0,.13.03.23.1.3.07.08.17.11.29.11.06,0,.12-.01.17-.03.06-.03.12-.08.17-.16l.08.04c-.06.11-.15.19-.27.23-.05.01-.1.02-.16.02-.14,0-.25-.05-.35-.14-.09-.09-.14-.21-.14-.34s.05-.25.14-.34c.09-.09.21-.14.35-.14s.25.04.34.13c.09.09.14.2.14.33h-.87Zm.64-.3c-.07-.05-.15-.08-.24-.08-.19,0-.32.1-.38.28h.76c-.02-.09-.06-.16-.13-.21Z" style="fill: #9d9a9a;"/>
    <path d="m131.05,123.06v.84h-.09v-.84h-.13v-.09h.13v-.41h.09v.41h.22v.09h-.22Z" style="fill: #9d9a9a;"/>
    <path d="m132.07,123.82c-.06.07-.15.1-.26.1s-.2-.03-.26-.1c-.06-.06-.09-.16-.09-.27v-.58h.09v.58c0,.09.02.16.06.2.04.05.11.07.2.07.17,0,.26-.09.26-.28v-.58h.09v.58c0,.11-.03.2-.09.27Z" style="fill: #9d9a9a;"/>
    <path d="m132.88,123.11s-.05-.03-.08-.04c-.03-.01-.06-.02-.09-.02-.03,0-.05,0-.07.02-.02.02-.04.04-.06.06-.02.02-.03.05-.04.08-.01.03-.02.05-.02.08v.61h-.09v-.93h.09v.13s.05-.07.08-.09c.03-.03.07-.04.1-.04.05,0,.08,0,.11.02.03.01.06.03.1.06l-.05.08Z" style="fill: #9d9a9a;"/>
    <path d="m134.5,123.9v-.16c-.1.12-.22.18-.37.18-.14,0-.25-.05-.34-.14-.09-.09-.14-.21-.14-.34s.05-.25.14-.34c.09-.09.21-.14.34-.14.15,0,.27.06.37.18v-.16h.09v.93h-.09Zm-.1-.74c-.08-.08-.17-.11-.28-.11s-.2.04-.27.11c-.08.08-.12.17-.12.28s.04.2.12.28c.08.08.17.12.27.12s.2-.04.28-.11c.08-.08.11-.17.11-.28s-.04-.2-.11-.28Z" style="fill: #9d9a9a;"/>
    <path d="m135.68,123.9v-.17c-.1.12-.23.18-.38.18-.13,0-.25-.05-.34-.14-.09-.09-.14-.21-.14-.34s.05-.25.14-.34c.09-.09.21-.14.34-.14.15,0,.28.06.38.18v-.91h.09v1.67h-.09Zm-.1-.74c-.08-.08-.17-.11-.28-.11s-.2.04-.28.11c-.08.08-.12.17-.12.28s.04.2.12.28c.08.08.17.12.28.12s.2-.04.28-.11c.08-.08.12-.17.12-.28s-.04-.2-.12-.28Z" style="fill: #9d9a9a;"/>
    <path d="m136.11,122.8s-.03,0-.05-.02c-.01-.01-.02-.03-.02-.05,0-.04.02-.06.07-.07.04,0,.06.02.07.07,0,.05-.03.07-.07.07Zm-.05,1.1v-.93h.09v.93h-.09Z" style="fill: #9d9a9a;"/>
    <path d="m137.17,123.78c-.09.09-.21.14-.34.14-.15,0-.28-.06-.38-.19v.61h-.09v-1.37h.09v.18c.1-.13.22-.19.38-.19.14,0,.25.05.34.14.09.09.14.21.14.34s-.05.25-.14.34Zm-.07-.62c-.08-.08-.17-.11-.28-.11s-.2.04-.28.11c-.08.08-.11.17-.11.28s.04.2.11.28c.08.08.17.12.28.12s.2-.04.28-.11c.08-.08.12-.17.12-.28s-.04-.2-.12-.28Z" style="fill: #9d9a9a;"/>
    <path d="m137.58,122.8s-.03,0-.05-.02c-.01-.01-.02-.03-.02-.05,0-.04.03-.06.08-.07.04,0,.06.02.07.07,0,.05-.02.07-.07.07Zm-.05,1.1v-.93h.09v.93h-.09Z" style="fill: #9d9a9a;"/>
    <path d="m138.39,123.84c-.06.05-.13.08-.22.08-.14,0-.25-.07-.33-.2l.08-.05s.06.08.09.11c.04.03.09.04.15.04.14,0,.21-.06.21-.18,0-.05-.02-.1-.07-.14-.02,0-.04-.02-.07-.03-.03-.01-.06-.02-.1-.04-.08-.03-.13-.05-.16-.08-.05-.04-.07-.09-.07-.17,0-.06.02-.12.07-.16.05-.05.11-.07.18-.07.1,0,.19.04.26.11l-.07.06c-.05-.05-.12-.08-.2-.08-.11,0-.16.05-.16.14,0,.04.02.08.05.1.03.02.07.04.13.06.05.02.09.04.13.05.03.02.06.03.07.04.06.05.1.12.1.2s-.03.15-.09.2Z" style="fill: #9d9a9a;"/>
    <path d="m138.74,122.8s-.03,0-.05-.02c-.01-.01-.02-.03-.02-.05,0-.04.03-.06.07-.07.04,0,.06.02.07.07,0,.05-.03.07-.07.07Zm-.05,1.1v-.93h.09v.93h-.09Z" style="fill: #9d9a9a;"/>
    <path d="m139.53,123.92c-.14,0-.25-.05-.35-.14-.09-.09-.14-.21-.14-.34s.05-.25.14-.34c.09-.09.21-.14.35-.14.12,0,.21.03.28.08v.11l-.06-.04-.06-.03c-.06-.02-.11-.03-.16-.03-.12,0-.21.04-.28.11-.07.07-.11.17-.11.28s.04.21.11.28c.07.07.17.11.28.11.11,0,.2-.04.28-.11v.11c-.08.06-.18.08-.28.08Z" style="fill: #9d9a9a;"/>
    <path d="m140.09,122.8s-.03,0-.05-.02c-.01-.01-.02-.03-.02-.05,0-.04.02-.06.07-.07.04,0,.06.02.07.07,0,.05-.03.07-.07.07Zm-.05,1.1v-.93h.09v.93h-.09Z" style="fill: #9d9a9a;"/>
    <path d="m140.96,123.9v-.56c0-.2-.09-.3-.27-.3-.09,0-.15.03-.2.08-.05.05-.07.12-.07.21v.57h-.09v-.93h.09v.11c.04-.08.13-.12.27-.12.12,0,.21.03.27.1.06.07.09.16.09.28v.57h-.09Z" style="fill: #9d9a9a;"/>
    <path d="m142.1,124.21c-.08.08-.2.13-.33.13-.25,0-.41-.1-.46-.3h.09c.02.07.06.13.14.16.06.03.14.04.22.04.12,0,.21-.03.27-.1.06-.07.1-.16.1-.27v-.14c-.1.12-.22.18-.37.18-.14,0-.25-.05-.34-.14-.09-.09-.14-.21-.14-.34s.05-.25.14-.34c.09-.09.21-.14.34-.14.15,0,.27.06.37.18v-.16h.09v.91c0,.14-.04.25-.13.33Zm-.06-1.05c-.08-.08-.17-.11-.28-.11s-.2.04-.28.11c-.08.08-.11.17-.11.28s.04.2.11.28c.08.08.17.12.28.12s.2-.04.28-.11c.08-.08.12-.17.12-.28s-.04-.2-.12-.28Z" style="fill: #9d9a9a;"/>
    <path d="m143.09,123.42c0,.13.03.23.1.3.07.08.17.11.29.11.06,0,.12-.01.17-.03.07-.03.12-.08.17-.16l.08.04c-.06.11-.15.19-.27.23-.05.01-.1.02-.16.02-.14,0-.26-.05-.35-.14-.09-.09-.14-.21-.14-.34s.05-.25.14-.34c.09-.09.21-.14.35-.14s.25.04.34.13c.09.09.14.2.14.33h-.87Zm.64-.3c-.07-.05-.15-.08-.24-.08-.19,0-.32.1-.38.28h.76c-.01-.09-.06-.16-.13-.21Z" style="fill: #9d9a9a;"/>
    <path d="m144.2,123.9v-1.67h.09v1.67h-.09Z" style="fill: #9d9a9a;"/>
    <path d="m144.56,122.8s-.03,0-.05-.02c-.01-.01-.02-.03-.02-.05,0-.04.02-.06.07-.07.04,0,.06.02.07.07,0,.05-.02.07-.07.07Zm-.05,1.1v-.93h.09v.93h-.09Z" style="fill: #9d9a9a;"/>
    <path d="m145.05,123.06v.84h-.09v-.84h-.13v-.09h.13v-.41h.09v.41h.22v.09h-.22Z" style="fill: #9d9a9a;"/>
    <path d="m145.46,124.14l-.03-.02.17-.37.08.03-.22.35Z" style="fill: #9d9a9a;"/>
    <path d="m124.02,126.11c-.06.05-.13.08-.22.08-.14,0-.25-.07-.32-.2l.08-.05s.06.08.09.11c.04.03.09.04.15.04.14,0,.21-.06.21-.18,0-.05-.02-.1-.07-.14-.02,0-.04-.02-.06-.03-.03-.01-.06-.02-.1-.04-.07-.03-.13-.05-.16-.08-.05-.04-.07-.09-.07-.17,0-.06.02-.12.07-.16.05-.05.11-.07.18-.07.1,0,.19.04.26.11l-.07.06c-.05-.05-.12-.08-.2-.08-.11,0-.16.05-.16.14,0,.04.02.08.05.1.03.02.07.04.13.06.05.02.09.04.13.05.03.02.06.03.07.04.06.05.1.12.1.2s-.03.15-.09.2Z" style="fill: #9d9a9a;"/>
    <path d="m124.33,125.69c0,.13.03.23.1.3.07.08.17.11.29.11.06,0,.12-.01.17-.03.06-.03.12-.08.17-.16l.08.04c-.06.11-.15.19-.27.23-.05.01-.1.02-.16.02-.14,0-.26-.05-.35-.14-.09-.09-.14-.21-.14-.34s.05-.25.14-.34c.09-.09.21-.14.35-.14s.25.04.34.13c.09.09.14.2.14.33h-.87Zm.64-.3c-.07-.05-.15-.08-.24-.08-.19,0-.32.1-.38.28h.76c-.01-.09-.06-.16-.13-.21Z" style="fill: #9d9a9a;"/>
    <path d="m126.23,126.17v-.17c-.1.12-.23.18-.38.18-.13,0-.25-.05-.34-.14-.09-.09-.14-.21-.14-.34s.05-.25.14-.34c.09-.09.21-.14.34-.14.15,0,.28.06.38.18v-.91h.09v1.67h-.09Zm-.1-.74c-.08-.08-.17-.11-.28-.11s-.2.04-.28.11c-.08.08-.11.17-.11.28s.04.2.11.28c.08.08.17.12.28.12s.2-.04.28-.11c.08-.08.12-.17.12-.28s-.04-.2-.12-.28Z" style="fill: #9d9a9a;"/>
    <path d="m127.98,126.17v-.17c-.1.12-.23.18-.38.18-.14,0-.25-.05-.34-.14-.09-.09-.14-.21-.14-.34s.05-.25.14-.34c.09-.09.21-.14.34-.14.15,0,.28.06.38.18v-.91h.09v1.67h-.09Zm-.1-.74c-.08-.08-.17-.11-.28-.11s-.2.04-.28.11c-.08.08-.11.17-.11.28s.04.2.11.28c.08.08.17.12.28.12s.2-.04.28-.11c.08-.08.11-.17.11-.28s-.04-.2-.11-.28Z" style="fill: #9d9a9a;"/>
    <path d="m129.1,126.05c-.09.09-.21.14-.34.14s-.25-.05-.34-.14c-.09-.09-.14-.21-.14-.34s.05-.25.14-.34c.09-.09.2-.14.34-.14s.25.05.34.14c.09.09.14.21.14.34s-.05.25-.14.34Zm-.07-.62c-.08-.08-.17-.12-.28-.12-.11,0-.2.04-.27.12-.08.08-.12.17-.12.28s.04.2.12.28c.08.08.17.12.27.12s.2-.04.28-.11c.08-.08.11-.17.11-.28s-.04-.2-.11-.28Z" style="fill: #9d9a9a;"/>
  </g>
  <rect x="123.58" y="118.83" width="23.18" height=".2" style="fill: #5f5e5e;"/>
  <rect x="123.51" y="138.84" width="23.18" height=".2" style="fill: #5f5e5e;"/>
</svg>