<?xml version="1.0" encoding="UTF-8"?>
<svg id="_1D" data-name="1D" xmlns="http://www.w3.org/2000/svg" width="305.04" height="259.57" viewBox="0 0 305.04 259.57">
  <g>
    <path d="m152.72,121.5v-1.61h.09v1.52h.45v.09h-.54Z" style="fill: #9d9a9a;"/>
    <path d="m154.16,121.37c-.09.09-.21.14-.34.14s-.25-.05-.34-.14c-.09-.09-.14-.21-.14-.34s.05-.25.14-.34c.09-.1.2-.14.34-.14s.25.05.34.14c.09.09.14.21.14.34s-.05.25-.14.34Zm-.06-.62c-.08-.08-.17-.12-.28-.12s-.2.04-.27.12c-.08.08-.12.17-.12.28s.04.2.12.28c.08.08.17.12.28.12s.2-.04.27-.11c.08-.08.12-.17.12-.28s-.04-.2-.11-.28Z" style="fill: #9d9a9a;"/>
    <path d="m154.97,120.7s-.05-.03-.08-.04c-.03-.01-.06-.02-.09-.02-.03,0-.05,0-.07.02-.02.02-.04.04-.06.06-.02.02-.03.05-.04.08-.01.03-.01.05-.01.08v.61h-.09v-.93h.09v.13s.05-.07.08-.1c.03-.03.07-.04.1-.04.05,0,.09,0,.12.02.03.01.06.03.1.06l-.05.08Z" style="fill: #9d9a9a;"/>
    <path d="m155.12,121.01c0,.13.03.23.1.3.07.08.17.11.29.11.06,0,.12-.01.17-.03.06-.03.12-.08.17-.16l.08.04c-.06.11-.15.19-.27.23-.05.01-.1.02-.16.02-.14,0-.25-.05-.35-.14-.09-.09-.14-.21-.14-.34s.05-.26.14-.35c.09-.09.21-.14.35-.14s.25.04.34.13c.09.09.14.2.14.33h-.87Zm.64-.3c-.07-.05-.15-.08-.24-.08-.19,0-.32.1-.38.28h.76c-.02-.09-.06-.16-.13-.21Z" style="fill: #9d9a9a;"/>
    <path d="m157.26,121.5v-.64c0-.06-.02-.11-.06-.15-.04-.04-.09-.06-.16-.06-.15,0-.22.07-.22.21v.64h-.09v-.64c0-.06-.02-.11-.06-.15-.04-.04-.1-.06-.16-.06s-.11.02-.16.06c-.04.04-.06.09-.06.15v.64h-.09v-.93h.09v.09c.05-.07.12-.11.22-.11.12,0,.21.05.27.15.05-.1.14-.15.26-.15.09,0,.17.03.23.08.06.05.09.13.09.22v.64h-.09Z" style="fill: #9d9a9a;"/>
    <path d="m158.29,120.4s-.03,0-.05-.02c-.01-.01-.02-.03-.02-.05,0-.04.03-.07.07-.07.04,0,.06.03.07.07,0,.05-.03.07-.07.07Zm-.05,1.1v-.93h.09v.93h-.09Z" style="fill: #9d9a9a;"/>
    <path d="m159.35,121.37c-.09.09-.21.14-.34.14-.16,0-.28-.06-.38-.19v.61h-.09v-1.37h.09v.18c.1-.13.22-.19.38-.19.13,0,.25.05.34.14.09.09.14.21.14.34s-.05.25-.14.34Zm-.07-.62c-.08-.08-.17-.11-.27-.11s-.2.04-.28.11c-.08.08-.11.17-.11.28s.04.2.11.28c.08.08.17.12.28.12s.2-.04.27-.11c.08-.08.12-.17.12-.28s-.04-.2-.12-.28Z" style="fill: #9d9a9a;"/>
    <path d="m160.16,121.44c-.06.05-.13.08-.22.08-.14,0-.25-.06-.33-.2l.08-.05s.06.08.09.11c.04.03.09.04.15.04.14,0,.21-.06.21-.18,0-.05-.02-.1-.07-.14-.02,0-.04-.02-.06-.03-.03-.01-.06-.02-.1-.04-.08-.03-.13-.05-.16-.08-.05-.04-.07-.09-.07-.17,0-.06.02-.12.07-.16.05-.05.11-.07.18-.07.1,0,.19.04.26.11l-.07.06c-.05-.05-.12-.08-.2-.08-.11,0-.16.05-.16.14,0,.04.02.08.05.1.03.02.07.04.13.06.05.02.09.04.13.05.03.02.06.03.08.04.06.05.1.12.1.2s-.03.15-.09.2Z" style="fill: #9d9a9a;"/>
    <path d="m161.04,121.41c-.06.07-.15.1-.26.1s-.19-.03-.26-.1c-.06-.06-.09-.16-.09-.27v-.58h.09v.58c0,.09.02.16.06.2.04.05.11.07.19.07.17,0,.26-.09.26-.28v-.58h.09v.58c0,.11-.03.2-.09.27Z" style="fill: #9d9a9a;"/>
    <path d="m162.47,121.5v-.64c0-.06-.02-.11-.06-.15-.04-.04-.09-.06-.16-.06-.15,0-.22.07-.22.21v.64h-.09v-.64c0-.06-.02-.11-.06-.15-.04-.04-.1-.06-.16-.06s-.11.02-.16.06c-.04.04-.06.09-.06.15v.64h-.09v-.93h.09v.09c.05-.07.12-.11.22-.11.12,0,.21.05.27.15.05-.1.14-.15.26-.15.09,0,.17.03.23.08.06.05.09.13.09.22v.64h-.09Z" style="fill: #9d9a9a;"/>
    <path d="m164.24,121.5v-.17c-.1.12-.23.18-.38.18-.14,0-.25-.05-.34-.14-.09-.09-.14-.21-.14-.34s.05-.25.14-.34c.09-.09.21-.14.34-.14.15,0,.28.06.38.18v-.91h.09v1.67h-.09Zm-.1-.74c-.08-.08-.17-.11-.28-.11s-.2.04-.28.11c-.08.08-.12.17-.12.28s.04.2.12.28c.08.08.17.12.28.12s.2-.04.28-.11c.08-.08.11-.17.11-.28s-.04-.2-.11-.28Z" style="fill: #9d9a9a;"/>
    <path d="m165.37,121.37c-.09.09-.21.14-.34.14s-.25-.05-.34-.14c-.09-.09-.14-.21-.14-.34s.05-.25.14-.34c.09-.1.21-.14.34-.14s.25.05.34.14c.09.09.14.21.14.34s-.05.25-.14.34Zm-.07-.62c-.08-.08-.17-.12-.28-.12s-.2.04-.27.12c-.08.08-.12.17-.12.28s.04.2.12.28c.08.08.17.12.28.12s.2-.04.28-.11c.08-.08.11-.17.11-.28s-.04-.2-.11-.28Z" style="fill: #9d9a9a;"/>
    <path d="m165.76,121.5v-1.67h.09v1.67h-.09Z" style="fill: #9d9a9a;"/>
    <path d="m166.92,121.37c-.09.09-.21.14-.34.14s-.25-.05-.34-.14c-.09-.09-.14-.21-.14-.34s.05-.25.14-.34c.09-.1.2-.14.34-.14s.25.05.34.14c.09.09.14.21.14.34s-.05.25-.14.34Zm-.07-.62c-.07-.08-.17-.12-.28-.12s-.2.04-.27.12c-.08.08-.12.17-.12.28s.04.2.12.28c.08.08.17.12.27.12s.2-.04.28-.11c.08-.08.11-.17.11-.28s-.04-.2-.11-.28Z" style="fill: #9d9a9a;"/>
    <path d="m167.73,120.7s-.05-.03-.08-.04c-.03-.01-.06-.02-.09-.02-.03,0-.05,0-.07.02-.02.02-.04.04-.06.06-.02.02-.03.05-.04.08-.01.03-.01.05-.01.08v.61h-.09v-.93h.09v.13s.05-.07.08-.1c.03-.03.07-.04.1-.04.05,0,.08,0,.11.02.03.01.07.03.1.06l-.05.08Z" style="fill: #9d9a9a;"/>
    <path d="m169.02,121.44c-.06.05-.13.08-.22.08-.14,0-.25-.06-.32-.2l.08-.05s.06.08.09.11c.04.03.09.04.15.04.14,0,.21-.06.21-.18,0-.05-.03-.1-.08-.14-.01,0-.04-.02-.06-.03-.03-.01-.06-.02-.1-.04-.08-.03-.13-.05-.16-.08-.05-.04-.07-.09-.07-.17,0-.06.02-.12.07-.16.05-.05.11-.07.18-.07.1,0,.19.04.26.11l-.07.06c-.05-.05-.12-.08-.2-.08-.11,0-.16.05-.16.14,0,.04.02.08.05.1.03.02.07.04.13.06.05.02.09.04.13.05.03.02.06.03.07.04.06.05.1.12.1.2s-.03.15-.09.2Z" style="fill: #9d9a9a;"/>
    <path d="m169.38,120.4s-.03,0-.05-.02c-.01-.01-.02-.03-.02-.05,0-.04.02-.07.07-.07.04,0,.06.03.07.07,0,.05-.02.07-.07.07Zm-.05,1.1v-.93h.09v.93h-.09Z" style="fill: #9d9a9a;"/>
    <path d="m169.87,120.66v.84h-.09v-.84h-.13v-.09h.13v-.41h.09v.41h.22v.09h-.22Z" style="fill: #9d9a9a;"/>
    <path d="m171.65,121.5v-.16c-.1.12-.22.18-.37.18-.14,0-.25-.05-.34-.14-.09-.09-.14-.21-.14-.34s.05-.25.14-.34c.09-.09.21-.14.34-.14.15,0,.27.06.37.18v-.16h.09v.93h-.09Zm-.1-.74c-.08-.08-.17-.11-.28-.11s-.2.04-.27.11c-.08.08-.12.17-.12.28s.04.2.12.28c.08.08.17.12.27.12s.2-.04.28-.11c.08-.08.12-.17.12-.28s-.04-.2-.12-.28Z" style="fill: #9d9a9a;"/>
    <path d="m173.08,121.5v-.64c0-.06-.02-.11-.06-.15-.04-.04-.09-.06-.16-.06-.15,0-.22.07-.22.21v.64h-.09v-.64c0-.06-.02-.11-.06-.15-.04-.04-.1-.06-.16-.06s-.11.02-.15.06c-.04.04-.06.09-.06.15v.64h-.09v-.93h.09v.09c.05-.07.12-.11.22-.11.12,0,.21.05.27.15.05-.1.14-.15.26-.15.09,0,.17.03.23.08.06.05.08.13.08.22v.64h-.09Z" style="fill: #9d9a9a;"/>
    <path d="m173.49,121.01c0,.13.03.23.1.3.07.08.17.11.29.11.06,0,.12-.01.17-.03.06-.03.12-.08.17-.16l.08.04c-.06.11-.15.19-.27.23-.05.01-.1.02-.16.02-.14,0-.26-.05-.35-.14-.09-.09-.14-.21-.14-.34s.05-.26.14-.35c.09-.09.21-.14.35-.14s.25.04.34.13c.09.09.14.2.14.33h-.87Zm.64-.3c-.07-.05-.15-.08-.24-.08-.19,0-.32.1-.38.28h.76c-.02-.09-.06-.16-.13-.21Z" style="fill: #9d9a9a;"/>
    <path d="m174.61,120.66v.84h-.09v-.84h-.13v-.09h.13v-.41h.09v.41h.22v.09h-.22Z" style="fill: #9d9a9a;"/>
    <path d="m175.02,121.73l-.03-.02.17-.37.08.03-.22.35Z" style="fill: #9d9a9a;"/>
    <path d="m152.86,123.92c-.14,0-.25-.05-.35-.14-.09-.09-.14-.21-.14-.34s.05-.25.14-.34c.09-.09.21-.14.35-.14.12,0,.21.03.28.08v.11l-.06-.04-.06-.03c-.06-.02-.11-.03-.16-.03-.12,0-.21.04-.28.11-.07.07-.11.17-.11.28s.04.21.11.28c.07.07.17.11.28.11s.2-.04.28-.11v.11c-.08.06-.18.08-.28.08Z" style="fill: #9d9a9a;"/>
    <path d="m154.02,123.78c-.09.09-.21.14-.34.14s-.25-.05-.34-.14c-.09-.09-.14-.21-.14-.34s.05-.25.14-.34c.09-.09.21-.14.34-.14s.25.05.34.14c.09.09.14.21.14.34s-.05.25-.14.34Zm-.07-.62c-.07-.08-.17-.12-.28-.12s-.2.04-.27.12c-.08.08-.12.17-.12.28s.04.2.12.28c.08.08.17.12.28.12s.2-.04.27-.11c.08-.08.12-.17.12-.28s-.04-.2-.11-.28Z" style="fill: #9d9a9a;"/>
    <path d="m155.01,123.9v-.56c0-.2-.09-.3-.27-.3-.09,0-.15.03-.2.08-.05.05-.07.12-.07.21v.57h-.09v-.93h.09v.11c.04-.08.13-.12.27-.12.12,0,.2.03.27.1.06.07.09.16.09.28v.57h-.09Z" style="fill: #9d9a9a;"/>
    <path d="m155.86,123.84c-.06.05-.13.08-.22.08-.14,0-.25-.07-.32-.2l.08-.05s.06.08.09.11c.04.03.09.04.15.04.14,0,.21-.06.21-.18,0-.05-.02-.1-.07-.14-.02,0-.04-.02-.07-.03-.03-.01-.06-.02-.1-.04-.08-.03-.13-.05-.16-.08-.05-.04-.07-.09-.07-.17,0-.06.02-.12.07-.16.05-.05.11-.07.18-.07.1,0,.19.04.26.11l-.07.06c-.05-.05-.12-.08-.2-.08-.11,0-.16.05-.16.14,0,.04.02.08.05.1.03.02.07.04.13.06.05.02.09.04.13.05.03.02.06.03.08.04.06.05.1.12.1.2s-.03.15-.09.2Z" style="fill: #9d9a9a;"/>
    <path d="m156.17,123.42c0,.13.03.23.1.3.07.08.17.11.29.11.06,0,.12-.01.17-.03.07-.03.12-.08.17-.16l.08.04c-.06.11-.15.19-.27.23-.05.01-.1.02-.16.02-.14,0-.25-.05-.34-.14-.09-.09-.14-.21-.14-.34s.05-.25.14-.34c.09-.09.21-.14.35-.14s.25.04.34.13c.09.09.14.2.14.33h-.87Zm.64-.3c-.07-.05-.15-.08-.24-.08-.19,0-.32.1-.38.28h.76c-.01-.09-.06-.16-.13-.21Z" style="fill: #9d9a9a;"/>
    <path d="m157.7,123.92c-.14,0-.25-.05-.34-.14-.09-.09-.14-.21-.14-.34s.05-.25.14-.34c.09-.09.21-.14.34-.14.12,0,.22.03.28.08v.11l-.06-.04-.06-.03c-.06-.02-.11-.03-.16-.03-.11,0-.21.04-.28.11-.07.07-.11.17-.11.28s.04.21.11.28c.07.07.17.11.28.11s.2-.04.28-.11v.11c-.08.06-.18.08-.28.08Z" style="fill: #9d9a9a;"/>
    <path d="m158.38,123.06v.84h-.09v-.84h-.13v-.09h.13v-.41h.09v.41h.22v.09h-.22Z" style="fill: #9d9a9a;"/>
    <path d="m158.83,123.42c0,.13.03.23.1.3.07.08.17.11.29.11.06,0,.12-.01.17-.03.06-.03.12-.08.17-.16l.08.04c-.06.11-.15.19-.27.23-.05.01-.1.02-.16.02-.14,0-.25-.05-.35-.14-.09-.09-.14-.21-.14-.34s.05-.25.14-.34c.09-.09.21-.14.35-.14s.25.04.34.13c.09.09.14.2.14.33h-.87Zm.64-.3c-.07-.05-.15-.08-.24-.08-.19,0-.32.1-.38.28h.76c-.02-.09-.06-.16-.13-.21Z" style="fill: #9d9a9a;"/>
    <path d="m159.95,123.06v.84h-.09v-.84h-.13v-.09h.13v-.41h.09v.41h.22v.09h-.22Z" style="fill: #9d9a9a;"/>
    <path d="m160.97,123.82c-.06.07-.15.1-.26.1s-.2-.03-.26-.1c-.06-.06-.09-.16-.09-.27v-.58h.09v.58c0,.09.02.16.06.2.04.05.11.07.2.07.17,0,.26-.09.26-.28v-.58h.09v.58c0,.11-.03.2-.09.27Z" style="fill: #9d9a9a;"/>
    <path d="m161.78,123.11s-.05-.03-.08-.04c-.03-.01-.06-.02-.09-.02-.03,0-.05,0-.07.02-.02.02-.04.04-.06.06-.02.02-.03.05-.04.08-.01.03-.02.05-.02.08v.61h-.09v-.93h.09v.13s.05-.07.08-.09c.03-.03.07-.04.1-.04.05,0,.08,0,.11.02.03.01.06.03.1.06l-.05.08Z" style="fill: #9d9a9a;"/>
    <path d="m163.4,123.9v-.16c-.1.12-.22.18-.37.18-.14,0-.25-.05-.34-.14-.09-.09-.14-.21-.14-.34s.05-.25.14-.34c.09-.09.21-.14.34-.14.15,0,.27.06.37.18v-.16h.09v.93h-.09Zm-.1-.74c-.08-.08-.17-.11-.28-.11s-.2.04-.27.11c-.08.08-.12.17-.12.28s.04.2.12.28c.08.08.17.12.27.12s.2-.04.28-.11c.08-.08.11-.17.11-.28s-.04-.2-.11-.28Z" style="fill: #9d9a9a;"/>
    <path d="m164.57,123.9v-.17c-.1.12-.23.18-.38.18-.13,0-.25-.05-.34-.14-.09-.09-.14-.21-.14-.34s.05-.25.14-.34c.09-.09.21-.14.34-.14.15,0,.28.06.38.18v-.91h.09v1.67h-.09Zm-.1-.74c-.08-.08-.17-.11-.28-.11s-.2.04-.28.11c-.08.08-.12.17-.12.28s.04.2.12.28c.08.08.17.12.28.12s.2-.04.28-.11c.08-.08.12-.17.12-.28s-.04-.2-.12-.28Z" style="fill: #9d9a9a;"/>
    <path d="m165,122.8s-.03,0-.05-.02c-.01-.01-.02-.03-.02-.05,0-.04.02-.06.07-.07.04,0,.06.02.07.07,0,.05-.03.07-.07.07Zm-.05,1.1v-.93h.09v.93h-.09Z" style="fill: #9d9a9a;"/>
    <path d="m166.07,123.78c-.09.09-.21.14-.34.14-.15,0-.28-.06-.38-.19v.61h-.09v-1.37h.09v.18c.1-.13.22-.19.38-.19.14,0,.25.05.34.14.09.09.14.21.14.34s-.05.25-.14.34Zm-.07-.62c-.08-.08-.17-.11-.28-.11s-.2.04-.28.11c-.08.08-.11.17-.11.28s.04.2.11.28c.08.08.17.12.28.12s.2-.04.28-.11c.08-.08.12-.17.12-.28s-.04-.2-.12-.28Z" style="fill: #9d9a9a;"/>
    <path d="m166.47,122.8s-.03,0-.05-.02c-.01-.01-.02-.03-.02-.05,0-.04.03-.06.08-.07.04,0,.06.02.07.07,0,.05-.02.07-.07.07Zm-.05,1.1v-.93h.09v.93h-.09Z" style="fill: #9d9a9a;"/>
    <path d="m167.28,123.84c-.06.05-.13.08-.22.08-.14,0-.25-.07-.33-.2l.08-.05s.06.08.09.11c.04.03.09.04.15.04.14,0,.21-.06.21-.18,0-.05-.02-.1-.07-.14-.02,0-.04-.02-.07-.03-.03-.01-.06-.02-.1-.04-.08-.03-.13-.05-.16-.08-.05-.04-.07-.09-.07-.17,0-.06.02-.12.07-.16.05-.05.11-.07.18-.07.1,0,.19.04.26.11l-.07.06c-.05-.05-.12-.08-.2-.08-.11,0-.16.05-.16.14,0,.04.02.08.05.1.03.02.07.04.13.06.05.02.09.04.13.05.03.02.06.03.07.04.06.05.1.12.1.2s-.03.15-.09.2Z" style="fill: #9d9a9a;"/>
    <path d="m167.63,122.8s-.03,0-.05-.02c-.01-.01-.02-.03-.02-.05,0-.04.03-.06.07-.07.04,0,.06.02.07.07,0,.05-.03.07-.07.07Zm-.05,1.1v-.93h.09v.93h-.09Z" style="fill: #9d9a9a;"/>
    <path d="m168.43,123.92c-.14,0-.25-.05-.35-.14-.09-.09-.14-.21-.14-.34s.05-.25.14-.34c.09-.09.21-.14.35-.14.12,0,.21.03.28.08v.11l-.06-.04-.06-.03c-.06-.02-.11-.03-.16-.03-.12,0-.21.04-.28.11-.07.07-.11.17-.11.28s.04.21.11.28c.07.07.17.11.28.11.11,0,.2-.04.28-.11v.11c-.08.06-.18.08-.28.08Z" style="fill: #9d9a9a;"/>
    <path d="m168.98,122.8s-.03,0-.05-.02c-.01-.01-.02-.03-.02-.05,0-.04.02-.06.07-.07.04,0,.06.02.07.07,0,.05-.03.07-.07.07Zm-.05,1.1v-.93h.09v.93h-.09Z" style="fill: #9d9a9a;"/>
    <path d="m169.85,123.9v-.56c0-.2-.09-.3-.27-.3-.09,0-.15.03-.2.08-.05.05-.07.12-.07.21v.57h-.09v-.93h.09v.11c.04-.08.13-.12.27-.12.12,0,.21.03.27.1.06.07.09.16.09.28v.57h-.09Z" style="fill: #9d9a9a;"/>
    <path d="m170.99,124.21c-.08.08-.2.13-.33.13-.25,0-.41-.1-.46-.3h.09c.02.07.06.13.14.16.06.03.14.04.22.04.12,0,.21-.03.27-.1.06-.07.1-.16.1-.27v-.14c-.1.12-.22.18-.37.18-.14,0-.25-.05-.34-.14-.09-.09-.14-.21-.14-.34s.05-.25.14-.34c.09-.09.21-.14.34-.14.15,0,.27.06.37.18v-.16h.09v.91c0,.14-.04.25-.13.33Zm-.06-1.05c-.08-.08-.17-.11-.28-.11s-.2.04-.28.11c-.08.08-.11.17-.11.28s.04.2.11.28c.08.08.17.12.28.12s.2-.04.28-.11c.08-.08.12-.17.12-.28s-.04-.2-.12-.28Z" style="fill: #9d9a9a;"/>
    <path d="m171.99,123.42c0,.13.03.23.1.3.07.08.17.11.29.11.06,0,.12-.01.17-.03.07-.03.12-.08.17-.16l.08.04c-.06.11-.15.19-.27.23-.05.01-.1.02-.16.02-.14,0-.26-.05-.35-.14-.09-.09-.14-.21-.14-.34s.05-.25.14-.34c.09-.09.21-.14.35-.14s.25.04.34.13c.09.09.14.2.14.33h-.87Zm.64-.3c-.07-.05-.15-.08-.24-.08-.19,0-.32.1-.38.28h.76c-.01-.09-.06-.16-.13-.21Z" style="fill: #9d9a9a;"/>
    <path d="m173.1,123.9v-1.67h.09v1.67h-.09Z" style="fill: #9d9a9a;"/>
    <path d="m173.45,122.8s-.03,0-.05-.02c-.01-.01-.02-.03-.02-.05,0-.04.02-.06.07-.07.04,0,.06.02.07.07,0,.05-.02.07-.07.07Zm-.05,1.1v-.93h.09v.93h-.09Z" style="fill: #9d9a9a;"/>
    <path d="m173.95,123.06v.84h-.09v-.84h-.13v-.09h.13v-.41h.09v.41h.22v.09h-.22Z" style="fill: #9d9a9a;"/>
    <path d="m174.36,124.14l-.03-.02.17-.37.08.03-.22.35Z" style="fill: #9d9a9a;"/>
    <path d="m152.92,126.11c-.06.05-.13.08-.22.08-.14,0-.25-.07-.32-.2l.08-.05s.06.08.09.11c.04.03.09.04.15.04.14,0,.21-.06.21-.18,0-.05-.02-.1-.07-.14-.02,0-.04-.02-.06-.03-.03-.01-.06-.02-.1-.04-.07-.03-.13-.05-.16-.08-.05-.04-.07-.09-.07-.17,0-.06.02-.12.07-.16.05-.05.11-.07.18-.07.1,0,.19.04.26.11l-.07.06c-.05-.05-.12-.08-.2-.08-.11,0-.16.05-.16.14,0,.04.02.08.05.1.03.02.07.04.13.06.05.02.09.04.13.05.03.02.06.03.07.04.06.05.1.12.1.2s-.03.15-.09.2Z" style="fill: #9d9a9a;"/>
    <path d="m153.23,125.69c0,.13.03.23.1.3.07.08.17.11.29.11.06,0,.12-.01.17-.03.06-.03.12-.08.17-.16l.08.04c-.06.11-.15.19-.27.23-.05.01-.1.02-.16.02-.14,0-.26-.05-.35-.14-.09-.09-.14-.21-.14-.34s.05-.25.14-.34c.09-.09.21-.14.35-.14s.25.04.34.13c.09.09.14.2.14.33h-.87Zm.64-.3c-.07-.05-.15-.08-.24-.08-.19,0-.32.1-.38.28h.76c-.01-.09-.06-.16-.13-.21Z" style="fill: #9d9a9a;"/>
    <path d="m155.12,126.17v-.17c-.1.12-.23.18-.38.18-.13,0-.25-.05-.34-.14-.09-.09-.14-.21-.14-.34s.05-.25.14-.34c.09-.09.21-.14.34-.14.15,0,.28.06.38.18v-.91h.09v1.67h-.09Zm-.1-.74c-.08-.08-.17-.11-.28-.11s-.2.04-.28.11c-.08.08-.11.17-.11.28s.04.2.11.28c.08.08.17.12.28.12s.2-.04.28-.11c.08-.08.12-.17.12-.28s-.04-.2-.12-.28Z" style="fill: #9d9a9a;"/>
    <path d="m156.87,126.17v-.17c-.1.12-.23.18-.38.18-.14,0-.25-.05-.34-.14-.09-.09-.14-.21-.14-.34s.05-.25.14-.34c.09-.09.21-.14.34-.14.15,0,.28.06.38.18v-.91h.09v1.67h-.09Zm-.1-.74c-.08-.08-.17-.11-.28-.11s-.2.04-.28.11c-.08.08-.11.17-.11.28s.04.2.11.28c.08.08.17.12.28.12s.2-.04.28-.11c.08-.08.11-.17.11-.28s-.04-.2-.11-.28Z" style="fill: #9d9a9a;"/>
    <path d="m157.99,126.05c-.09.09-.21.14-.34.14s-.25-.05-.34-.14c-.09-.09-.14-.21-.14-.34s.05-.25.14-.34c.09-.09.2-.14.34-.14s.25.05.34.14c.09.09.14.21.14.34s-.05.25-.14.34Zm-.07-.62c-.08-.08-.17-.12-.28-.12-.11,0-.2.04-.27.12-.08.08-.12.17-.12.28s.04.2.12.28c.08.08.17.12.27.12s.2-.04.28-.11c.08-.08.11-.17.11-.28s-.04-.2-.11-.28Z" style="fill: #9d9a9a;"/>
  </g>
  <rect x="152.48" y="118.83" width="23.18" height=".2" style="fill: #5f5e5e;"/>
  <rect x="152.48" y="138.84" width="23.18" height=".2" style="fill: #5f5e5e;"/>
  <polygon points="175.34 92.98 169.6 88.94 163.86 84.9 158.12 88.94 152.37 92.98 152.39 92.98 152.39 113.48 175.34 113.48 175.34 92.98 175.34 92.98" style="fill: #e44a12;"/>
  <g>
    <path d="m164.23,136.49c-.34.33-.78.49-1.3.49-.44,0-.81-.12-1.12-.36-.3-.24-.5-.58-.6-1.02h.39c.08.29.24.53.5.73.25.19.53.29.83.29.39,0,.72-.13,1-.4.28-.28.42-.61.42-.99,0-.48-.17-.85-.51-1.12-.26-.21-.53-.31-.8-.31h-.37v-.52h.37c.37,0,.67-.1.89-.31.22-.2.33-.49.33-.88s-.12-.66-.35-.89c-.24-.24-.54-.35-.91-.35-.71,0-1.14.37-1.28,1.12h-.42c.05-.46.23-.82.54-1.08.31-.27.69-.4,1.16-.4s.89.15,1.21.44c.32.29.49.68.49,1.17,0,.79-.39,1.27-1.19,1.44.83.25,1.24.81,1.24,1.7,0,.53-.17.95-.51,1.27Z" style="fill: #e44a12;"/>
    <path d="m168.54,136.49c-.34.33-.78.49-1.3.49-.44,0-.81-.12-1.13-.36-.3-.24-.5-.58-.6-1.02h.39c.08.29.24.53.51.73.25.19.53.29.83.29.39,0,.72-.13,1-.4.28-.28.42-.61.42-.99,0-.48-.17-.85-.51-1.12-.26-.21-.53-.31-.8-.31h-.37v-.52h.37c.37,0,.67-.1.89-.31.22-.2.33-.49.33-.88s-.12-.66-.35-.89c-.24-.24-.54-.35-.91-.35-.71,0-1.14.37-1.28,1.12h-.42c.05-.46.23-.82.54-1.08.31-.27.69-.4,1.16-.4s.89.15,1.21.44c.32.29.49.68.49,1.17,0,.79-.39,1.27-1.19,1.44.83.25,1.24.81,1.24,1.7,0,.53-.17.95-.51,1.27Z" style="fill: #e44a12;"/>
    <path d="m170.14,136.98c-.06,0-.13-.03-.2-.08-.05-.05-.08-.12-.09-.21,0-.16.1-.26.29-.29.15,0,.24.1.29.29,0,.19-.1.29-.29.29Z" style="fill: #e44a12;"/>
    <path d="m174.72,135.73v1.2h-.37v-1.2h-3.25l3.62-5.21v4.85h.73v.35h-.73Zm-.37-4.08l-2.6,3.73h2.6v-3.73Z" style="fill: #e44a12;"/>
  </g>
</svg>