<?xml version="1.0" encoding="UTF-8"?>
<svg id="_1E" data-name="1E" xmlns="http://www.w3.org/2000/svg" width="305.04" height="259.57" viewBox="0 0 305.04 259.57">
  <g>
    <path d="m182.32,121.5v-1.61h.09v1.52h.45v.09h-.54Z" style="fill: #9d9a9a;"/>
    <path d="m183.76,121.37c-.09.09-.21.14-.34.14s-.25-.05-.34-.14c-.09-.09-.14-.21-.14-.34s.05-.25.14-.34c.09-.1.21-.14.34-.14s.25.05.34.14c.09.09.14.21.14.34s-.05.25-.14.34Zm-.07-.62c-.08-.08-.17-.12-.28-.12s-.2.04-.27.12c-.08.08-.12.17-.12.28s.04.2.12.28c.08.08.17.12.27.12s.2-.04.28-.11c.08-.08.12-.17.12-.28s-.04-.2-.11-.28Z" style="fill: #9d9a9a;"/>
    <path d="m184.57,120.7s-.05-.03-.08-.04c-.03-.01-.06-.02-.09-.02-.03,0-.05,0-.07.02-.02.02-.04.04-.06.06-.02.02-.03.05-.04.08,0,.03-.01.05-.01.08v.61h-.09v-.93h.09v.13s.05-.07.08-.1c.03-.03.07-.04.1-.04.05,0,.09,0,.12.02.03.01.06.03.1.06l-.05.08Z" style="fill: #9d9a9a;"/>
    <path d="m184.72,121.01c0,.13.03.23.1.3.07.08.17.11.29.11.06,0,.12-.01.17-.03.07-.03.12-.08.17-.16l.08.04c-.06.11-.15.19-.27.23-.05.01-.1.02-.16.02-.14,0-.25-.05-.35-.14-.09-.09-.14-.21-.14-.34s.05-.26.14-.35c.09-.09.21-.14.35-.14s.25.04.34.13c.09.09.14.2.14.33h-.87Zm.64-.3c-.07-.05-.15-.08-.24-.08-.19,0-.32.1-.38.28h.76c-.01-.09-.06-.16-.13-.21Z" style="fill: #9d9a9a;"/>
    <path d="m186.86,121.5v-.64c0-.06-.02-.11-.06-.15-.04-.04-.09-.06-.16-.06-.15,0-.22.07-.22.21v.64h-.09v-.64c0-.06-.02-.11-.06-.15-.04-.04-.1-.06-.16-.06s-.11.02-.16.06c-.04.04-.06.09-.06.15v.64h-.09v-.93h.09v.09c.05-.07.12-.11.22-.11.12,0,.21.05.27.15.05-.1.14-.15.26-.15.09,0,.17.03.23.08.06.05.09.13.09.22v.64h-.09Z" style="fill: #9d9a9a;"/>
    <path d="m187.89,120.4s-.03,0-.05-.02c-.01-.01-.02-.03-.02-.05,0-.04.03-.07.07-.07.04,0,.06.03.07.07,0,.05-.02.07-.07.07Zm-.05,1.1v-.93h.09v.93h-.09Z" style="fill: #9d9a9a;"/>
    <path d="m188.95,121.37c-.09.09-.21.14-.34.14-.15,0-.28-.06-.38-.19v.61h-.09v-1.37h.09v.18c.1-.13.22-.19.38-.19.14,0,.25.05.34.14.09.09.14.21.14.34s-.05.25-.14.34Zm-.07-.62c-.08-.08-.17-.11-.27-.11s-.2.04-.28.11c-.08.08-.12.17-.12.28s.04.2.12.28c.08.08.17.12.28.12s.2-.04.27-.11c.08-.08.12-.17.12-.28s-.04-.2-.12-.28Z" style="fill: #9d9a9a;"/>
    <path d="m189.76,121.44c-.06.05-.13.08-.22.08-.14,0-.25-.06-.32-.2l.08-.05s.06.08.09.11c.04.03.09.04.15.04.14,0,.21-.06.21-.18,0-.05-.02-.1-.07-.14-.02,0-.04-.02-.06-.03-.03-.01-.06-.02-.1-.04-.07-.03-.13-.05-.16-.08-.05-.04-.07-.09-.07-.17,0-.06.02-.12.07-.16.05-.05.11-.07.18-.07.1,0,.19.04.26.11l-.07.06c-.05-.05-.12-.08-.2-.08-.11,0-.16.05-.16.14,0,.04.02.08.05.1.03.02.07.04.13.06.05.02.09.04.13.05.03.02.06.03.07.04.07.05.1.12.1.2s-.03.15-.09.2Z" style="fill: #9d9a9a;"/>
    <path d="m190.64,121.41c-.06.07-.15.1-.26.1s-.2-.03-.26-.1c-.06-.06-.09-.16-.09-.27v-.58h.09v.58c0,.09.02.16.06.2.04.05.1.07.19.07.17,0,.26-.09.26-.28v-.58h.09v.58c0,.11-.03.2-.09.27Z" style="fill: #9d9a9a;"/>
    <path d="m192.07,121.5v-.64c0-.06-.02-.11-.06-.15-.04-.04-.09-.06-.16-.06-.15,0-.22.07-.22.21v.64h-.09v-.64c0-.06-.02-.11-.06-.15-.04-.04-.09-.06-.16-.06s-.11.02-.16.06c-.04.04-.06.09-.06.15v.64h-.09v-.93h.09v.09c.05-.07.12-.11.22-.11.12,0,.21.05.27.15.05-.1.14-.15.26-.15.09,0,.17.03.23.08.06.05.09.13.09.22v.64h-.09Z" style="fill: #9d9a9a;"/>
    <path d="m193.85,121.5v-.17c-.1.12-.23.18-.38.18-.14,0-.25-.05-.34-.14-.09-.09-.14-.21-.14-.34s.05-.25.14-.34c.09-.09.21-.14.34-.14.15,0,.28.06.38.18v-.91h.09v1.67h-.09Zm-.1-.74c-.08-.08-.17-.11-.28-.11s-.2.04-.28.11c-.08.08-.12.17-.12.28s.04.2.12.28c.08.08.17.12.28.12s.2-.04.28-.11c.08-.08.11-.17.11-.28s-.04-.2-.11-.28Z" style="fill: #9d9a9a;"/>
    <path d="m194.97,121.37c-.09.09-.21.14-.34.14s-.25-.05-.34-.14c-.09-.09-.14-.21-.14-.34s.05-.25.14-.34c.09-.1.21-.14.34-.14s.25.05.34.14c.09.09.14.21.14.34s-.05.25-.14.34Zm-.07-.62c-.07-.08-.17-.12-.28-.12s-.2.04-.27.12c-.08.08-.12.17-.12.28s.04.2.11.28c.08.08.17.12.28.12s.2-.04.28-.11c.08-.08.12-.17.12-.28s-.04-.2-.11-.28Z" style="fill: #9d9a9a;"/>
    <path d="m195.36,121.5v-1.67h.09v1.67h-.09Z" style="fill: #9d9a9a;"/>
    <path d="m196.52,121.37c-.09.09-.21.14-.34.14s-.25-.05-.34-.14c-.09-.09-.14-.21-.14-.34s.05-.25.14-.34c.09-.1.21-.14.34-.14s.25.05.34.14c.09.09.14.21.14.34s-.05.25-.14.34Zm-.07-.62c-.07-.08-.17-.12-.28-.12s-.2.04-.27.12c-.08.08-.12.17-.12.28s.04.2.12.28c.08.08.17.12.28.12s.2-.04.28-.11c.08-.08.11-.17.11-.28s-.04-.2-.11-.28Z" style="fill: #9d9a9a;"/>
    <path d="m197.33,120.7s-.05-.03-.08-.04c-.03-.01-.06-.02-.09-.02-.02,0-.05,0-.07.02-.02.02-.04.04-.06.06-.02.02-.03.05-.04.08-.01.03-.01.05-.01.08v.61h-.09v-.93h.09v.13s.05-.07.08-.1c.03-.03.07-.04.1-.04.05,0,.08,0,.11.02.03.01.07.03.1.06l-.05.08Z" style="fill: #9d9a9a;"/>
    <path d="m198.63,121.44c-.06.05-.13.08-.22.08-.15,0-.25-.06-.33-.2l.08-.05s.06.08.09.11c.04.03.09.04.15.04.14,0,.21-.06.21-.18,0-.05-.03-.1-.07-.14-.01,0-.04-.02-.06-.03-.03-.01-.06-.02-.1-.04-.08-.03-.13-.05-.16-.08-.05-.04-.07-.09-.07-.17,0-.06.02-.12.07-.16.05-.05.11-.07.18-.07.1,0,.19.04.27.11l-.07.06c-.05-.05-.12-.08-.2-.08-.11,0-.16.05-.16.14,0,.04.02.08.05.1.03.02.07.04.13.06.05.02.09.04.13.05.03.02.06.03.07.04.07.05.1.12.1.2s-.03.15-.09.2Z" style="fill: #9d9a9a;"/>
    <path d="m198.98,120.4s-.03,0-.05-.02c-.01-.01-.02-.03-.02-.05,0-.04.03-.07.07-.07.04,0,.06.03.07.07,0,.05-.02.07-.07.07Zm-.05,1.1v-.93h.09v.93h-.09Z" style="fill: #9d9a9a;"/>
    <path d="m199.47,120.66v.84h-.09v-.84h-.13v-.09h.13v-.41h.09v.41h.22v.09h-.22Z" style="fill: #9d9a9a;"/>
    <path d="m201.25,121.5v-.16c-.1.12-.22.18-.37.18-.14,0-.25-.05-.34-.14-.09-.09-.14-.21-.14-.34s.05-.25.14-.34c.09-.09.21-.14.34-.14.15,0,.27.06.37.18v-.16h.09v.93h-.09Zm-.1-.74c-.08-.08-.17-.11-.28-.11s-.2.04-.27.11c-.08.08-.12.17-.12.28s.04.2.12.28c.08.08.17.12.27.12s.2-.04.28-.11c.08-.08.11-.17.11-.28s-.04-.2-.11-.28Z" style="fill: #9d9a9a;"/>
    <path d="m202.68,121.5v-.64c0-.06-.02-.11-.06-.15-.04-.04-.09-.06-.16-.06-.15,0-.22.07-.22.21v.64h-.09v-.64c0-.06-.02-.11-.06-.15-.04-.04-.09-.06-.16-.06s-.11.02-.15.06c-.04.04-.06.09-.06.15v.64h-.09v-.93h.09v.09c.05-.07.12-.11.22-.11.12,0,.21.05.27.15.05-.1.14-.15.26-.15.09,0,.17.03.23.08.06.05.09.13.09.22v.64h-.09Z" style="fill: #9d9a9a;"/>
    <path d="m203.09,121.01c0,.13.03.23.1.3.07.08.17.11.29.11.06,0,.12-.01.17-.03.06-.03.12-.08.17-.16l.08.04c-.06.11-.15.19-.27.23-.05.01-.1.02-.16.02-.14,0-.26-.05-.35-.14-.09-.09-.14-.21-.14-.34s.05-.26.14-.35c.09-.09.21-.14.35-.14s.25.04.34.13c.09.09.14.2.14.33h-.87Zm.64-.3c-.07-.05-.15-.08-.24-.08-.19,0-.32.1-.38.28h.76c-.02-.09-.06-.16-.13-.21Z" style="fill: #9d9a9a;"/>
    <path d="m204.21,120.66v.84h-.09v-.84h-.13v-.09h.13v-.41h.09v.41h.22v.09h-.22Z" style="fill: #9d9a9a;"/>
    <path d="m204.62,121.73l-.03-.02.17-.37.08.03-.22.35Z" style="fill: #9d9a9a;"/>
    <path d="m182.46,123.92c-.14,0-.25-.05-.35-.14-.09-.09-.14-.21-.14-.34s.05-.25.14-.34c.09-.09.21-.14.35-.14.12,0,.21.03.28.08v.11l-.06-.04-.06-.03c-.06-.02-.11-.03-.16-.03-.12,0-.21.04-.28.11s-.11.17-.11.28.04.21.11.28c.07.07.17.11.28.11.11,0,.2-.04.28-.11v.11c-.08.06-.18.08-.28.08Z" style="fill: #9d9a9a;"/>
    <path d="m183.62,123.78c-.09.09-.21.14-.34.14s-.25-.05-.34-.14c-.09-.09-.14-.21-.14-.34s.05-.25.14-.34c.09-.09.2-.14.34-.14s.25.05.34.14c.09.09.14.21.14.34s-.05.25-.14.34Zm-.07-.62c-.07-.08-.17-.12-.28-.12s-.2.04-.27.12c-.08.08-.12.17-.12.28s.04.2.12.28c.08.08.17.12.27.12s.2-.04.28-.11c.08-.08.12-.17.12-.28s-.04-.2-.11-.28Z" style="fill: #9d9a9a;"/>
    <path d="m184.62,123.9v-.56c0-.2-.09-.3-.27-.3-.09,0-.15.03-.2.08-.05.05-.07.12-.07.21v.57h-.09v-.93h.09v.11c.04-.08.13-.12.27-.12.12,0,.21.03.27.1.06.07.09.16.09.28v.57h-.09Z" style="fill: #9d9a9a;"/>
    <path d="m185.46,123.84c-.06.05-.13.08-.22.08-.14,0-.25-.07-.33-.2l.08-.05s.06.08.09.11c.04.03.09.04.15.04.14,0,.21-.06.21-.18,0-.05-.02-.1-.07-.14-.01,0-.04-.02-.06-.03-.03-.01-.06-.02-.1-.04-.07-.03-.13-.05-.16-.08-.05-.04-.07-.09-.07-.17,0-.06.02-.12.07-.16.05-.05.11-.07.18-.07.1,0,.19.04.27.11l-.07.06c-.05-.05-.12-.08-.2-.08-.11,0-.16.05-.16.14,0,.04.02.08.05.1.03.02.07.04.13.06.05.02.09.04.13.05.03.02.06.03.07.04.06.05.1.12.1.2s-.03.15-.09.2Z" style="fill: #9d9a9a;"/>
    <path d="m185.77,123.42c0,.13.03.23.1.3.07.08.17.11.29.11.06,0,.12-.01.17-.03.06-.03.12-.08.17-.16l.08.04c-.06.11-.15.19-.27.23-.05.01-.1.02-.16.02-.14,0-.25-.05-.35-.14-.09-.09-.14-.21-.14-.34s.05-.25.14-.34c.09-.09.21-.14.35-.14s.25.04.34.13c.09.09.14.2.14.33h-.87Zm.64-.3c-.07-.05-.15-.08-.24-.08-.19,0-.32.1-.38.28h.76c-.01-.09-.06-.16-.13-.21Z" style="fill: #9d9a9a;"/>
    <path d="m187.3,123.92c-.14,0-.25-.05-.34-.14-.09-.09-.14-.21-.14-.34s.05-.25.14-.34c.09-.09.21-.14.34-.14.12,0,.21.03.28.08v.11l-.06-.04-.06-.03c-.06-.02-.11-.03-.16-.03-.12,0-.21.04-.28.11-.07.07-.11.17-.11.28s.04.21.11.28c.07.07.17.11.28.11s.2-.04.28-.11v.11c-.08.06-.18.08-.28.08Z" style="fill: #9d9a9a;"/>
    <path d="m187.99,123.06v.84h-.09v-.84h-.13v-.09h.13v-.41h.09v.41h.22v.09h-.22Z" style="fill: #9d9a9a;"/>
    <path d="m188.43,123.42c0,.13.03.23.1.3.07.08.17.11.29.11.06,0,.12-.01.17-.03.07-.03.12-.08.17-.16l.08.04c-.06.11-.15.19-.27.23-.05.01-.1.02-.16.02-.14,0-.26-.05-.35-.14-.09-.09-.14-.21-.14-.34s.05-.25.14-.34c.09-.09.21-.14.35-.14s.25.04.34.13c.09.09.14.2.14.33h-.87Zm.64-.3c-.07-.05-.15-.08-.24-.08-.19,0-.32.1-.38.28h.76c-.02-.09-.06-.16-.13-.21Z" style="fill: #9d9a9a;"/>
    <path d="m189.55,123.06v.84h-.09v-.84h-.13v-.09h.13v-.41h.09v.41h.22v.09h-.22Z" style="fill: #9d9a9a;"/>
    <path d="m190.57,123.82c-.06.07-.15.1-.26.1s-.19-.03-.25-.1c-.06-.06-.09-.16-.09-.27v-.58h.09v.58c0,.09.02.16.06.2.04.05.1.07.19.07.17,0,.26-.09.26-.28v-.58h.09v.58c0,.11-.03.2-.09.27Z" style="fill: #9d9a9a;"/>
    <path d="m191.38,123.11s-.05-.03-.08-.04c-.03-.01-.06-.02-.09-.02-.03,0-.05,0-.07.02-.02.02-.04.04-.06.06-.02.02-.03.05-.04.08,0,.03-.01.05-.01.08v.61h-.09v-.93h.09v.13s.05-.07.08-.09c.03-.03.07-.04.1-.04.05,0,.08,0,.11.02.03.01.06.03.1.06l-.05.08Z" style="fill: #9d9a9a;"/>
    <path d="m193,123.9v-.16c-.1.12-.22.18-.37.18-.14,0-.25-.05-.34-.14-.09-.09-.14-.21-.14-.34s.05-.25.14-.34c.09-.09.21-.14.34-.14.15,0,.27.06.37.18v-.16h.09v.93h-.09Zm-.1-.74c-.08-.08-.17-.11-.28-.11s-.2.04-.27.11c-.08.08-.12.17-.12.28s.04.2.12.28c.08.08.17.12.27.12s.2-.04.28-.11c.08-.08.12-.17.12-.28s-.04-.2-.12-.28Z" style="fill: #9d9a9a;"/>
    <path d="m194.17,123.9v-.17c-.1.12-.23.18-.38.18-.13,0-.25-.05-.34-.14-.09-.09-.14-.21-.14-.34s.05-.25.14-.34c.09-.09.21-.14.34-.14.15,0,.28.06.38.18v-.91h.09v1.67h-.09Zm-.1-.74c-.08-.08-.17-.11-.28-.11s-.2.04-.28.11c-.08.08-.11.17-.11.28s.04.2.11.28c.08.08.17.12.28.12s.2-.04.28-.11c.08-.08.12-.17.12-.28s-.04-.2-.12-.28Z" style="fill: #9d9a9a;"/>
    <path d="m194.6,122.8s-.03,0-.05-.02c-.01-.01-.02-.03-.02-.05,0-.04.02-.06.07-.07.04,0,.06.02.07.07,0,.05-.02.07-.07.07Zm-.05,1.1v-.93h.09v.93h-.09Z" style="fill: #9d9a9a;"/>
    <path d="m195.67,123.78c-.09.09-.21.14-.34.14-.15,0-.28-.06-.38-.19v.61h-.09v-1.37h.09v.18c.1-.13.22-.19.38-.19.14,0,.25.05.34.14.09.09.14.21.14.34s-.05.25-.14.34Zm-.07-.62c-.08-.08-.17-.11-.27-.11s-.2.04-.28.11c-.08.08-.12.17-.12.28s.04.2.12.28c.08.08.17.12.28.12s.2-.04.27-.11c.08-.08.12-.17.12-.28s-.04-.2-.12-.28Z" style="fill: #9d9a9a;"/>
    <path d="m196.07,122.8s-.03,0-.05-.02c-.01-.01-.02-.03-.02-.05,0-.04.02-.06.07-.07.04,0,.06.02.07.07,0,.05-.02.07-.07.07Zm-.05,1.1v-.93h.09v.93h-.09Z" style="fill: #9d9a9a;"/>
    <path d="m196.88,123.84c-.06.05-.13.08-.22.08-.15,0-.25-.07-.32-.2l.08-.05s.06.08.09.11c.04.03.09.04.15.04.14,0,.21-.06.21-.18,0-.05-.02-.1-.07-.14-.02,0-.04-.02-.06-.03-.03-.01-.06-.02-.1-.04-.08-.03-.13-.05-.16-.08-.05-.04-.07-.09-.07-.17,0-.06.02-.12.07-.16.05-.05.11-.07.18-.07.1,0,.19.04.26.11l-.07.06c-.05-.05-.12-.08-.2-.08-.11,0-.16.05-.16.14,0,.04.02.08.05.1.03.02.07.04.13.06.05.02.09.04.13.05.03.02.06.03.07.04.06.05.1.12.1.2s-.03.15-.09.2Z" style="fill: #9d9a9a;"/>
    <path d="m197.23,122.8s-.03,0-.05-.02c-.01-.01-.02-.03-.02-.05,0-.04.02-.06.07-.07.04,0,.06.02.07.07,0,.05-.02.07-.07.07Zm-.05,1.1v-.93h.09v.93h-.09Z" style="fill: #9d9a9a;"/>
    <path d="m198.03,123.92c-.14,0-.25-.05-.35-.14-.09-.09-.14-.21-.14-.34s.05-.25.14-.34c.09-.09.21-.14.35-.14.12,0,.21.03.28.08v.11l-.06-.04-.06-.03c-.06-.02-.11-.03-.16-.03-.12,0-.21.04-.28.11-.07.07-.11.17-.11.28s.04.21.11.28c.07.07.17.11.28.11.11,0,.2-.04.28-.11v.11c-.08.06-.18.08-.28.08Z" style="fill: #9d9a9a;"/>
    <path d="m198.58,122.8s-.03,0-.05-.02c-.01-.01-.02-.03-.02-.05,0-.04.03-.06.07-.07.04,0,.06.02.07.07,0,.05-.03.07-.07.07Zm-.05,1.1v-.93h.09v.93h-.09Z" style="fill: #9d9a9a;"/>
    <path d="m199.45,123.9v-.56c0-.2-.09-.3-.27-.3-.09,0-.15.03-.2.08-.05.05-.07.12-.07.21v.57h-.09v-.93h.09v.11c.04-.08.13-.12.27-.12.12,0,.21.03.27.1.06.07.09.16.09.28v.57h-.09Z" style="fill: #9d9a9a;"/>
    <path d="m200.59,124.21c-.08.08-.19.13-.33.13-.25,0-.41-.1-.46-.3h.09c.02.07.06.13.14.16.06.03.14.04.22.04.11,0,.2-.03.27-.1.07-.07.1-.16.1-.27v-.14c-.1.12-.22.18-.37.18-.14,0-.25-.05-.34-.14-.09-.09-.14-.21-.14-.34s.05-.25.14-.34c.09-.09.21-.14.34-.14.15,0,.27.06.37.18v-.16h.09v.91c0,.14-.04.25-.13.33Zm-.06-1.05c-.08-.08-.17-.11-.27-.11s-.2.04-.28.11c-.08.08-.12.17-.12.28s.04.2.12.28c.08.08.17.12.28.12s.2-.04.27-.11c.08-.08.12-.17.12-.28s-.04-.2-.12-.28Z" style="fill: #9d9a9a;"/>
    <path d="m201.59,123.42c0,.13.04.23.1.3.07.08.17.11.29.11.06,0,.12-.01.17-.03.06-.03.12-.08.17-.16l.08.04c-.06.11-.15.19-.27.23-.05.01-.1.02-.16.02-.14,0-.25-.05-.34-.14-.09-.09-.14-.21-.14-.34s.05-.25.14-.34c.09-.09.21-.14.35-.14s.25.04.34.13c.09.09.14.2.14.33h-.87Zm.64-.3c-.07-.05-.15-.08-.24-.08-.19,0-.32.1-.38.28h.76c-.02-.09-.06-.16-.13-.21Z" style="fill: #9d9a9a;"/>
    <path d="m202.7,123.9v-1.67h.09v1.67h-.09Z" style="fill: #9d9a9a;"/>
    <path d="m203.06,122.8s-.03,0-.05-.02c-.01-.01-.02-.03-.02-.05,0-.04.03-.06.07-.07.04,0,.06.02.07.07,0,.05-.03.07-.07.07Zm-.05,1.1v-.93h.09v.93h-.09Z" style="fill: #9d9a9a;"/>
    <path d="m203.55,123.06v.84h-.09v-.84h-.13v-.09h.13v-.41h.09v.41h.22v.09h-.22Z" style="fill: #9d9a9a;"/>
    <path d="m203.96,124.14l-.03-.02.17-.37.08.03-.22.35Z" style="fill: #9d9a9a;"/>
    <path d="m182.52,126.11c-.06.05-.13.08-.22.08-.14,0-.25-.07-.33-.2l.08-.05s.06.08.09.11c.04.03.09.04.15.04.14,0,.21-.06.21-.18,0-.05-.02-.1-.07-.14-.01,0-.04-.02-.06-.03-.03-.01-.06-.02-.1-.04-.08-.03-.13-.05-.16-.08-.05-.04-.07-.09-.07-.17,0-.06.02-.12.07-.16.05-.05.11-.07.18-.07.1,0,.19.04.27.11l-.07.06c-.05-.05-.12-.08-.2-.08-.11,0-.16.05-.16.14,0,.04.02.08.05.1.03.02.07.04.13.06.05.02.09.04.13.05.03.02.06.03.07.04.07.05.1.12.1.2s-.03.15-.09.2Z" style="fill: #9d9a9a;"/>
    <path d="m182.83,125.69c0,.13.03.23.1.3.07.08.17.11.29.11.06,0,.12-.01.17-.03.06-.03.12-.08.17-.16l.08.04c-.06.11-.15.19-.27.23-.05.01-.1.02-.16.02-.14,0-.26-.05-.35-.14-.09-.09-.14-.21-.14-.34s.05-.25.14-.34c.09-.09.21-.14.35-.14s.25.04.34.13c.09.09.14.2.14.33h-.87Zm.64-.3c-.07-.05-.15-.08-.24-.08-.19,0-.32.1-.38.28h.76c-.01-.09-.06-.16-.13-.21Z" style="fill: #9d9a9a;"/>
    <path d="m184.72,126.17v-.17c-.1.12-.23.18-.38.18-.14,0-.25-.05-.34-.14-.09-.09-.14-.21-.14-.34s.05-.25.14-.34c.09-.09.21-.14.34-.14.15,0,.28.06.38.18v-.91h.09v1.67h-.09Zm-.1-.74c-.08-.08-.17-.11-.28-.11s-.2.04-.28.11c-.08.08-.12.17-.12.28s.04.2.12.28c.08.08.17.12.28.12s.2-.04.28-.11c.08-.08.12-.17.12-.28s-.04-.2-.12-.28Z" style="fill: #9d9a9a;"/>
    <path d="m186.47,126.17v-.17c-.1.12-.23.18-.38.18-.13,0-.25-.05-.34-.14-.09-.09-.14-.21-.14-.34s.05-.25.14-.34c.09-.09.21-.14.34-.14.15,0,.28.06.38.18v-.91h.09v1.67h-.09Zm-.1-.74c-.08-.08-.17-.11-.28-.11s-.2.04-.27.11c-.08.08-.12.17-.12.28s.04.2.12.28c.08.08.17.12.27.12s.2-.04.28-.11c.08-.08.12-.17.12-.28s-.04-.2-.12-.28Z" style="fill: #9d9a9a;"/>
    <path d="m187.59,126.05c-.09.09-.21.14-.34.14s-.25-.05-.34-.14c-.09-.09-.14-.21-.14-.34s.05-.25.14-.34c.09-.09.2-.14.34-.14s.25.05.34.14c.09.09.14.21.14.34s-.05.25-.14.34Zm-.07-.62c-.07-.08-.17-.12-.28-.12-.1,0-.2.04-.27.12-.08.08-.12.17-.12.28s.04.2.12.28c.08.08.17.12.27.12s.2-.04.28-.11c.08-.08.11-.17.11-.28s-.04-.2-.11-.28Z" style="fill: #9d9a9a;"/>
  </g>
  <rect x="182.21" y="118.83" width="23.18" height=".2" style="fill: #5f5e5e;"/>
  <rect x="182.21" y="138.84" width="23.18" height=".2" style="fill: #5f5e5e;"/>
  <g>
    <path d="m194.14,135.68v1.18h-.36v-1.18h-3.17l3.54-5.09v4.74h.72v.35h-.72Zm-.36-3.99l-2.54,3.64h2.54v-3.64Z" style="fill: #868686;"/>
    <path d="m198.93,133.14c-.01.13-.04.26-.07.39-.03.12-.06.23-.11.33-.04.11-.09.21-.15.32l-1.54,2.76-.33-.16,1.23-2.22-.36.18-.37.1-.39.03c-.61,0-1.12-.2-1.52-.6-.4-.4-.61-.91-.61-1.52s.2-1.12.61-1.52c.4-.4.91-.61,1.52-.61s1.12.2,1.51.61c.4.4.61.91.61,1.52,0,.12,0,.25-.02.38Zm-.83-1.65c-.34-.34-.76-.51-1.27-.51s-.93.17-1.27.51c-.34.34-.51.76-.51,1.27s.17.9.51,1.25c.33.35.76.52,1.27.52s.92-.17,1.26-.51c.34-.34.51-.76.51-1.26s-.17-.94-.5-1.27Z" style="fill: #868686;"/>
    <path d="m201.37,132.66c-.22.21-.48.31-.77.31s-.53-.11-.74-.32c-.22-.22-.33-.47-.33-.74s.1-.54.31-.76c.21-.21.47-.32.76-.32s.55.11.76.32c.21.21.32.47.32.76s-.1.56-.31.75Zm-1.33,4.2h-.35l3.36-6.18h.35l-3.36,6.18Zm1.07-5.46c-.14-.14-.31-.22-.51-.22s-.36.07-.5.22c-.14.14-.22.31-.22.51s.07.36.22.49c.14.14.31.22.5.22.17,0,.34-.07.51-.21.14-.14.22-.31.22-.5s-.07-.37-.22-.51Zm1.99,5.22c-.22.21-.48.31-.77.31s-.53-.11-.74-.32c-.22-.22-.33-.47-.33-.74s.1-.54.31-.76c.21-.21.47-.32.76-.32s.55.11.76.32c.21.21.32.47.32.76s-.1.56-.31.75Zm-.26-1.26c-.14-.14-.31-.22-.51-.22s-.36.07-.5.22c-.14.14-.22.31-.22.51s.07.35.22.49c.14.14.31.22.5.22s.35-.07.5-.21c.15-.15.22-.32.22-.5,0-.2-.07-.37-.22-.51Z" style="fill: #868686;"/>
  </g>
  <polygon points="204.97 77.8 199.23 73.76 193.49 69.72 187.75 73.76 182 77.8 182.01 77.8 182.01 113.48 204.97 113.48 204.97 77.8 204.97 77.8" style="fill: #868686;"/>
</svg>