<?xml version="1.0" encoding="UTF-8"?>
<svg id="_1F" data-name="1F" xmlns="http://www.w3.org/2000/svg" width="305.04" height="259.57" viewBox="0 0 305.04 259.57">
  <g>
    <path d="m211.92,121.5v-1.61h.09v1.52h.45v.09h-.54Z" style="fill: #9d9a9a;"/>
    <path d="m213.36,121.37c-.09.09-.21.14-.34.14s-.25-.05-.34-.14c-.09-.09-.14-.21-.14-.34s.05-.25.14-.34c.09-.1.2-.14.34-.14s.25.05.34.14c.09.09.14.21.14.34s-.05.25-.14.34Zm-.07-.62c-.08-.08-.17-.12-.28-.12-.11,0-.19.04-.27.12-.08.08-.12.17-.12.28s.04.2.12.28c.08.08.17.12.27.12s.2-.04.28-.11c.08-.08.11-.17.11-.28s-.04-.2-.11-.28Z" style="fill: #9d9a9a;"/>
    <path d="m214.17,120.7s-.05-.03-.08-.04c-.03-.01-.06-.02-.09-.02-.03,0-.05,0-.07.02-.02.02-.04.04-.06.06-.02.02-.03.05-.04.08-.01.03-.01.05-.01.08v.61h-.09v-.93h.09v.13s.05-.07.08-.1c.03-.03.07-.04.1-.04.05,0,.08,0,.11.02.03.01.06.03.1.06l-.05.08Z" style="fill: #9d9a9a;"/>
    <path d="m214.32,121.01c0,.13.03.23.1.3.07.08.17.11.29.11.06,0,.12-.01.17-.03.07-.03.12-.08.17-.16l.08.04c-.06.11-.15.19-.27.23-.05.01-.1.02-.16.02-.14,0-.26-.05-.35-.14-.09-.09-.14-.21-.14-.34s.05-.26.14-.35c.09-.09.21-.14.35-.14s.25.04.34.13c.09.09.14.2.14.33h-.87Zm.64-.3c-.07-.05-.15-.08-.24-.08-.19,0-.32.1-.38.28h.76c-.01-.09-.06-.16-.13-.21Z" style="fill: #9d9a9a;"/>
    <path d="m216.47,121.5v-.64c0-.06-.02-.11-.06-.15-.04-.04-.09-.06-.16-.06-.15,0-.22.07-.22.21v.64h-.09v-.64c0-.06-.02-.11-.06-.15-.04-.04-.09-.06-.16-.06s-.11.02-.16.06c-.04.04-.06.09-.06.15v.64h-.09v-.93h.09v.09c.05-.07.12-.11.22-.11.12,0,.21.05.27.15.05-.1.14-.15.26-.15.09,0,.17.03.23.08.06.05.09.13.09.22v.64h-.09Z" style="fill: #9d9a9a;"/>
    <path d="m217.49,120.4s-.03,0-.05-.02c-.01-.01-.02-.03-.02-.05,0-.04.03-.07.07-.07.04,0,.06.03.07.07,0,.05-.02.07-.07.07Zm-.05,1.1v-.93h.09v.93h-.09Z" style="fill: #9d9a9a;"/>
    <path d="m218.56,121.37c-.09.09-.21.14-.34.14-.15,0-.28-.06-.38-.19v.61h-.09v-1.37h.09v.18c.1-.13.22-.19.38-.19.14,0,.25.05.34.14.09.09.14.21.14.34s-.05.25-.14.34Zm-.07-.62c-.08-.08-.17-.11-.27-.11s-.2.04-.28.11c-.08.08-.11.17-.11.28s.04.2.11.28c.08.08.17.12.28.12s.2-.04.27-.11c.08-.08.12-.17.12-.28s-.04-.2-.12-.28Z" style="fill: #9d9a9a;"/>
    <path d="m219.36,121.44c-.06.05-.13.08-.22.08-.14,0-.25-.06-.32-.2l.08-.05s.06.08.09.11c.04.03.09.04.15.04.14,0,.21-.06.21-.18,0-.05-.02-.1-.07-.14-.02,0-.04-.02-.06-.03-.03-.01-.06-.02-.1-.04-.07-.03-.13-.05-.16-.08-.05-.04-.07-.09-.07-.17,0-.06.02-.12.07-.16.05-.05.11-.07.18-.07.1,0,.19.04.26.11l-.07.06c-.05-.05-.12-.08-.2-.08-.11,0-.16.05-.16.14,0,.04.02.08.05.1.03.02.07.04.13.06.05.02.09.04.13.05.03.02.06.03.07.04.07.05.1.12.1.2s-.03.15-.09.2Z" style="fill: #9d9a9a;"/>
    <path d="m220.24,121.41c-.06.07-.15.1-.26.1s-.2-.03-.26-.1c-.06-.06-.09-.16-.09-.27v-.58h.09v.58c0,.09.02.16.06.2.04.05.11.07.19.07.17,0,.26-.09.26-.28v-.58h.09v.58c0,.11-.03.2-.09.27Z" style="fill: #9d9a9a;"/>
    <path d="m221.67,121.5v-.64c0-.06-.02-.11-.06-.15-.04-.04-.09-.06-.16-.06-.15,0-.22.07-.22.21v.64h-.09v-.64c0-.06-.02-.11-.06-.15-.04-.04-.1-.06-.16-.06s-.11.02-.16.06c-.04.04-.06.09-.06.15v.64h-.09v-.93h.09v.09c.05-.07.12-.11.22-.11.12,0,.21.05.27.15.05-.1.14-.15.26-.15.09,0,.17.03.23.08.06.05.08.13.08.22v.64h-.09Z" style="fill: #9d9a9a;"/>
    <path d="m223.45,121.5v-.17c-.1.12-.23.18-.38.18-.14,0-.25-.05-.34-.14-.09-.09-.14-.21-.14-.34s.05-.25.14-.34c.09-.09.21-.14.34-.14.15,0,.28.06.38.18v-.91h.09v1.67h-.09Zm-.1-.74c-.08-.08-.17-.11-.28-.11s-.2.04-.28.11c-.08.08-.12.17-.12.28s.04.2.12.28c.08.08.17.12.28.12s.2-.04.28-.11c.08-.08.11-.17.11-.28s-.04-.2-.11-.28Z" style="fill: #9d9a9a;"/>
    <path d="m224.57,121.37c-.09.09-.21.14-.34.14s-.25-.05-.34-.14c-.09-.09-.14-.21-.14-.34s.05-.25.14-.34c.09-.1.21-.14.34-.14s.25.05.34.14c.09.09.14.21.14.34s-.05.25-.14.34Zm-.07-.62c-.08-.08-.17-.12-.28-.12s-.2.04-.27.12c-.08.08-.12.17-.12.28s.04.2.12.28c.08.08.17.12.28.12s.2-.04.28-.11c.08-.08.11-.17.11-.28s-.04-.2-.11-.28Z" style="fill: #9d9a9a;"/>
    <path d="m224.96,121.5v-1.67h.09v1.67h-.09Z" style="fill: #9d9a9a;"/>
    <path d="m226.12,121.37c-.09.09-.21.14-.34.14s-.25-.05-.34-.14c-.09-.09-.14-.21-.14-.34s.05-.25.14-.34c.09-.1.21-.14.34-.14s.25.05.34.14c.09.09.14.21.14.34s-.05.25-.14.34Zm-.07-.62c-.08-.08-.17-.12-.28-.12s-.2.04-.27.12c-.08.08-.12.17-.12.28s.04.2.11.28c.08.08.17.12.28.12s.2-.04.28-.11c.08-.08.11-.17.11-.28s-.04-.2-.11-.28Z" style="fill: #9d9a9a;"/>
    <path d="m226.93,120.7s-.05-.03-.08-.04c-.03-.01-.06-.02-.09-.02-.03,0-.05,0-.07.02-.02.02-.04.04-.06.06-.02.02-.03.05-.04.08-.01.03-.01.05-.01.08v.61h-.09v-.93h.09v.13s.04-.07.08-.1c.03-.03.07-.04.1-.04.05,0,.08,0,.12.02.03.01.06.03.1.06l-.05.08Z" style="fill: #9d9a9a;"/>
    <path d="m228.23,121.44c-.06.05-.13.08-.22.08-.14,0-.25-.06-.32-.2l.08-.05s.06.08.09.11c.04.03.09.04.15.04.14,0,.21-.06.21-.18,0-.05-.02-.1-.07-.14-.02,0-.04-.02-.06-.03-.03-.01-.06-.02-.1-.04-.07-.03-.13-.05-.16-.08-.05-.04-.07-.09-.07-.17,0-.06.02-.12.07-.16.05-.05.11-.07.18-.07.1,0,.19.04.26.11l-.07.06c-.05-.05-.12-.08-.2-.08-.11,0-.16.05-.16.14,0,.04.02.08.05.1.03.02.07.04.13.06.05.02.09.04.13.05.03.02.06.03.07.04.06.05.1.12.1.2s-.03.15-.09.2Z" style="fill: #9d9a9a;"/>
    <path d="m228.58,120.4s-.03,0-.05-.02c-.01-.01-.02-.03-.02-.05,0-.04.03-.07.07-.07.04,0,.06.03.08.07,0,.05-.03.07-.08.07Zm-.05,1.1v-.93h.09v.93h-.09Z" style="fill: #9d9a9a;"/>
    <path d="m229.07,120.66v.84h-.09v-.84h-.13v-.09h.13v-.41h.09v.41h.22v.09h-.22Z" style="fill: #9d9a9a;"/>
    <path d="m230.85,121.5v-.16c-.1.12-.22.18-.37.18-.14,0-.25-.05-.34-.14-.09-.09-.14-.21-.14-.34s.05-.25.14-.34c.09-.09.21-.14.34-.14.15,0,.27.06.37.18v-.16h.09v.93h-.09Zm-.1-.74c-.08-.08-.17-.11-.28-.11s-.2.04-.28.11c-.08.08-.12.17-.12.28s.04.2.12.28c.08.08.17.12.28.12s.2-.04.28-.11c.08-.08.12-.17.12-.28s-.04-.2-.12-.28Z" style="fill: #9d9a9a;"/>
    <path d="m232.28,121.5v-.64c0-.06-.02-.11-.06-.15-.04-.04-.09-.06-.16-.06-.15,0-.22.07-.22.21v.64h-.09v-.64c0-.06-.02-.11-.06-.15-.04-.04-.09-.06-.16-.06s-.11.02-.16.06c-.04.04-.06.09-.06.15v.64h-.09v-.93h.09v.09c.05-.07.12-.11.22-.11.12,0,.21.05.27.15.06-.1.14-.15.27-.15.09,0,.17.03.22.08.06.05.09.13.09.22v.64h-.09Z" style="fill: #9d9a9a;"/>
    <path d="m232.69,121.01c0,.13.04.23.1.3.07.08.17.11.29.11.06,0,.12-.01.17-.03.06-.03.12-.08.17-.16l.08.04c-.06.11-.15.19-.27.23-.05.01-.1.02-.16.02-.14,0-.26-.05-.35-.14-.09-.09-.14-.21-.14-.34s.04-.26.14-.35c.09-.09.21-.14.35-.14s.25.04.34.13c.09.09.14.2.14.33h-.87Zm.64-.3c-.07-.05-.15-.08-.24-.08-.19,0-.32.1-.38.28h.76c-.02-.09-.06-.16-.13-.21Z" style="fill: #9d9a9a;"/>
    <path d="m233.81,120.66v.84h-.09v-.84h-.13v-.09h.13v-.41h.09v.41h.22v.09h-.22Z" style="fill: #9d9a9a;"/>
    <path d="m234.22,121.73l-.03-.02.17-.37.08.03-.22.35Z" style="fill: #9d9a9a;"/>
    <path d="m212.06,123.92c-.14,0-.25-.05-.35-.14-.09-.09-.14-.21-.14-.34s.05-.25.14-.34c.09-.09.21-.14.35-.14.12,0,.21.03.28.08v.11l-.06-.04-.06-.03c-.06-.02-.11-.03-.16-.03-.12,0-.21.04-.28.11-.07.07-.11.17-.11.28s.04.21.11.28c.07.07.17.11.28.11.11,0,.2-.04.28-.11v.11c-.08.06-.18.08-.28.08Z" style="fill: #9d9a9a;"/>
    <path d="m213.22,123.78c-.09.09-.21.14-.34.14s-.25-.05-.34-.14c-.09-.09-.14-.21-.14-.34s.05-.25.14-.34c.09-.09.21-.14.34-.14s.25.05.34.14c.09.09.14.21.14.34s-.05.25-.14.34Zm-.07-.62c-.07-.08-.17-.12-.28-.12s-.2.04-.27.12c-.08.08-.12.17-.12.28s.04.2.12.28c.08.08.17.12.28.12s.2-.04.27-.11c.08-.08.12-.17.12-.28s-.04-.2-.11-.28Z" style="fill: #9d9a9a;"/>
    <path d="m214.22,123.9v-.56c0-.2-.09-.3-.27-.3-.09,0-.15.03-.2.08-.05.05-.07.12-.07.21v.57h-.09v-.93h.09v.11c.04-.08.13-.12.27-.12.12,0,.21.03.27.1.06.07.09.16.09.28v.57h-.09Z" style="fill: #9d9a9a;"/>
    <path d="m215.07,123.84c-.06.05-.13.08-.22.08-.14,0-.25-.07-.33-.2l.08-.05s.06.08.09.11c.04.03.09.04.15.04.14,0,.21-.06.21-.18,0-.05-.02-.1-.07-.14-.01,0-.04-.02-.06-.03-.03-.01-.06-.02-.1-.04-.08-.03-.13-.05-.16-.08-.05-.04-.07-.09-.07-.17,0-.06.02-.12.07-.16.05-.05.11-.07.18-.07.1,0,.19.04.26.11l-.07.06c-.05-.05-.12-.08-.2-.08-.11,0-.16.05-.16.14,0,.04.02.08.05.1.03.02.07.04.13.06.05.02.09.04.13.05.03.02.06.03.07.04.06.05.1.12.1.2s-.03.15-.09.2Z" style="fill: #9d9a9a;"/>
    <path d="m215.37,123.42c0,.13.03.23.1.3.07.08.17.11.29.11.06,0,.12-.01.17-.03.06-.03.12-.08.17-.16l.08.04c-.06.11-.15.19-.27.23-.05.01-.1.02-.16.02-.14,0-.25-.05-.35-.14-.09-.09-.14-.21-.14-.34s.05-.25.14-.34c.09-.09.21-.14.35-.14s.25.04.34.13c.09.09.14.2.14.33h-.87Zm.64-.3c-.07-.05-.15-.08-.24-.08-.19,0-.32.1-.38.28h.76c-.01-.09-.06-.16-.13-.21Z" style="fill: #9d9a9a;"/>
    <path d="m216.9,123.92c-.14,0-.25-.05-.35-.14-.09-.09-.14-.21-.14-.34s.05-.25.14-.34c.09-.09.21-.14.35-.14.12,0,.21.03.28.08v.11l-.06-.04-.06-.03c-.06-.02-.11-.03-.16-.03-.12,0-.21.04-.28.11s-.11.17-.11.28.04.21.11.28c.07.07.17.11.28.11.11,0,.2-.04.28-.11v.11c-.08.06-.18.08-.28.08Z" style="fill: #9d9a9a;"/>
    <path d="m217.59,123.06v.84h-.09v-.84h-.13v-.09h.13v-.41h.09v.41h.22v.09h-.22Z" style="fill: #9d9a9a;"/>
    <path d="m218.03,123.42c0,.13.03.23.1.3.07.08.17.11.29.11.06,0,.12-.01.17-.03.06-.03.12-.08.17-.16l.08.04c-.06.11-.15.19-.27.23-.05.01-.1.02-.16.02-.14,0-.26-.05-.35-.14-.09-.09-.14-.21-.14-.34s.05-.25.14-.34c.09-.09.21-.14.35-.14s.25.04.34.13c.09.09.14.2.14.33h-.87Zm.64-.3c-.07-.05-.15-.08-.24-.08-.19,0-.32.1-.38.28h.76c-.01-.09-.06-.16-.13-.21Z" style="fill: #9d9a9a;"/>
    <path d="m219.15,123.06v.84h-.09v-.84h-.13v-.09h.13v-.41h.09v.41h.22v.09h-.22Z" style="fill: #9d9a9a;"/>
    <path d="m220.17,123.82c-.06.07-.15.1-.26.1s-.19-.03-.25-.1c-.06-.06-.09-.16-.09-.27v-.58h.09v.58c0,.09.02.16.06.2.04.05.11.07.19.07.17,0,.26-.09.26-.28v-.58h.09v.58c0,.11-.03.2-.09.27Z" style="fill: #9d9a9a;"/>
    <path d="m220.98,123.11s-.05-.03-.08-.04c-.03-.01-.06-.02-.08-.02-.03,0-.05,0-.07.02-.02.02-.04.04-.06.06-.02.02-.03.05-.04.08,0,.03-.01.05-.01.08v.61h-.09v-.93h.09v.13s.05-.07.08-.09c.03-.03.07-.04.1-.04.05,0,.09,0,.12.02.03.01.06.03.1.06l-.05.08Z" style="fill: #9d9a9a;"/>
    <path d="m222.6,123.9v-.16c-.1.12-.22.18-.37.18-.14,0-.25-.05-.34-.14-.09-.09-.14-.21-.14-.34s.05-.25.14-.34c.09-.09.21-.14.34-.14.15,0,.27.06.37.18v-.16h.09v.93h-.09Zm-.1-.74c-.08-.08-.17-.11-.28-.11s-.2.04-.27.11c-.08.08-.12.17-.12.28s.04.2.12.28c.08.08.17.12.27.12s.2-.04.28-.11c.08-.08.12-.17.12-.28s-.04-.2-.12-.28Z" style="fill: #9d9a9a;"/>
    <path d="m223.77,123.9v-.17c-.1.12-.23.18-.38.18-.14,0-.25-.05-.34-.14-.09-.09-.14-.21-.14-.34s.05-.25.14-.34c.09-.09.21-.14.34-.14.15,0,.28.06.38.18v-.91h.09v1.67h-.09Zm-.1-.74c-.08-.08-.17-.11-.28-.11s-.2.04-.28.11c-.08.08-.11.17-.11.28s.04.2.11.28c.08.08.17.12.28.12s.2-.04.28-.11c.08-.08.12-.17.12-.28s-.04-.2-.12-.28Z" style="fill: #9d9a9a;"/>
    <path d="m224.21,122.8s-.03,0-.05-.02c-.01-.01-.02-.03-.02-.05,0-.04.02-.06.07-.07.04,0,.06.02.07.07,0,.05-.02.07-.07.07Zm-.05,1.1v-.93h.09v.93h-.09Z" style="fill: #9d9a9a;"/>
    <path d="m225.27,123.78c-.09.09-.21.14-.34.14-.15,0-.28-.06-.38-.19v.61h-.09v-1.37h.09v.18c.1-.13.22-.19.38-.19.14,0,.25.05.34.14.09.09.14.21.14.34s-.05.25-.14.34Zm-.07-.62c-.08-.08-.17-.11-.28-.11s-.2.04-.28.11c-.08.08-.11.17-.11.28s.04.2.11.28c.08.08.17.12.28.12s.2-.04.28-.11c.08-.08.12-.17.12-.28s-.04-.2-.12-.28Z" style="fill: #9d9a9a;"/>
    <path d="m225.67,122.8s-.03,0-.05-.02c-.01-.01-.02-.03-.02-.05,0-.04.02-.06.07-.07.04,0,.06.02.07.07,0,.05-.02.07-.07.07Zm-.05,1.1v-.93h.09v.93h-.09Z" style="fill: #9d9a9a;"/>
    <path d="m226.48,123.84c-.06.05-.13.08-.22.08-.14,0-.25-.07-.33-.2l.08-.05s.06.08.09.11c.04.03.09.04.15.04.14,0,.21-.06.21-.18,0-.05-.02-.1-.07-.14-.02,0-.04-.02-.06-.03-.03-.01-.06-.02-.1-.04-.07-.03-.13-.05-.16-.08-.05-.04-.07-.09-.07-.17,0-.06.02-.12.07-.16.05-.05.11-.07.18-.07.1,0,.19.04.26.11l-.07.06c-.05-.05-.12-.08-.2-.08-.11,0-.16.05-.16.14,0,.04.02.08.05.1.03.02.07.04.13.06.05.02.09.04.13.05.03.02.06.03.08.04.06.05.1.12.1.2s-.03.15-.09.2Z" style="fill: #9d9a9a;"/>
    <path d="m226.84,122.8s-.03,0-.05-.02c-.01-.01-.02-.03-.02-.05,0-.04.02-.06.07-.07.04,0,.06.02.07.07,0,.05-.02.07-.07.07Zm-.05,1.1v-.93h.09v.93h-.09Z" style="fill: #9d9a9a;"/>
    <path d="m227.63,123.92c-.14,0-.25-.05-.35-.14-.09-.09-.14-.21-.14-.34s.05-.25.14-.34c.09-.09.21-.14.35-.14.12,0,.21.03.28.08v.11l-.06-.04-.06-.03c-.06-.02-.11-.03-.16-.03-.12,0-.21.04-.28.11-.07.07-.11.17-.11.28s.04.21.11.28c.07.07.17.11.28.11.11,0,.2-.04.28-.11v.11c-.08.06-.18.08-.28.08Z" style="fill: #9d9a9a;"/>
    <path d="m228.18,122.8s-.03,0-.05-.02c-.01-.01-.02-.03-.02-.05,0-.04.03-.06.07-.07.04,0,.06.02.08.07,0,.05-.03.07-.08.07Zm-.05,1.1v-.93h.09v.93h-.09Z" style="fill: #9d9a9a;"/>
    <path d="m229.06,123.9v-.56c0-.2-.09-.3-.27-.3-.09,0-.15.03-.2.08-.05.05-.07.12-.07.21v.57h-.09v-.93h.09v.11c.04-.08.13-.12.27-.12.12,0,.2.03.27.1.06.07.09.16.09.28v.57h-.09Z" style="fill: #9d9a9a;"/>
    <path d="m230.19,124.21c-.08.08-.2.13-.33.13-.25,0-.41-.1-.46-.3h.09c.02.07.06.13.14.16.06.03.14.04.22.04.12,0,.21-.03.27-.1.07-.07.1-.16.1-.27v-.14c-.1.12-.22.18-.37.18-.14,0-.25-.05-.34-.14-.09-.09-.14-.21-.14-.34s.05-.25.14-.34c.09-.09.21-.14.34-.14.15,0,.27.06.37.18v-.16h.09v.91c0,.14-.04.25-.13.33Zm-.06-1.05c-.08-.08-.17-.11-.27-.11s-.2.04-.28.11c-.08.08-.11.17-.11.28s.04.2.11.28c.08.08.17.12.28.12s.2-.04.27-.11c.08-.08.12-.17.12-.28s-.04-.2-.12-.28Z" style="fill: #9d9a9a;"/>
    <path d="m231.19,123.42c0,.13.03.23.1.3.07.08.17.11.29.11.06,0,.12-.01.17-.03.07-.03.12-.08.17-.16l.08.04c-.06.11-.15.19-.27.23-.05.01-.1.02-.16.02-.14,0-.25-.05-.35-.14-.09-.09-.14-.21-.14-.34s.05-.25.14-.34c.09-.09.21-.14.35-.14s.25.04.34.13c.09.09.14.2.14.33h-.87Zm.64-.3c-.07-.05-.15-.08-.24-.08-.19,0-.32.1-.38.28h.76c-.02-.09-.06-.16-.13-.21Z" style="fill: #9d9a9a;"/>
    <path d="m232.3,123.9v-1.67h.09v1.67h-.09Z" style="fill: #9d9a9a;"/>
    <path d="m232.66,122.8s-.03,0-.05-.02c-.01-.01-.02-.03-.02-.05,0-.04.02-.06.07-.07.04,0,.06.02.07.07,0,.05-.02.07-.07.07Zm-.05,1.1v-.93h.09v.93h-.09Z" style="fill: #9d9a9a;"/>
    <path d="m233.15,123.06v.84h-.09v-.84h-.13v-.09h.13v-.41h.09v.41h.22v.09h-.22Z" style="fill: #9d9a9a;"/>
    <path d="m233.56,124.14l-.03-.02.17-.37.08.03-.22.35Z" style="fill: #9d9a9a;"/>
    <path d="m212.12,126.11c-.06.05-.13.08-.22.08-.14,0-.25-.07-.33-.2l.08-.05s.06.08.09.11c.04.03.09.04.15.04.14,0,.21-.06.21-.18,0-.05-.03-.1-.08-.14-.01,0-.04-.02-.06-.03-.03-.01-.06-.02-.1-.04-.07-.03-.13-.05-.16-.08-.05-.04-.07-.09-.07-.17,0-.06.02-.12.07-.16.05-.05.11-.07.18-.07.1,0,.19.04.27.11l-.07.06c-.05-.05-.12-.08-.2-.08-.11,0-.16.05-.16.14,0,.04.02.08.05.1.03.02.07.04.13.06.05.02.09.04.13.05.03.02.06.03.07.04.07.05.1.12.1.2s-.03.15-.09.2Z" style="fill: #9d9a9a;"/>
    <path d="m212.43,125.69c0,.13.03.23.1.3.07.08.17.11.29.11.06,0,.12-.01.17-.03.06-.03.12-.08.17-.16l.08.04c-.06.11-.15.19-.27.23-.05.01-.1.02-.16.02-.14,0-.26-.05-.35-.14-.09-.09-.14-.21-.14-.34s.05-.25.14-.34c.09-.09.21-.14.35-.14s.25.04.34.13c.09.09.14.2.14.33h-.87Zm.64-.3c-.07-.05-.15-.08-.24-.08-.19,0-.32.1-.38.28h.76c-.01-.09-.06-.16-.13-.21Z" style="fill: #9d9a9a;"/>
    <path d="m214.33,126.17v-.17c-.1.12-.23.18-.38.18-.14,0-.25-.05-.34-.14-.09-.09-.14-.21-.14-.34s.05-.25.14-.34c.09-.09.21-.14.34-.14.15,0,.27.06.38.18v-.91h.09v1.67h-.09Zm-.1-.74c-.08-.08-.17-.11-.27-.11s-.2.04-.28.11c-.08.08-.12.17-.12.28s.04.2.12.28c.08.08.17.12.28.12s.2-.04.27-.11c.08-.08.12-.17.12-.28s-.04-.2-.12-.28Z" style="fill: #9d9a9a;"/>
    <path d="m216.08,126.17v-.17c-.1.12-.23.18-.38.18-.13,0-.25-.05-.34-.14-.09-.09-.14-.21-.14-.34s.05-.25.14-.34c.09-.09.21-.14.34-.14.15,0,.28.06.38.18v-.91h.09v1.67h-.09Zm-.1-.74c-.08-.08-.17-.11-.28-.11s-.2.04-.27.11c-.08.08-.12.17-.12.28s.04.2.12.28c.08.08.17.12.27.12s.2-.04.28-.11c.08-.08.12-.17.12-.28s-.04-.2-.12-.28Z" style="fill: #9d9a9a;"/>
    <path d="m217.2,126.05c-.09.09-.21.14-.34.14s-.25-.05-.34-.14c-.09-.09-.14-.21-.14-.34s.05-.25.14-.34c.09-.09.2-.14.34-.14s.25.05.34.14c.09.09.14.21.14.34s-.05.25-.14.34Zm-.07-.62c-.07-.08-.17-.12-.28-.12s-.2.04-.27.12c-.08.08-.12.17-.12.28s.04.2.12.28c.08.08.17.12.27.12s.2-.04.28-.11c.08-.08.11-.17.11-.28s-.04-.2-.11-.28Z" style="fill: #9d9a9a;"/>
  </g>
  <rect x="211.94" y="118.83" width="23.18" height=".2" style="fill: #5f5e5e;"/>
  <rect x="211.94" y="138.84" width="23.18" height=".2" style="fill: #5f5e5e;"/>
  <polygon points="234.6 71.42 228.86 67.38 223.12 63.34 217.37 67.38 211.63 71.42 211.64 71.42 211.64 113.48 234.6 113.48 234.6 71.42 234.6 71.42" style="fill: #8ebfa2;"/>
  <g>
    <path d="m215.12,133.75c-.05.06-.13.16-.24.29-.11.13-.24.29-.41.47l-1.81,2.05h3.03v.36h-3.82l3.1-3.59c.25-.35.37-.72.37-1.11s-.15-.69-.44-.95c-.3-.25-.64-.38-1.03-.38-.48,0-.85.15-1.12.46-.17.18-.28.41-.35.68h-.4c.04-.31.2-.61.46-.91.35-.39.82-.58,1.41-.58.5,0,.93.16,1.29.47.36.31.54.71.54,1.21s-.19,1.02-.58,1.51Z" style="fill: #8ebfa2;"/>
    <path d="m216.6,136.98c-.06,0-.13-.03-.2-.08-.05-.05-.08-.12-.09-.21,0-.16.1-.26.29-.29.15,0,.25.1.29.29,0,.19-.1.29-.29.29Z" style="fill: #8ebfa2;"/>
    <path d="m220.95,133.75c-.05.06-.13.16-.24.29-.11.13-.24.29-.41.47l-1.81,2.05h3.03v.36h-3.83l3.1-3.59c.25-.35.37-.72.37-1.11s-.15-.69-.44-.95c-.3-.25-.64-.38-1.03-.38-.48,0-.85.15-1.12.46-.17.18-.28.41-.35.68h-.4c.04-.31.2-.61.46-.91.35-.39.82-.58,1.41-.58.5,0,.93.16,1.29.47.36.31.54.71.54,1.21s-.19,1.02-.58,1.51Z" style="fill: #8ebfa2;"/>
    <path d="m224.26,135.73v1.2h-.37v-1.2h-3.25l3.62-5.21v4.85h.74v.35h-.74Zm-.37-4.08l-2.6,3.73h2.6v-3.73Z" style="fill: #8ebfa2;"/>
    <path d="m228.99,136.35c-.42.44-.96.66-1.63.66-1,0-1.69-.44-2.06-1.33l.34-.13c.17.35.37.61.6.78.29.21.66.32,1.12.32.55,0,1-.19,1.35-.58.35-.38.53-.85.53-1.41s-.2-.99-.59-1.33c-.37-.32-.8-.47-1.29-.45h-.28s-.13,0-.13,0c-.05,0-.12.01-.21.04-.2,0-.41.04-.63.12l.63-2.45h2.43v.36h-2.14l-.38,1.63.35-.04.37-.03c.57-.04,1.08.14,1.54.53.47.4.71.94.71,1.61s-.21,1.25-.62,1.68Z" style="fill: #8ebfa2;"/>
  </g>
  <path d="m234.35,136.32c-.27.34-.64.51-1.13.51v.46h-.34v-.45c-.42,0-.78-.12-1.09-.35-.3-.23-.5-.56-.6-.97l.35-.12c.19.72.64,1.09,1.33,1.09v-2.91c-.46-.16-.78-.34-.97-.53-.26-.24-.39-.58-.39-1,0-.39.13-.72.39-.99.26-.27.58-.41.97-.41v-.45h.34v.45c.55,0,.96.27,1.23.8l-.32.14c-.19-.34-.49-.54-.91-.6v2.35c.99.39,1.49.98,1.49,1.77,0,.5-.12.91-.36,1.21Zm-1.47-5.33c-.31.05-.56.16-.73.35-.18.2-.27.45-.27.74s.1.53.31.72c.15.14.38.28.69.4v-2.21Zm.34,2.73v2.77c.39,0,.68-.14.87-.42.18-.24.26-.56.26-.96,0-.62-.38-1.09-1.14-1.39Z" style="fill: #8ebfa2;"/>
</svg>