<?xml version="1.0" encoding="UTF-8"?>
<svg id="_2A" data-name="2A" xmlns="http://www.w3.org/2000/svg" width="300" height="250" viewBox="0 0 300 250">
  <g>
    <path d="m102.28,61.3c-.54.51-1.23.77-2.05.77-.69,0-1.28-.19-1.77-.57-.47-.38-.79-.92-.95-1.61h.61c.12.46.39.84.79,1.15.4.31.84.46,1.31.46.61,0,1.14-.21,1.58-.63.44-.44.66-.96.66-1.56,0-.75-.27-1.34-.81-1.77-.41-.33-.83-.49-1.26-.49h-.59v-.82h.59c.59,0,1.06-.16,1.41-.49.34-.32.52-.78.52-1.38s-.19-1.05-.56-1.41c-.37-.37-.85-.56-1.44-.56-1.12,0-1.79.59-2.02,1.76h-.66c.08-.73.37-1.29.85-1.7.48-.42,1.09-.63,1.83-.63s1.4.23,1.91.7c.51.46.77,1.07.77,1.84,0,1.24-.62,2-1.87,2.27,1.3.39,1.95,1.29,1.95,2.68,0,.83-.27,1.49-.81,2Z" style="fill: #5f5e5e;"/>
    <path d="m105.65,62v-9.39h-1.69l.38-.57h1.88v9.97h-.57Z" style="fill: #5f5e5e;"/>
    <path d="m112.71,55.23c-.35.33-.77.5-1.24.5s-.86-.17-1.2-.52c-.35-.35-.53-.75-.53-1.2s.17-.87.5-1.23c.35-.34.75-.52,1.23-.52s.88.17,1.23.52c.35.34.52.75.52,1.23s-.17.9-.5,1.22Zm-2.15,6.77h-.56l5.42-9.97h.56l-5.42,9.97Zm1.73-8.81c-.23-.23-.51-.35-.82-.35s-.59.11-.81.35c-.23.23-.35.51-.35.82s.12.57.35.8c.23.23.5.35.81.35.28,0,.55-.11.82-.33.23-.23.35-.5.35-.81s-.12-.59-.35-.82Zm3.21,8.42c-.35.34-.77.5-1.24.5s-.86-.17-1.2-.52c-.35-.35-.53-.75-.53-1.2s.17-.87.5-1.23c.34-.34.75-.52,1.23-.52s.88.17,1.23.52c.34.35.52.76.52,1.23,0,.5-.17.9-.5,1.22Zm-.42-2.04c-.23-.23-.51-.35-.82-.35s-.59.11-.81.35c-.23.23-.35.51-.35.82s.12.57.35.8c.23.23.5.35.81.35s.57-.11.81-.33c.24-.24.36-.51.36-.81,0-.32-.12-.59-.35-.82Z" style="fill: #5f5e5e;"/>
  </g>
  <g>
    <path d="m62.76,61.36h18.83c.14,0,.26.12.26.26v.59c0,.15-.12.26-.26.26h-18.83c-.15,0-.26-.12-.26-.26v-.59c0-.14.12-.26.26-.26Z" style="fill: #e44a12;"/>
    <path d="m79.98,51.17h-15.61c-.43,0-.79.35-.79.79v8.21c0,.43.35.79.79.79h15.61c.44,0,.79-.35.79-.79v-8.21c0-.43-.35-.79-.79-.79Zm0,9.04h-15.6v-8.04h15.6v8.04Z" style="fill: #e44a12;"/>
  </g>
  <rect x="62.5" y="64.35" width="55.37" height=".14" style="fill: #5f5e5e;"/>
  <g>
    <path d="m162.95,60.11v1.9h-.59v-1.9h-5.12l5.71-8.21v7.65h1.16v.56h-1.16Zm-.59-6.43l-4.1,5.87h4.1v-5.87Z" style="fill: #5f5e5e;"/>
    <path d="m170.48,61.26c-.65.65-1.47.98-2.46.98s-1.84-.32-2.47-.95c-.63-.65-.95-1.48-.95-2.49v-.45c0-.06,0-.11.01-.17,0-.06.02-.13.04-.24.02-.1.05-.23.1-.39.05-.19.11-.38.18-.55.08-.17.16-.34.24-.49l2.5-4.48h.66l-2.12,3.87.59-.29.6-.17.63-.06c.98,0,1.79.33,2.44.98.66.66.99,1.48.99,2.44s-.33,1.81-.98,2.46Zm-.42-4.47c-.56-.57-1.24-.85-2.04-.85s-1.46.28-2.02.84c-.56.56-.84,1.23-.84,2.02s.27,1.51.81,2.05c.55.55,1.23.82,2.05.82s1.5-.28,2.05-.82c.55-.55.82-1.23.82-2.05,0-.76-.28-1.43-.84-2.01Z" style="fill: #5f5e5e;"/>
    <path d="m175.38,55.23c-.35.33-.77.5-1.24.5s-.86-.17-1.2-.52c-.36-.35-.53-.75-.53-1.2s.17-.87.5-1.23c.35-.34.76-.52,1.23-.52s.88.17,1.23.52c.34.34.52.75.52,1.23s-.17.9-.5,1.22Zm-2.15,6.77h-.56l5.41-9.97h.56l-5.42,9.97Zm1.73-8.81c-.23-.23-.51-.35-.82-.35s-.59.11-.81.35c-.23.23-.35.51-.35.82s.12.57.35.8c.23.23.5.35.81.35.28,0,.55-.11.82-.33.23-.23.35-.5.35-.81s-.12-.59-.35-.82Zm3.21,8.42c-.35.34-.77.5-1.24.5s-.86-.17-1.2-.52c-.35-.35-.53-.75-.53-1.2s.17-.87.5-1.23c.34-.34.75-.52,1.23-.52s.88.17,1.23.52c.34.35.52.76.52,1.23,0,.5-.17.9-.5,1.22Zm-.42-2.04c-.23-.23-.51-.35-.82-.35s-.59.11-.81.35c-.23.23-.35.51-.35.82s.12.57.35.8c.23.23.5.35.81.35s.57-.11.81-.33c.24-.24.36-.51.36-.81,0-.32-.11-.59-.35-.82Z" style="fill: #5f5e5e;"/>
  </g>
  <rect x="122.62" y="64.35" width="55.37" height=".14" style="fill: #5f5e5e;"/>
  <g>
    <path d="m222.28,56.99c-.08.1-.21.25-.38.45-.17.2-.38.45-.64.75l-2.86,3.24h4.78v.57h-6.03l4.88-5.65c.39-.56.59-1.14.59-1.75s-.23-1.08-.7-1.49c-.47-.4-1-.6-1.62-.6-.75,0-1.35.24-1.77.72-.26.29-.44.65-.55,1.07h-.63c.07-.48.31-.96.73-1.44.56-.61,1.3-.92,2.22-.92.79,0,1.47.25,2.04.74.57.48.85,1.12.85,1.91s-.3,1.6-.91,2.39Z" style="fill: #5f5e5e;"/>
    <path d="m225.39,62v-9.39h-1.69l.38-.57h1.88v9.97h-.57Z" style="fill: #5f5e5e;"/>
    <path d="m232.45,55.23c-.35.33-.77.5-1.24.5s-.86-.17-1.2-.52c-.36-.35-.53-.75-.53-1.2s.17-.87.5-1.23c.34-.34.75-.52,1.23-.52s.88.17,1.23.52c.35.34.52.75.52,1.23s-.17.9-.5,1.22Zm-2.15,6.77h-.56l5.42-9.97h.56l-5.42,9.97Zm1.73-8.81c-.23-.23-.51-.35-.82-.35s-.59.11-.81.35c-.23.23-.35.51-.35.82s.12.57.35.8c.23.23.5.35.81.35.28,0,.55-.11.82-.33.23-.23.35-.5.35-.81s-.12-.59-.35-.82Zm3.21,8.42c-.35.34-.77.5-1.24.5s-.85-.17-1.2-.52c-.35-.35-.53-.75-.53-1.2s.17-.87.5-1.23c.35-.34.75-.52,1.23-.52s.89.17,1.23.52c.35.35.52.76.52,1.23,0,.5-.17.9-.5,1.22Zm-.42-2.04c-.23-.23-.51-.35-.82-.35s-.58.11-.81.35c-.23.23-.35.51-.35.82s.12.57.35.8c.23.23.5.35.81.35s.57-.11.81-.33c.24-.24.36-.51.36-.81,0-.32-.12-.59-.35-.82Z" style="fill: #5f5e5e;"/>
  </g>
  <rect x="182.32" y="64.35" width="55.37" height=".14" style="fill: #5f5e5e;"/>
  <path d="m136.74,51.84h-3.94c-.23-.3-.78-.54-1.49-.65l2.82-2.43s.11.05.17.05c.18,0,.32-.14.32-.32,0-.16-.13-.3-.29-.32h-.01s-.01,0-.02,0c0,0,0,0,0,0-.02,0-.03,0-.05,0,0,0,0,0-.01,0,0,0-.02,0-.02,0-.13.04-.23.16-.23.31,0,.04,0,.07.02.11l-2.96,2.56c-.2-.02-.41-.03-.63-.03-.03,0-.05,0-.08,0-.03,0-.05,0-.08,0-.05,0-.09,0-.14,0l-3.53-4.07s.05-.11.05-.17c0-.18-.14-.32-.32-.32s-.32.14-.32.32.14.32.32.32c.04,0,.08-.01.11-.02l3.43,3.96c-.26.02-.5.07-.71.13-.53.13-.94.33-1.12.58h-3.61c-.44,0-.81.36-.81.81v8.28c0,.45.36.81.81.81h.35v.18h1.68v-.18h8.29v.18h1.68v-.18h.3c.44,0,.81-.36.81-.81v-8.28c0-.45-.36-.81-.81-.81Zm-1.36,7.89c0,.77-.62,1.39-1.39,1.39h-8.29c-.77,0-1.39-.62-1.39-1.39v-5.93c0-.77.63-1.39,1.39-1.39h8.29c.77,0,1.39.62,1.39,1.39v5.93Zm1-4.33c-.3,0-.54-.24-.54-.54s.24-.54.54-.54.54.24.54.54-.24.54-.54.54Zm0-1.32c-.3,0-.54-.24-.54-.54s.24-.54.54-.54.54.24.54.54-.24.54-.54.54Z" style="fill: #8ebfa2;"/>
  <g>
    <path d="m197.19,56.3l-2.86-2.85-2.88-2.86-2.88,2.86-2.86,2.85h-3.87v5.71h9.61v-4.29h2.83v4.29h2.92v-5.71h-.01Zm-12.06,3.38h-2.2v-2.12h2.2v2.12Zm3.35,0h-2.21v-2.12h2.21v2.12Zm2.52-4.29c-.59,0-1.06-.48-1.06-1.06s.48-1.06,1.06-1.06,1.06.48,1.06,1.06-.47,1.06-1.06,1.06Z" style="fill: #e44a12;"/>
    <polygon points="195.93 54.08 195.93 50.92 194.63 50.92 194.63 52.76 191.46 49.55 188.54 52.5 184.45 52.55 181.26 55.92 185.6 55.92 185.64 55.88 191.46 49.98 197.32 55.92 197.56 55.73 195.93 54.08" style="fill: #e44a12;"/>
  </g>
</svg>