<?xml version="1.0" encoding="UTF-8"?>
<svg id="_2B" data-name="2B" xmlns="http://www.w3.org/2000/svg" width="300" height="250.45" viewBox="0 0 300 250.45">
  <g>
    <path d="m100.59,94.47v-9.4h-1.69l.38-.57h1.88v9.97h-.57Z" style="fill: #5f5e5e;"/>
    <path d="m109.5,88.47c-.02.21-.06.42-.12.64-.05.19-.11.37-.17.54-.07.17-.15.34-.25.51l-2.49,4.45-.53-.25,1.98-3.59-.59.29-.6.17-.63.06c-.98,0-1.8-.32-2.46-.96-.65-.65-.97-1.47-.97-2.46s.32-1.81.97-2.46c.65-.65,1.47-.98,2.46-.98s1.8.33,2.44.98c.65.65.98,1.47.98,2.46,0,.19-.01.4-.04.61Zm-1.33-2.66c-.55-.55-1.23-.82-2.05-.82s-1.5.28-2.05.82c-.55.55-.82,1.23-.82,2.05s.27,1.46.82,2.02c.54.56,1.23.84,2.05.84s1.49-.27,2.04-.82c.55-.55.82-1.23.82-2.04s-.27-1.51-.81-2.05Z" style="fill: #5f5e5e;"/>
    <path d="m113.45,87.69c-.35.34-.77.5-1.24.5s-.86-.17-1.2-.52c-.36-.35-.53-.75-.53-1.2s.17-.87.5-1.23c.34-.35.75-.52,1.23-.52s.88.17,1.23.52c.34.34.52.75.52,1.23s-.17.9-.5,1.21Zm-2.15,6.77h-.56l5.42-9.97h.56l-5.42,9.97Zm1.73-8.81c-.23-.23-.51-.35-.82-.35s-.59.12-.81.35c-.23.23-.35.51-.35.82s.11.57.35.8c.23.23.5.35.81.35.28,0,.55-.11.82-.33.23-.23.35-.5.35-.81s-.12-.59-.35-.82Zm3.21,8.42c-.35.34-.77.5-1.24.5s-.86-.17-1.2-.52c-.35-.35-.53-.76-.53-1.2s.17-.87.5-1.23c.34-.35.75-.52,1.23-.52s.88.17,1.23.52c.35.34.52.75.52,1.23s-.17.9-.5,1.21Zm-.42-2.04c-.23-.23-.51-.35-.82-.35s-.59.12-.81.35c-.23.23-.35.51-.35.82s.12.57.35.8c.23.23.5.35.81.35s.57-.11.81-.33c.24-.24.36-.51.36-.81,0-.32-.12-.59-.35-.82Z" style="fill: #5f5e5e;"/>
  </g>
  <rect x="62.5" y="96.81" width="55.37" height=".14" style="fill: #5f5e5e;"/>
  <g>
    <path d="m162.51,93.85c-.55.53-1.24.79-2.08.79s-1.54-.26-2.09-.78c-.55-.53-.82-1.21-.82-2.05,0-.6.16-1.14.49-1.61.33-.46.78-.8,1.37-1.02-.47-.14-.84-.44-1.12-.89-.27-.44-.4-.9-.4-1.4,0-.75.24-1.37.71-1.84.47-.48,1.09-.73,1.84-.73s1.38.24,1.86.71c.47.48.71,1.09.71,1.86,0,.52-.14,1-.42,1.42-.27.42-.65.71-1.14.87.5.19.91.45,1.23.8.46.48.68,1.09.68,1.83,0,.83-.27,1.51-.81,2.04Zm-.45-3.66c-.23-.23-.49-.42-.76-.55-.28-.13-.57-.2-.9-.2s-.61.07-.88.2c-.27.14-.52.31-.75.54-.46.47-.7,1.01-.7,1.63s.22,1.17.66,1.61c.45.45,1,.67,1.67.67s1.24-.21,1.68-.64c.46-.43.68-.97.68-1.63s-.23-1.17-.7-1.62Zm-.22-4.73c-.38-.38-.86-.57-1.44-.57s-1.04.19-1.42.57c-.38.38-.57.86-.57,1.44s.19,1.03.57,1.41c.19.19.4.34.63.46.24.12.5.18.79.18s.57-.06.8-.17c.24-.11.45-.26.64-.45.38-.38.57-.86.57-1.44s-.19-1.05-.57-1.44Z" style="fill: #5f5e5e;"/>
    <path d="m164.31,94.6l-.47-.36,6.04-9.17h-5.95v-.57h7.01l-6.63,10.11Z" style="fill: #5f5e5e;"/>
    <path d="m174.68,87.69c-.35.34-.77.5-1.24.5s-.86-.17-1.2-.52c-.35-.35-.53-.75-.53-1.2s.17-.87.5-1.23c.34-.35.75-.52,1.23-.52s.88.17,1.23.52c.34.34.52.75.52,1.23s-.17.9-.5,1.21Zm-2.15,6.77h-.56l5.42-9.97h.56l-5.42,9.97Zm1.73-8.81c-.23-.23-.51-.35-.82-.35s-.59.12-.81.35c-.23.23-.35.51-.35.82s.12.57.35.8c.23.23.5.35.81.35.28,0,.55-.11.82-.33.23-.23.35-.5.35-.81s-.11-.59-.35-.82Zm3.21,8.42c-.35.34-.77.5-1.24.5s-.86-.17-1.2-.52c-.36-.35-.53-.76-.53-1.2s.17-.87.5-1.23c.34-.35.75-.52,1.23-.52s.88.17,1.23.52c.34.34.52.75.52,1.23s-.17.9-.5,1.21Zm-.42-2.04c-.23-.23-.51-.35-.82-.35s-.59.12-.81.35c-.23.23-.35.51-.35.82s.12.57.35.8c.23.23.5.35.81.35s.57-.11.81-.33c.24-.24.36-.51.36-.81,0-.32-.12-.59-.35-.82Z" style="fill: #5f5e5e;"/>
  </g>
  <rect x="122.62" y="96.81" width="55.37" height=".14" style="fill: #5f5e5e;"/>
  <g>
    <path d="m222.57,93.72c-.65.65-1.47.98-2.46.98s-1.84-.32-2.47-.95c-.63-.65-.95-1.48-.95-2.48v-.45c0-.06,0-.11.01-.17,0-.05.02-.13.04-.24.02-.1.05-.23.1-.39.05-.19.11-.38.18-.55.08-.17.15-.34.24-.49l2.5-4.48h.66l-2.12,3.87.59-.29.6-.17.63-.06c.98,0,1.79.33,2.44.98.66.66.99,1.47.99,2.44s-.33,1.81-.98,2.46Zm-.42-4.47c-.56-.57-1.24-.85-2.04-.85s-1.47.28-2.03.84c-.56.56-.84,1.23-.84,2.02s.27,1.51.81,2.05c.55.55,1.23.82,2.05.82s1.5-.28,2.05-.82c.55-.55.82-1.23.82-2.05,0-.76-.28-1.43-.84-2.01Z" style="fill: #5f5e5e;"/>
    <path d="m225.08,94.47v-9.4h-1.69l.38-.57h1.89v9.97h-.57Z" style="fill: #5f5e5e;"/>
    <path d="m232.15,87.69c-.35.34-.77.5-1.24.5s-.86-.17-1.2-.52c-.35-.35-.53-.75-.53-1.2s.17-.87.5-1.23c.34-.35.75-.52,1.23-.52s.88.17,1.23.52c.34.34.52.75.52,1.23s-.17.9-.5,1.21Zm-2.15,6.77h-.56l5.42-9.97h.56l-5.42,9.97Zm1.73-8.81c-.23-.23-.51-.35-.82-.35s-.59.12-.81.35c-.23.23-.35.51-.35.82s.12.57.35.8c.23.23.5.35.81.35.28,0,.55-.11.82-.33.23-.23.35-.5.35-.81s-.12-.59-.35-.82Zm3.21,8.42c-.35.34-.77.5-1.24.5s-.86-.17-1.2-.52c-.35-.35-.53-.76-.53-1.2s.17-.87.5-1.23c.34-.35.75-.52,1.23-.52s.88.17,1.23.52c.34.34.52.75.52,1.23s-.17.9-.5,1.21Zm-.42-2.04c-.23-.23-.51-.35-.82-.35s-.59.12-.81.35c-.23.23-.35.51-.35.82s.12.57.35.8c.23.23.5.35.81.35s.57-.11.81-.33c.24-.24.36-.51.36-.81,0-.32-.11-.59-.35-.82Z" style="fill: #5f5e5e;"/>
  </g>
  <rect x="182.32" y="96.81" width="55.37" height=".14" style="fill: #5f5e5e;"/>
  <g>
    <path d="m190.54,83.66c0,.38-.31.7-.7.7h0c-.38,0-.7-.31-.7-.7v-1.74c0-.39.31-.7.7-.7h0c.39,0,.7.31.7.7v1.74Z" style="fill: #8ebfa2;"/>
    <path d="m193.75,83.66c0,.38-.31.7-.7.7h0c-.38,0-.7-.31-.7-.7v-1.74c0-.39.31-.7.7-.7h0c.39,0,.7.31.7.7v1.74Z" style="fill: #8ebfa2;"/>
    <path d="m193.98,84.9h-5.77v4.53c0,.43.35.78.77.78h1.11c.09.33.39.58.75.58h1.43c.36,0,.66-.25.74-.58h.96c.43,0,.77-.35.77-.78v-4.53h-.77Z" style="fill: #8ebfa2;"/>
    <path d="m191.57,90.98c-.27,0-.48.22-.48.48v1.36c0,.71-.58,1.29-1.29,1.29s-1.29-.58-1.29-1.29c0-1.25-1.01-2.26-2.26-2.26s-2.26,1.01-2.26,2.26c0,.27.22.48.48.48s.48-.22.48-.48c0-.71.58-1.29,1.29-1.29s1.29.58,1.29,1.29c0,1.25,1.01,2.26,2.26,2.26s2.26-1.01,2.26-2.26v-1.36c0-.27-.22-.48-.48-.48Z" style="fill: #8ebfa2;"/>
  </g>
  <g>
    <path d="m71.7,85.45c0-2.13-1.84-3.85-4.11-3.85s-4.11,1.72-4.11,3.85c0,.54.12,1.06.34,1.53h0c.11.24.25.47.41.69.64,1.09,1.41,3.14,1.41,3.59,0,.23.25.41.56.41h2.79c.31,0,.56-.18.56-.41,0-.45.77-2.5,1.41-3.59.16-.21.3-.44.41-.69h0c.21-.47.34-.98.34-1.53Z" style="fill: #8ebfa2;"/>
    <path d="m69.55,92.58c0-.21-.21-.38-.47-.38h-2.96c-.26,0-.47.17-.47.38h0c0,.2.21.37.47.37h2.96c.26,0,.47-.17.47-.37h0Z" style="fill: #8ebfa2;"/>
    <path d="m69.55,93.85c0-.21-.21-.38-.47-.38h-2.96c-.26,0-.47.17-.47.38h0c0,.2.21.37.47.37h2.96c.26,0,.47-.17.47-.37h0Z" style="fill: #8ebfa2;"/>
    <path d="m68.66,95.1c0,.2-.16.35-.36.35h-1.43c-.2,0-.36-.16-.36-.35h0c0-.2.16-.35.36-.35h1.43c.2,0,.36.16.36.35h0Z" style="fill: #8ebfa2;"/>
  </g>
  <g>
    <rect x="124.06" y="94.6" width="9.02" height=".85" style="fill: #e44a12;"/>
    <path d="m135.2,84.94c0-.13-.06-.25-.16-.34l-1.2-1.09c-.2-.18-.51-.17-.69.03-.18.2-.17.51.03.69l1.05.96.07,1.43c.01.27.24.48.52.47.27-.01.48-.24.46-.51l-.08-1.62h0Z" style="fill: #e44a12;"/>
    <path d="m134.7,87.74v5.33c0,.31-.25.55-.55.55s-.55-.25-.55-.55v-3.96h-.57v3.96c0,.62.5,1.12,1.12,1.12s1.12-.5,1.12-1.12v-5.33h-.57Z" style="fill: #e44a12;"/>
    <path d="m131.41,82.41h-5.51c-.52,0-.95.43-.95.95v10.54h7.41v-10.54c0-.52-.42-.95-.95-.95Zm-5.32,2.36c0-.52.42-.95.95-.95h3.04c.53,0,.95.42.95.95v.57c0,.53-.43.95-.95.95h-3.04c-.52,0-.95-.42-.95-.95v-.57Z" style="fill: #e44a12;"/>
  </g>
</svg>