<?xml version="1.0" encoding="UTF-8"?>
<svg id="_2C" data-name="2C" xmlns="http://www.w3.org/2000/svg" width="300" height="250.45" viewBox="0 0 300 250.45">
  <g>
    <path d="m102.76,125.73c-.65.65-1.47.98-2.46.98s-1.84-.32-2.47-.95c-.63-.65-.95-1.48-.95-2.49v-.45c0-.06,0-.11.01-.17,0-.06.02-.14.04-.24.02-.1.05-.23.1-.39.05-.2.11-.38.18-.55.07-.17.15-.34.24-.49l2.5-4.48h.65l-2.12,3.87.59-.29.6-.17.63-.06c.98,0,1.79.33,2.44.98s.99,1.48.99,2.44-.32,1.81-.98,2.46Zm-.42-4.47c-.56-.57-1.24-.85-2.04-.85s-1.47.28-2.03.84c-.56.56-.84,1.23-.84,2.02,0,.83.27,1.51.81,2.05.55.55,1.23.82,2.05.82s1.5-.28,2.05-.82c.55-.55.82-1.23.82-2.05,0-.76-.28-1.43-.84-2.01Z" style="fill: #5f5e5e;"/>
    <path d="m109.4,125.78c-.54.51-1.22.77-2.05.77-.69,0-1.28-.19-1.77-.57-.47-.38-.79-.92-.95-1.6h.61c.12.46.39.84.8,1.14.4.31.84.46,1.31.46.61,0,1.14-.21,1.58-.63.44-.44.65-.96.65-1.56,0-.75-.27-1.34-.81-1.77-.41-.33-.83-.49-1.26-.49h-.59v-.82h.59c.59,0,1.06-.16,1.41-.49.34-.32.52-.78.52-1.38s-.19-1.05-.56-1.41c-.37-.37-.85-.56-1.44-.56-1.12,0-1.79.59-2.02,1.76h-.66c.08-.73.37-1.29.85-1.7.49-.42,1.09-.63,1.83-.63s1.4.23,1.91.7c.51.46.77,1.07.77,1.84,0,1.24-.62,2-1.87,2.27,1.3.39,1.95,1.28,1.95,2.68,0,.83-.27,1.49-.81,2Z" style="fill: #5f5e5e;"/>
    <path d="m114.78,119.71c-.35.33-.77.5-1.24.5s-.86-.17-1.2-.52c-.35-.35-.53-.75-.53-1.2s.17-.87.5-1.23c.35-.35.75-.52,1.23-.52s.88.17,1.23.52c.34.35.52.76.52,1.23s-.17.9-.5,1.22Zm-2.15,6.77h-.56l5.42-9.97h.56l-5.42,9.97Zm1.73-8.81c-.23-.23-.51-.35-.82-.35s-.59.12-.81.35c-.23.23-.35.51-.35.82s.12.57.35.8c.23.23.5.35.81.35.28,0,.55-.11.82-.33.23-.23.35-.5.35-.81s-.12-.59-.35-.82Zm3.21,8.42c-.35.33-.77.5-1.24.5s-.86-.17-1.2-.52c-.35-.35-.53-.75-.53-1.2s.17-.87.5-1.23c.34-.35.75-.52,1.23-.52s.88.17,1.23.52c.34.34.52.75.52,1.23s-.17.9-.5,1.21Zm-.42-2.04c-.23-.23-.51-.35-.82-.35s-.59.12-.81.35c-.23.23-.35.51-.35.82s.12.57.35.8c.23.23.5.35.81.35s.57-.11.81-.33c.24-.24.36-.51.36-.81,0-.32-.12-.59-.35-.82Z" style="fill: #5f5e5e;"/>
  </g>
  <rect x="62.5" y="128.82" width="55.37" height=".14" style="fill: #5f5e5e;"/>
  <g>
    <path d="m162.95,124.58v1.9h-.59v-1.9h-5.12l5.71-8.21v7.65h1.16v.56h-1.16Zm-.59-6.43l-4.1,5.88h4.1v-5.88Z" style="fill: #5f5e5e;"/>
    <path d="m170.67,120.48c-.02.21-.06.42-.12.64-.05.19-.1.36-.17.54-.07.17-.15.34-.24.51l-2.49,4.45-.53-.25,1.98-3.59-.59.29-.6.17-.63.06c-.99,0-1.81-.32-2.46-.96-.65-.65-.97-1.47-.97-2.46s.32-1.8.97-2.46c.65-.65,1.47-.98,2.46-.98s1.8.33,2.44.98c.65.65.98,1.47.98,2.46,0,.2-.01.4-.04.61Zm-1.33-2.66c-.55-.55-1.23-.82-2.05-.82s-1.5.27-2.05.82c-.55.55-.82,1.23-.82,2.05s.28,1.46.82,2.03c.54.56,1.22.84,2.05.84s1.49-.27,2.04-.82c.55-.55.82-1.23.82-2.04s-.27-1.51-.81-2.05Z" style="fill: #5f5e5e;"/>
    <path d="m174.61,119.71c-.35.33-.77.5-1.24.5s-.86-.17-1.2-.52c-.35-.35-.53-.75-.53-1.2s.17-.87.5-1.23c.34-.35.75-.52,1.23-.52s.89.17,1.23.52c.34.35.52.76.52,1.23s-.17.9-.5,1.22Zm-2.15,6.77h-.56l5.42-9.97h.56l-5.42,9.97Zm1.73-8.81c-.23-.23-.51-.35-.82-.35s-.59.12-.81.35c-.23.23-.35.51-.35.82s.12.57.35.8c.23.23.5.35.81.35.28,0,.55-.11.82-.33.23-.23.35-.5.35-.81s-.12-.59-.35-.82Zm3.21,8.42c-.35.33-.77.5-1.24.5s-.86-.17-1.2-.52c-.36-.35-.53-.75-.53-1.2s.17-.87.5-1.23c.34-.35.75-.52,1.23-.52s.88.17,1.23.52c.34.34.52.75.52,1.23s-.17.9-.5,1.21Zm-.42-2.04c-.23-.23-.51-.35-.82-.35s-.59.12-.81.35c-.23.23-.35.51-.35.82s.12.57.35.8c.23.23.5.35.81.35s.57-.11.81-.33c.24-.24.36-.51.36-.81,0-.32-.12-.59-.35-.82Z" style="fill: #5f5e5e;"/>
  </g>
  <rect x="122.62" y="128.82" width="55.37" height=".14" style="fill: #5f5e5e;"/>
  <g>
    <path d="m217.1,126.62l-.47-.36,6.05-9.17h-5.95v-.57h7.01l-6.63,10.11Z" style="fill: #5f5e5e;"/>
    <path d="m225.91,124.58v1.9h-.59v-1.9h-5.12l5.71-8.21v7.65h1.16v.56h-1.16Zm-.59-6.43l-4.1,5.88h4.1v-5.88Z" style="fill: #5f5e5e;"/>
    <path d="m230.74,119.71c-.35.33-.77.5-1.24.5s-.86-.17-1.2-.52c-.35-.35-.53-.75-.53-1.2s.17-.87.5-1.23c.34-.35.75-.52,1.23-.52s.88.17,1.23.52c.34.35.52.76.52,1.23s-.17.9-.5,1.22Zm-2.15,6.77h-.56l5.42-9.97h.56l-5.41,9.97Zm1.73-8.81c-.23-.23-.51-.35-.82-.35s-.59.12-.81.35c-.23.23-.35.51-.35.82s.12.57.35.8c.23.23.5.35.81.35.28,0,.55-.11.82-.33.23-.23.35-.5.35-.81s-.12-.59-.35-.82Zm3.21,8.42c-.35.33-.77.5-1.24.5s-.86-.17-1.2-.52c-.35-.35-.53-.75-.53-1.2s.17-.87.5-1.23c.34-.35.75-.52,1.23-.52s.88.17,1.23.52c.34.34.52.75.52,1.23s-.17.9-.5,1.21Zm-.42-2.04c-.23-.23-.51-.35-.82-.35s-.59.12-.81.35c-.23.23-.35.51-.35.82s.12.57.35.8c.23.23.5.35.81.35s.57-.11.81-.33c.24-.24.36-.51.36-.81,0-.32-.12-.59-.35-.82Z" style="fill: #5f5e5e;"/>
  </g>
  <rect x="182.32" y="128.82" width="55.37" height=".14" style="fill: #5f5e5e;"/>
  <g>
    <path d="m73.92,115.5h-7.91c-.59,0-1.07.48-1.07,1.07v1.18h10.05v-1.18c0-.59-.48-1.07-1.07-1.07Z" style="fill: #e44a12;"/>
    <rect x="64.91" y="118.02" width="3.94" height=".81" style="fill: #e44a12;"/>
    <path d="m71.38,114c0,.58-.47,1.04-1.04,1.04s-1.04-.47-1.04-1.04.47-1.04,1.04-1.04,1.04.47,1.04,1.04Z" style="fill: #e44a12;"/>
    <path d="m74.55,114c0,.58-.47,1.04-1.04,1.04s-1.04-.47-1.04-1.04.47-1.04,1.04-1.04,1.04.47,1.04,1.04Z" style="fill: #e44a12;"/>
    <path d="m72.42,114c0,.28-.22.5-.5.5s-.5-.22-.5-.5.22-.5.5-.5.5.22.5.5Z" style="fill: #e44a12;"/>
    <path d="m69.17,123.89c1.17,2.33.15,4.22-2.28,4.22s-3.46-1.89-2.29-4.22c1.17-2.33,2.19-4.22,2.29-4.22s1.12,1.89,2.28,4.22Z" style="fill: #e44a12;"/>
  </g>
  <path d="m184.09,126.47s-.03.32.67.26c-.03-.58,1.53-2.46,1.53-2.46,0,0,2.96,1.97,5.86-1.22,2.9-3.18.86-5.79,4.84-8.02-9.55,2.05-11.56,4.95-11.4,8.83.99-1.79,3.28-4.31,5.47-5.24-3.63,2.49-5.95,6.13-6.97,7.84Z" style="fill: #e44a12;"/>
  <g>
    <path d="m130.75,122.21h-5.52c-.22,0-.4.18-.4.4v1.5c0,.22.18.4.4.4h.1l.49.85c0,.53.43.97.96.97h2.41c.53,0,.97-.43.97-.97l.49-.85h.1c.22,0,.4-.18.4-.4v-1.5c0-.22-.18-.4-.4-.4Z" style="fill: #8ebfa2;"/>
    <path d="m129.59,126.8c0,.12-.09.21-.21.21h-2.79c-.12,0-.21-.09-.21-.21h0c0-.12.1-.21.21-.21h2.79c.12,0,.21.1.21.21h0Z" style="fill: #8ebfa2;"/>
    <path d="m127.16,127.86c-.07,0-.12-.09-.12-.21h0c0-.12.05-.22.12-.22h1.65c.07,0,.13.1.13.22h0c0,.12-.06.21-.13.21" style="fill: #8ebfa2;"/>
    <path d="m128.94,113.57c0-.53-.43-.95-.95-.95h0c-.53,0-.95.43-.95.95v7.34c0,.53.43.95.95.95h0c.53,0,.95-.42.95-.95v-7.34Z" style="fill: #8ebfa2;"/>
    <path d="m126.7,114.08c0-.49-.29-.89-.64-.89h0c-.35,0-.64.4-.64.89v6.9c0,.49.29.89.64.89h0c.35,0,.64-.4.64-.89v-6.9Z" style="fill: #8ebfa2;"/>
    <path d="m130.65,114.08c0-.49-.29-.89-.64-.89h0c-.35,0-.64.4-.64.89v6.9c0,.49.29.89.64.89h0c.35,0,.64-.4.64-.89v-6.9Z" style="fill: #8ebfa2;"/>
  </g>
</svg>