<?xml version="1.0" encoding="utf-8"?>
<!-- Generator: Adobe Illustrator 27.3.1, SVG Export Plug-In . SVG Version: 6.00 Build 0)  -->
<svg version="1.1" id="Layer_1" xmlns="http://www.w3.org/2000/svg" xmlns:xlink="http://www.w3.org/1999/xlink" x="0px" y="0px"
	 width="300px" height="250.4px" viewBox="0 0 300 250.4" style="enable-background:new 0 0 300 250.4;" xml:space="preserve">
<style type="text/css">
	.st0{fill:#FF0000;}
	.st1{fill:#FFFFFF;}
	.st2{fill:#C98867;}
	.st3{fill:none;}
</style>
<g id="second">
	<path class="st0" d="M155,107c0.1,0.2,0,0.4-0.1,0.4L98,130.5c-0.1,0.1-0.3-0.1-0.3-0.2l0,0c-0.1-0.2,0-0.4,0.1-0.4l56.9-23.1
		C154.8,106.8,154.9,106.9,155,107L155,107L155,107z"/>
</g>
<g id="minute">
	<g>
		<polygon points="160.8,114.2 164,110.3 210.5,148.2 207.4,152.1 		"/>
		<path class="st1" d="M179.5,127.4c-0.3-0.2-0.2-0.8,0.1-1.2l0,0c0.4-0.4,0.9-0.6,1.2-0.4l25.9,21.2c0.3,0.2,0.2,0.8-0.1,1.2l0,0
			c-0.4,0.4-0.9,0.6-1.2,0.4L179.5,127.4L179.5,127.4z"/>
	</g>
</g>
<g id="hour">
	<g>
		<rect x="153.6" y="53.8" width="5" height="46.3"/>
		<path class="st1" d="M157.1,92.3c0,0.4-0.5,0.7-1.1,0.7l0,0c-0.6,0-1.1-0.3-1.1-0.7V57.7c0-0.4,0.5-0.7,1.1-0.7l0,0
			c0.6,0,1.1,0.3,1.1,0.7V92.3z"/>
	</g>
</g>
<g id="center">
	<circle cx="155.9" cy="107.8" r="8.7"/>
</g>
<g id="watch">
	<g>
		<rect x="154.8" y="181.8" class="st2" width="2" height="12.8"/>
		<rect x="154.8" y="20.9" class="st2" width="2" height="12.8"/>
		<g>
			
				<rect x="195" y="171.1" transform="matrix(0.8661 -0.4998 0.4998 0.8661 -62.4931 121.7354)" class="st2" width="2" height="12.8"/>
			<rect x="114.6" y="31.7" transform="matrix(0.866 -0.5 0.5 0.866 -3.5601 62.9042)" class="st2" width="2" height="12.8"/>
		</g>
		<g>
			<rect x="224.5" y="141.6" transform="matrix(0.5 -0.866 0.866 0.5 -15.432 269.2745)" class="st2" width="2" height="12.8"/>
			
				<rect x="85.1" y="61.2" transform="matrix(0.4998 -0.8661 0.8661 0.4998 -15.4578 108.3359)" class="st2" width="2" height="12.8"/>
		</g>
		<rect x="229.9" y="106.8" class="st2" width="12.8" height="2"/>
		<rect x="68.9" y="106.8" class="st2" width="12.8" height="2"/>
		<g>
			
				<rect x="219.1" y="66.6" transform="matrix(0.8661 -0.4998 0.4998 0.8661 -3.6012 121.7654)" class="st2" width="12.8" height="2"/>
			<rect x="79.7" y="147" transform="matrix(0.866 -0.5 0.5 0.866 -62.4758 62.881)" class="st2" width="12.8" height="2"/>
		</g>
		<g>
			<polyline class="st2" points="198.4,32 200.1,33 193.7,44.2 192,43.2 			"/>
			<rect x="109.2" y="176.5" transform="matrix(0.5 -0.866 0.866 0.5 -95.8894 188.8694)" class="st2" width="12.8" height="2"/>
		</g>
		<g>
			<line class="st3" x1="121.8" y1="184.3" x2="125" y2="177"/>
			<line class="st3" x1="186.6" y1="38.6" x2="189.9" y2="31.3"/>
		</g>
		<g>
			<line class="st3" x1="130" y1="187.4" x2="132.4" y2="179.8"/>
			<line class="st3" x1="179.2" y1="35.8" x2="181.7" y2="28.2"/>
		</g>
		<g>
			<g>
				<line class="st3" x1="147.1" y1="24.5" x2="147.9" y2="32.5"/>
				<line class="st3" x1="163.7" y1="183.1" x2="164.6" y2="191"/>
			</g>
			<g>
				<line class="st3" x1="138.4" y1="25.9" x2="140.1" y2="33.7"/>
				<line class="st3" x1="171.6" y1="181.9" x2="173.2" y2="189.7"/>
			</g>
			<g>
				<line class="st3" x1="130" y1="28.2" x2="132.4" y2="35.8"/>
				<line class="st3" x1="179.2" y1="179.8" x2="181.7" y2="187.4"/>
			</g>
			<g>
				<line class="st3" x1="121.8" y1="31.3" x2="125" y2="38.6"/>
				<line class="st3" x1="186.6" y1="177" x2="189.9" y2="184.3"/>
			</g>
			<g>
				<line class="st3" x1="106.6" y1="40.1" x2="111.3" y2="46.5"/>
				<line class="st3" x1="200.3" y1="169.1" x2="205" y2="175.5"/>
			</g>
			<g>
				<line class="st3" x1="99.8" y1="45.6" x2="105.1" y2="51.5"/>
				<line class="st3" x1="206.5" y1="164.1" x2="211.8" y2="170"/>
			</g>
			<g>
				<line class="st3" x1="93.6" y1="51.8" x2="99.5" y2="57.1"/>
				<line class="st3" x1="212.1" y1="158.5" x2="218" y2="163.8"/>
			</g>
			<g>
				<line class="st3" x1="88.1" y1="58.6" x2="94.5" y2="63.3"/>
				<line class="st3" x1="217.1" y1="152.3" x2="223.5" y2="157"/>
			</g>
			<g>
				<line class="st3" x1="79.4" y1="73.8" x2="86.6" y2="77"/>
				<line class="st3" x1="225" y1="138.6" x2="232.3" y2="141.8"/>
			</g>
			<g>
				<line class="st3" x1="76.2" y1="81.9" x2="83.8" y2="84.4"/>
				<line class="st3" x1="227.9" y1="131.2" x2="235.4" y2="133.7"/>
			</g>
			<g>
				<line class="st3" x1="73.9" y1="90.4" x2="81.7" y2="92"/>
				<line class="st3" x1="229.9" y1="123.5" x2="237.7" y2="125.2"/>
			</g>
			<g>
				<line class="st3" x1="72.6" y1="99" x2="80.5" y2="99.9"/>
				<line class="st3" x1="231.1" y1="115.7" x2="239.1" y2="116.5"/>
			</g>
			<g>
				<line class="st3" x1="72.6" y1="116.5" x2="80.5" y2="115.7"/>
				<line class="st3" x1="231.1" y1="99.9" x2="239.1" y2="99"/>
			</g>
			<g>
				<line class="st3" x1="73.9" y1="125.2" x2="81.7" y2="123.5"/>
				<line class="st3" x1="229.9" y1="92" x2="237.7" y2="90.4"/>
			</g>
			<g>
				<line class="st3" x1="76.2" y1="133.7" x2="83.8" y2="131.2"/>
				<line class="st3" x1="227.9" y1="84.4" x2="235.4" y2="81.9"/>
			</g>
			<g>
				<line class="st3" x1="79.4" y1="141.8" x2="86.6" y2="138.6"/>
				<line class="st3" x1="225" y1="77" x2="232.3" y2="73.8"/>
			</g>
			<g>
				<line class="st3" x1="88.1" y1="157" x2="94.5" y2="152.3"/>
				<line class="st3" x1="217.1" y1="63.3" x2="223.5" y2="58.6"/>
			</g>
			<g>
				<line class="st3" x1="93.6" y1="163.8" x2="99.5" y2="158.5"/>
				<line class="st3" x1="212.1" y1="57.1" x2="218" y2="51.8"/>
			</g>
			<g>
				<line class="st3" x1="99.8" y1="170" x2="105.1" y2="164.1"/>
				<line class="st3" x1="206.5" y1="51.5" x2="211.8" y2="45.6"/>
			</g>
			<g>
				<line class="st3" x1="106.6" y1="175.5" x2="111.3" y2="169.1"/>
				<line class="st3" x1="200.4" y1="46.5" x2="205" y2="40.1"/>
			</g>
			<g>
				<line class="st3" x1="121.8" y1="184.3" x2="125" y2="177"/>
				<line class="st3" x1="186.6" y1="38.6" x2="189.9" y2="31.3"/>
			</g>
			<g>
				<line class="st3" x1="130" y1="187.4" x2="132.4" y2="179.8"/>
				<line class="st3" x1="179.2" y1="35.8" x2="181.7" y2="28.2"/>
			</g>
			<g>
				<line class="st3" x1="138.4" y1="189.7" x2="140.1" y2="181.9"/>
				<line class="st3" x1="171.6" y1="33.7" x2="173.2" y2="25.9"/>
			</g>
			<g>
				<line class="st3" x1="147.1" y1="191" x2="147.9" y2="183.1"/>
				<line class="st3" x1="163.7" y1="32.5" x2="164.6" y2="24.5"/>
			</g>
		</g>
	</g>
</g>
</svg>
