<?xml version="1.0" encoding="UTF-8"?>
<svg id="cog1" xmlns="http://www.w3.org/2000/svg" width="300" height="250.45" viewBox="0 0 300 250.45">
  <path d="m73.51,12.57l.26-2.25-3.34-.82c0-.71-.04-1.41-.13-2.11l3.24-1.21-.52-2.21-3.45.38c-.24-.66-.51-1.3-.84-1.92l2.32-1.98h-11.68c.14.06.27.12.4.19,4.8,2.4,6.75,8.25,4.34,13.06-2.4,4.81-8.25,6.75-13.06,4.35-4.81-2.41-6.76-8.26-4.35-13.07,1.05-2.1,2.77-3.65,4.76-4.53h-8.14c-.18.23-.34.47-.5.71l-2.03-.71-1.28-.45-.22.45-.79,1.57,2.89,1.93c-.25.66-.46,1.33-.62,2.01l-3.47.03-.26,2.25,3.35.82c-.01.71.03,1.41.11,2.11l-3.24,1.21.53,2.2,3.41-.37c.23.67.51,1.32.83,1.96l-2.61,2.23,1.25,1.89,3.05-1.52c.45.56.94,1.08,1.46,1.57l-1.68,2.97,1.82,1.35,2.35-2.45c.33.19.66.38,1.01.56.3.15.6.28.9.41l-.56,3.36,2.17.64,1.36-3.1c.71.14,1.42.23,2.14.26l.62,3.34,2.26-.13.22-3.39c.71-.11,1.4-.27,2.09-.49l1.73,2.93,2.07-.9-.95-3.25c.63-.35,1.23-.74,1.8-1.18l2.63,2.17,1.64-1.56-2.01-2.74c.46-.54.89-1.11,1.27-1.72l3.23,1.14,1.02-2.02-2.85-1.9c.25-.67.45-1.36.61-2.04l3.44-.03Z" style="fill: #f7ce68;"/>
</svg>