<?xml version="1.0" encoding="UTF-8"?>
<svg id="cog2" xmlns="http://www.w3.org/2000/svg" width="300" height="250.45" viewBox="0 0 300 250.45">
  <path d="m28.81,58.98l1.82,1.9,1.41-1.04-1.3-2.3c.41-.38.78-.78,1.13-1.21l2.37,1.17.97-1.47-2.02-1.73c.25-.49.46-1,.64-1.52l2.64.29.41-1.7-2.51-.94c.07-.54.1-1.09.09-1.63l2.6-.63-.2-1.74-2.69-.02c-.12-.52-.28-1.04-.48-1.55l2.24-1.49-.78-1.57-2.55.9c-.3-.46-.62-.89-.97-1.29l1.6-2.18-1.27-1.2-2.1,1.73c-.43-.32-.88-.62-1.35-.88l.76-2.61-1.61-.7-1.39,2.35c-.51-.16-1.03-.28-1.56-.36l-.17-2.72-1.75-.1-.5,2.68c-.53.03-1.06.09-1.6.19l-1.09-2.49-1.68.5.45,2.69c-.24.1-.48.21-.72.33-.25.12-.49.26-.72.4l-1.88-1.96-1.41,1.04,1.34,2.36c-.4.37-.77.76-1.11,1.18l-2.42-1.2-.97,1.46,2.05,1.76c-.25.48-.47.98-.64,1.49l-2.67-.3-.41,1.71,2.51.94c-.07.54-.11,1.09-.1,1.64l-2.59.63.2,1.74,2.66.02c.12.53.27,1.06.47,1.58l-2.2,1.47.79,1.57,2.5-.88c.3.47.63.92.99,1.33l-1.56,2.12,1.27,1.21,2.03-1.68c.44.34.91.64,1.39.91l-.74,2.52,1.61.69,1.33-2.27c.53.17,1.07.29,1.62.38l.17,2.62,1.75.1.48-2.58c.55-.03,1.11-.09,1.66-.2l1.05,2.4,1.68-.5-.43-2.6c.23-.1.46-.2.69-.32.27-.13.53-.28.79-.44Zm-12.73-6.58c-1.86-3.72-.36-8.25,3.36-10.11,3.72-1.87,8.25-.36,10.11,3.37,1.86,3.72.36,8.25-3.36,10.11-3.72,1.86-8.25.36-10.11-3.37Z" style="fill: #f7ce68;"/>
</svg>