<?xml version="1.0" encoding="UTF-8"?>
<svg id="cog3" xmlns="http://www.w3.org/2000/svg" width="300" height="250.45" viewBox="0 0 300 250.45">
  <path d="m15.5,24.04l-.62,2.78,2.15.77,1.26-2.5c.77.1,1.54.07,2.28-.09l1.52,2.39,2.07-.98-.88-2.67c.6-.46,1.11-1.02,1.53-1.68l2.78.62.77-2.15-2.54-1.29c.09-.75.04-1.5-.11-2.22l2.45-1.55-.98-2.06-2.76.91c-.44-.57-.98-1.06-1.61-1.46l.64-2.88-2.15-.77-1.32,2.62c-.73-.09-1.45-.05-2.14.09l-1.59-2.51-2.06.98.92,2.78c-.57.44-1.06.97-1.47,1.58l-2.88-.64-.77,2.15,2.58,1.3c-.1.75-.07,1.49.08,2.2l-2.45,1.55.98,2.07,2.7-.89c.45.6,1,1.12,1.65,1.54Zm4.9-8.99c1.89.68,2.87,2.75,2.19,4.64-.68,1.89-2.75,2.87-4.64,2.19-1.89-.68-2.87-2.75-2.19-4.64.67-1.89,2.75-2.87,4.64-2.19Z" style="fill: #f7ce68;"/>
</svg>