<?xml version="1.0" encoding="UTF-8"?>
<svg id="eight" xmlns="http://www.w3.org/2000/svg" width="300" height="250.45" viewBox="0 0 300 250.45">
  <path d="m119.45,72.63c-1.67-1.45-17.5-1.45-19.17,0-1.68,1.47-2.15,7.33.21,10.1,2.57,3.01,16.18,3.01,18.74,0,2.36-2.77,1.9-8.63.21-10.1Z" style="fill: #615c56;"/>
  <polygon points="111.49 81.24 111.63 83.93 107.88 83.93 108.01 81.24 111.49 81.24" style="fill: #ffda96;"/>
  <polygon points="108.51 119.7 106.49 119.7 106.22 120.68 106.22 121.11 108.62 121.11 108.51 119.7" style="fill: #1d836e;"/>
  <polygon points="111.18 119.7 113.2 119.7 113.47 120.68 113.47 121.11 111.07 121.11 111.18 119.7" style="fill: #1d836e;"/>
  <polygon points="106.49 119.7 108.51 119.7 108.75 113.62 106.09 113.62 106.49 119.7" style="fill: #1d836e;"/>
  <polygon points="110.94 113.62 111.18 119.7 113.2 119.7 113.6 113.62 110.94 113.62" style="fill: #1d836e;"/>
  <path d="m111.63,82.14s-.58.54-1.78.54-1.87-.56-1.87-.56c0,0,.37-.31,1.87-.31s1.78.32,1.78.32Z" style="fill: #ebc580;"/>
  <path d="m102.31,71.56c0,.92-.74,1.66-1.66,1.66s-1.66-.74-1.66-1.66.74-1.66,1.66-1.66,1.66.74,1.66,1.66Z" style="fill: #ffda96;"/>
  <path d="m120.71,71.56c0,.92-.74,1.66-1.66,1.66s-1.66-.74-1.66-1.66.74-1.66,1.66-1.66,1.66.74,1.66,1.66Z" style="fill: #ffda96;"/>
  <path d="m109.84,82.31c4.84,0,9.41-3.92,9.41-8.76v-8.69c0-4.84-3.92-8.76-8.76-8.76h-1.29c-4.84,0-8.76,3.92-8.76,8.76v8.69c0,4.84,4.57,8.76,9.41,8.76Z" style="fill: #ffda96;"/>
  <path d="m105.85,70.01c0,.61-.49,1.1-1.1,1.1s-1.1-.49-1.1-1.1v-.48c0-.61.49-1.1,1.1-1.1s1.1.49,1.1,1.1v.48Z" style="fill: #615c56;"/>
  <path d="m116.09,70.01c0,.61-.49,1.1-1.1,1.1s-1.1-.49-1.1-1.1v-.48c0-.61.49-1.1,1.1-1.1s1.1.49,1.1,1.1v.48Z" style="fill: #615c56;"/>
  <path d="m113.09,76.97c-.13-.17-.37-.22-.56-.11h0s0,0,0,0h0s-.15.07-.55.12c-.4.06-1.07.11-2.11.11-1.24,0-1.94-.07-2.31-.14-.19-.03-.29-.06-.33-.08h-.02s0-.01,0-.01h0c-.18-.11-.42-.06-.56.11-.14.19-.11.46.08.6.09.07.24.14.69.22.44.08,1.19.15,2.45.15s2.01-.07,2.45-.15c.44-.08.59-.16.69-.22.19-.14.23-.41.08-.6Zm-.56-.11h0s0,0,0,0Z" style="fill: #e8667f;"/>
  <path d="m103.61,101.89l-.05.52c-.06.61.39,1.15.99,1.21.61.06,1.15-.39,1.21-.99l.05-.52,1.03-10.72-2.14-.84-1.09,11.35Z" style="fill: #ffda96;"/>
  <path d="m114.98,90.54l-2.14.84,1.03,10.72.05.52c.06.61.6,1.05,1.21.99.61-.06,1.05-.6.99-1.21l-.05-.52-1.09-11.35Z" style="fill: #ffda96;"/>
  <polygon points="106.09 113.62 108.75 113.62 108.99 107.41 105.67 107.41 106.09 113.62" style="fill: #ffda96;"/>
  <path d="m113.02,94.93l-.33-.97.65-2.78,1.64-.64-.22-2.24-.04-.46v-.14s-.25-2.45-.25-2.45c-.06-.61-9.2-.61-9.26,0l-.24,2.45v.14s-.01,0-.01,0l-.04.46-.22,2.24,1.64.64.65,2.78-.33.97-1.24,3.62-.21,1.94.05.71.41,6.21h8.33l.41-6.21.05-.71-.21-1.94-1.24-3.62Z" style="fill: #4abca5;"/>
  <polygon points="110.69 107.41 110.94 113.62 113.6 113.62 114.01 107.41 110.69 107.41" style="fill: #ffda96;"/>
  <polygon points="106.91 93.63 106.99 93.96 106.66 94.93 106.18 96.32 113.49 96.32 113.02 94.93 112.69 93.96 112.76 93.63 106.91 93.63" style="fill: #1d836e;"/>
  <path d="m113.2,83.65h-6.73c-.61-.06-1.15.39-1.21.99l-.06.6h9.26l-.06-.6c-.06-.61-.6-1.05-1.21-.99Z" style="fill: #ffda96;"/>
  <path d="m117.37,57.77c-1.71-1.85-4.15-3.01-6.86-3.01h-1.29c-2.71,0-5.15,1.16-6.86,3.01-1.53,1.66-2.47,3.88-2.47,6.32v6.93c1.64-1.26,2.84-4.6,2.92-8.58l1.37,1.39s1.81.7,5.68.7,5.68-.7,5.68-.7l1.37-1.39c.08,3.97,1.28,7.31,2.92,8.58v-6.93c0-2.44-.94-4.66-2.47-6.32Z" style="fill: #615c56;"/>
  <path d="m117.21,60.62c-2.14-.65-4.65-1.03-7.34-1.03-2.69,0-5.2.37-7.34,1.03-.3.09-.47.41-.38.71.09.3.41.47.71.38,2.02-.62,4.43-.98,7.01-.98,2.58,0,4.99.36,7.01.98.3.09.62-.08.71-.38.09-.3-.08-.62-.38-.71Z" style="fill: #d07f95;"/>
</svg>