<?xml version="1.0" encoding="UTF-8"?>
<svg id="five" xmlns="http://www.w3.org/2000/svg" width="300" height="250.45" viewBox="0 0 300 250.45">
  <path d="m185.67,165.22c.78-.81.76-2.1-.04-2.89-.81-.79-2.11-.77-2.9.04l-.6.62c-.96,1-1.91,2-2.86,3.02-.95,1.02-1.89,2.04-2.82,3.12-.23.27-.47.55-.7.84l-.18.22-.12.16c-.05.06-.1.13-.15.2l-.3.42c-.1.14-.17.29-.26.43-.16.29-.24.6-.3.9-.01.08-.05.16-.04.24l.02.24c0,.16.03.31.06.47,0,.08.04.16.07.23l.08.23c.06.15.14.31.21.46.07.15.17.3.25.45l.13.22.1.16c.41.65.82,1.23,1.23,1.81.41.58.83,1.14,1.26,1.7l.9,1.17,3.24-2.51-.87-1.14c-.41-.54-.81-1.08-1.2-1.62-.38-.54-.77-1.08-1.09-1.6l-.04-.06.18-.23c.2-.25.41-.49.62-.75.86-1,1.78-2.01,2.71-3,.93-1,1.87-1.99,2.81-2.97l.59-.61Z" style="fill: #d0e1eb;"/>
  <path d="m182.6,178.04l-.67-.86-3.24,2.51.69.88c.71.9,2.01,1.05,2.88.34.88-.71,1.02-1.99.33-2.87Z" style="fill: #b07d3f;"/>
  <path d="m196.97,162.73c-.28-.33-.64-.6-1.05-.76-.41-.16-.85-.21-1.22-.13-.18.03-.34.1-.47.19-.13.08-.24.19-.32.31-.17.23-.23.5-.24.78,0,.56.18,1.09.14,1.47-.03.39-.15.57.04.78.09.1.19.26.29.42.22.37.42.83.6,1.33.18.5.33,1.03.47,1.58.27,1.1.48,2.25.65,3.42.33,2.35.51,4.75.61,7.17l.05,1.42,4.09-.11-.05-1.48c-.11-2.52-.29-5.03-.65-7.58-.18-1.27-.41-2.55-.73-3.84-.16-.65-.35-1.3-.59-1.96-.24-.66-.53-1.34-.93-2.04-.2-.33-.41-.65-.69-.98Z" style="fill: #d0e1eb;"/>
  <path d="m200.64,181.73l-.02-1.12-4.09.11.02,1.08c.02,1.1.93,1.99,2.06,2.01,1.13.02,2.06-.92,2.04-2.08Z" style="fill: #b07d3f;"/>
  <path d="m195.13,161.73c-1.35-.3-3.43-.66-5.6-.67-2.17,0-4.26.37-5.61.67-.85.19-1.54,1.1-1.54,1.98v14.27h14.28v-14.27c0-.87-.68-1.79-1.54-1.98Z" style="fill: #d0e1eb;"/>
  <polygon points="192.48 159.45 192.7 161.3 189.52 165.69 186.34 161.3 186.56 159.45 192.48 159.45" style="fill: #b07d3f;"/>
  <path d="m190.81,166.31c0,.19-.16.35-.35.35s-.35-.16-.35-.35.16-.35.35-.35.35.16.35.35Z" style="fill: #b0afb4;"/>
  <path d="m179.05,178.39c0,.19-.16.35-.35.35s-.35-.16-.35-.35.16-.35.35-.35.35.16.35.35Z" style="fill: #b0afb4;"/>
  <path d="m200.08,179.69c0,.19-.16.35-.35.35s-.35-.16-.35-.35.16-.35.35-.35.35.16.35.35Z" style="fill: #b0afb4;"/>
  <path d="m189.52,178.04c-.07,0-.12-.05-.12-.12v-12.24c0-.07.05-.12.12-.12s.12.05.12.12v12.24c0,.07-.05.12-.12.12Z" style="fill: #b0afb4;"/>
  <path d="m198.11,195.32l-1.44-14.67v-2.66h-14.28l.07,17.34,5.81.95v-14.05c-.01-.58.46-1.06,1.04-1.06h.49c.58,0,1.1.47,1.16,1.05l1.35,14.06,5.81-.95Z" style="fill: #838c79;"/>
  <polygon points="188.26 197.35 181.9 197.35 181.9 196.29 182.45 195.32 188.26 196.27 188.26 197.35" style="fill: #e1e8e7;"/>
  <polygon points="192.3 197.35 198.65 197.35 198.65 196.29 198.11 195.32 192.3 196.27 192.3 197.35" style="fill: #e1e8e7;"/>
  <path d="m192.51,160.5s-.94.46-2.97.46-2.99-.46-2.99-.46c0,0,1.61-.34,2.99-.34s2.97.34,2.97.34Z" style="fill: #a37136;"/>
  <path d="m181.56,151.26c0,1.04-.84,1.87-1.87,1.87s-1.87-.84-1.87-1.87.84-1.87,1.87-1.87,1.87.84,1.87,1.87Z" style="fill: #b07d3f;"/>
  <path d="m201.26,151.26c0,1.04-.84,1.87-1.87,1.87s-1.87-.84-1.87-1.87.84-1.87,1.87-1.87,1.87.84,1.87,1.87Z" style="fill: #b07d3f;"/>
  <path d="m192.15,135.58h-5.23c-7.13,0-7.23,13.26-7.23,13.26v3.57c0,4.52,3.67,8.19,8.19,8.19h3.32c4.52,0,8.19-3.67,8.19-8.19v-3.56s-.11-13.28-7.23-13.28Z" style="fill: #b07d3f;"/>
  <path d="m185.56,149.22c0,.56-.46,1.02-1.02,1.02s-1.02-.46-1.02-1.02v-.44c0-.56.46-1.02,1.02-1.02s1.02.46,1.02,1.02v.44Z" style="fill: #443425;"/>
  <path d="m195.58,149.22c0,.56-.46,1.02-1.02,1.02s-1.02-.46-1.02-1.02v-.44c0-.56.46-1.02,1.02-1.02s1.02.46,1.02,1.02v.44Z" style="fill: #443425;"/>
  <path d="m189.55,156.3c-2.35,0-3.27-.27-3.31-.28-.21-.06-.33-.28-.27-.49.06-.21.28-.33.49-.27.02,0,.89.25,3.09.25s3.08-.25,3.09-.25c.21-.06.43.06.49.27.06.21-.06.43-.26.49-.04.01-.96.28-3.31.28Z" style="fill: #6f4221;"/>
  <polygon points="186.34 161.3 189.52 165.69 187.46 164.88 185.94 165.45 186.34 161.3" style="fill: #b0afb4;"/>
  <polygon points="192.7 161.3 189.52 165.69 191.59 164.88 193.1 165.45 192.7 161.3" style="fill: #b0afb4;"/>
  <path d="m202.18,143.95c.33-.23.54-.61.54-1.04,0-.55-.34-1.01-.83-1.19.28-.23.46-.58.46-.97,0-.65-.49-1.18-1.12-1.26.18-.22.28-.49.28-.79,0-.69-.55-1.25-1.24-1.27.14-.2.22-.45.22-.72,0-.7-.57-1.27-1.27-1.27-.1,0-.2.02-.3.04.02-.09.04-.19.04-.29,0-.7-.57-1.27-1.27-1.27-.16,0-.31.03-.45.09-.02-.68-.58-1.23-1.27-1.23-.26,0-.51.08-.71.22-.13-.56-.63-.99-1.24-.99-.2,0-.39.05-.55.13-.19-.46-.65-.78-1.17-.78-.27,0-.52.09-.73.23-.23-.35-.62-.58-1.07-.58-.4,0-.75.19-.98.47-.23-.28-.58-.47-.98-.47-.45,0-.84.23-1.07.58-.21-.15-.46-.23-.73-.23-.53,0-.98.32-1.17.78-.17-.08-.35-.13-.55-.13-.6,0-1.11.42-1.24.99-.2-.14-.45-.22-.71-.22-.69,0-1.25.55-1.27,1.23-.14-.05-.29-.09-.45-.09-.7,0-1.27.57-1.27,1.27,0,.1.01.2.04.29-.1-.02-.2-.04-.3-.04-.7,0-1.27.57-1.27,1.27,0,.27.08.52.23.72-.69.02-1.24.58-1.24,1.27,0,.3.11.58.28.79-.63.08-1.12.61-1.12,1.26,0,.39.18.74.46.97-.48.18-.83.64-.83,1.19,0,.43.22.81.54,1.04-.33.23-.54.61-.54,1.04,0,.52.31.96.75,1.16-.24.23-.39.55-.39.91,0,.65.49,1.18,1.13,1.26-.02.08-.03.17-.03.26,0,.7.57,1.27,1.27,1.27.31,0,.5-.11.62-.3.82-.67.11-2.8,1.09-3.76.35-.34.65-.59.89-.77.16.06.33.1.51.1.63,0,1.17-.42,1.34-1,.26.34.66.56,1.12.56.65,0,1.19-.44,1.35-1.04.25.4.69.66,1.19.66s.91-.25,1.16-.63c.23.17.46.48,1.17.48s.93-.3,1.17-.48c.25.38.68.63,1.16.63s.94-.27,1.19-.66c.16.6.71,1.04,1.35,1.04.46,0,.86-.22,1.12-.56.18.58.71,1,1.34,1,.18,0,.36-.04.51-.1.24.18.54.42.89.77.97.96.27,3.09,1.09,3.76.11.19.3.3.62.3.7,0,1.27-.57,1.27-1.27,0-.09,0-.17-.03-.26.63-.07,1.13-.6,1.13-1.26,0-.36-.15-.68-.39-.91.44-.2.75-.64.75-1.16,0-.43-.22-.81-.54-1.04Z" style="fill: #6a4f3e; fill-rule: evenodd;"/>
</svg>