<?xml version="1.0" encoding="UTF-8"?>
<svg id="four" xmlns="http://www.w3.org/2000/svg" width="300" height="250.45" viewBox="0 0 300 250.45">
  <path d="m145.93,148.06c-.98-1.03-1.95-2.07-2.88-3.12-.35-.4-.7-.8-1.03-1.21-.16-.2-.33-.4-.47-.6-.07-.1-.15-.2-.21-.29l-.04-.07h0s.01-.02.01-.02l.08-.13c.06-.1.14-.21.2-.31.29-.42.6-.84.93-1.27,1.3-1.69,2.68-3.36,4.08-5.01l.21-.25c.4-.47.34-1.17-.13-1.58s-1.18-.35-1.58.13l-.21.25c-1.41,1.67-2.8,3.34-4.15,5.1-.34.44-.67.89-.99,1.36-.08.12-.16.24-.24.37l-.06.1s-.03.05-.07.12l-.18.33c-.27.47-.28,1.02-.06,1.5.04.12.13.24.19.35.03.06.07.12.1.17l.07.11c.09.13.18.25.27.37.18.24.35.46.53.68.36.44.72.86,1.08,1.27.96,1.09,1.95,2.14,2.94,3.18.43.45,1.15.47,1.59.03.44-.43.46-1.14.03-1.58Z" style="fill: #ffda96;"/>
  <polygon points="143.58 148.84 145.21 147.31 144.75 146.81 142.72 147.89 144.35 146.38 143.86 145.85 141.84 146.92 143.49 145.44 143.27 145.19 141.6 146.68 142.06 147.2 144.11 146.13 142.46 147.64 142.95 148.17 144.98 147.07 143.35 148.6 143.58 148.84" style="fill: #ea955a;"/>
  <path d="m154.3,149.61c.99-1.04,1.98-2.09,2.94-3.18.37-.41.73-.83,1.08-1.27.18-.22.36-.44.53-.68.09-.12.18-.24.27-.37l.07-.11s.07-.11.1-.17c.06-.12.15-.23.19-.35.22-.48.21-1.03-.06-1.5l-.18-.33c-.04-.07-.05-.08-.07-.12l-.06-.1c-.08-.13-.16-.25-.24-.37-.33-.48-.66-.92-.99-1.36-1.35-1.75-2.74-3.43-4.15-5.1l-.21-.25c-.4-.47-1.11-.53-1.58-.13-.47.4-.52,1.11-.13,1.58l.21.25c1.39,1.65,2.78,3.32,4.08,5.01.32.42.64.85.93,1.27.07.1.14.21.2.31l.08.13v.02s.01,0,.01,0l-.04.07c-.06.09-.14.19-.21.29-.15.2-.31.4-.47.6-.33.4-.68.81-1.03,1.21-.93,1.05-1.9,2.09-2.88,3.12-.42.44-.41,1.15.03,1.58.44.43,1.16.42,1.59-.03Z" style="fill: #ffda96;"/>
  <polygon points="153.39 147.31 155.02 148.84 155.5 148.34 154.27 146.4 155.9 147.9 156.4 147.36 155.13 145.45 156.78 146.94 157.01 146.68 155.34 145.19 154.88 145.69 156.14 147.64 154.49 146.13 154.01 146.65 155.25 148.59 153.62 147.06 153.39 147.31" style="fill: #ea955a;"/>
  <path d="m145.8,133.99c-.37.31-.8,4.79-.8,4.79l1.33,5.67-1.6,4.65h8.97l-1.6-4.65,1.33-5.67s-.43-4.48-.8-4.79c-.37-.31-6.46-.31-6.83,0Z" style="fill: #ffda96;"/>
  <path d="m150.97,131.54l.13,2.47s-.46,1.34-1.89,1.34-1.89-1.34-1.89-1.34l.13-2.47h3.52Z" style="fill: #ffda96;"/>
  <polygon points="145.36 147.25 153.06 147.25 152.1 144.45 153.43 138.78 153.3 137.54 151.99 135.58 151.99 133.86 151.16 133.8 151.16 135.46 147.27 135.46 147.27 133.8 146.43 133.86 146.43 135.58 145.13 137.54 144.99 138.78 146.32 144.45 145.36 147.25" style="fill: #ea955a;"/>
  <polygon points="145.13 169.68 147.18 169.68 147.45 170.68 147.45 171.12 145.02 171.12 145.13 169.68" style="fill: #b9b7b8;"/>
  <polygon points="153.29 169.68 151.25 169.68 150.97 170.68 150.97 171.12 153.41 171.12 153.29 169.68" style="fill: #b9b7b8;"/>
  <path d="m153.23,160.79l.68-9.72-.21-1.97h-8.97l-.21,1.97.68,9.72-.03,3.83h2.61l.46-3.9.38-9.07c.01-.32.28-.58.6-.58h0c.32,0,.59.26.6.58l.38,9.07.46,3.9h2.61l-.03-3.83Z" style="fill: #4c6279;"/>
  <polygon points="145.15 167.64 147.42 167.64 147.77 164.62 145.17 164.62 145.15 167.64" style="fill: #ffda96;"/>
  <polygon points="145.15 167.64 145.13 169.68 147.18 169.68 147.42 167.64 145.15 167.64" style="fill: #d6d0d3;"/>
  <polygon points="153.28 167.64 153.26 164.62 150.65 164.62 151.01 167.64 153.28 167.64" style="fill: #ffda96;"/>
  <polygon points="151.01 167.64 151.25 169.68 153.29 169.68 153.28 167.64 151.01 167.64" style="fill: #d6d0d3;"/>
  <path d="m151.05,132.58s-.59.55-1.8.55-1.89-.57-1.89-.57c0,0,.37-.31,1.89-.31s1.8.33,1.8.33Z" style="fill: #ebc580;"/>
  <path d="m149.2,132.76c4.91,0,9.54-3.98,9.54-8.89v-8.81c0-4.91-3.98-8.89-8.89-8.89h-1.31c-4.91,0-8.89,3.98-8.89,8.89v8.81c0,4.91,4.63,8.89,9.54,8.89Z" style="fill: #ffda96;"/>
  <path d="m141.56,121.85c0,.93-.75,1.69-1.69,1.69s-1.69-.75-1.69-1.69.75-1.69,1.69-1.69,1.69.75,1.69,1.69Z" style="fill: #ffda96;"/>
  <path d="m160.22,121.85c0,.93-.75,1.69-1.69,1.69s-1.69-.75-1.69-1.69.75-1.69,1.69-1.69,1.69.75,1.69,1.69Z" style="fill: #ffda96;"/>
  <path d="m149,104.76c13,0,9.82,15.4,9.82,15.4,0,0-3.75-2.53-3.75-7.99h-.33l-.12,2.8s-2.06.34-5.62.34-5.62-.34-5.62-.34l-.12-2.8h-.33c0,5.46-3.19,8-3.19,8,0,0-3.74-15.42,9.26-15.42Z" style="fill: #6b503f;"/>
  <path d="m159.27,117.69h-1.73,0c-.08,0-.15-.02-.23-.02h-16.21c-.08,0-.15.01-.23.02h0s-1.73,0-1.73,0c-.32,0-.58.24-.58.54s.25.6.56.67l.45.3v1.99c0,.84.68,1.53,1.53,1.53h5.37c.84,0,1.53-.68,1.53-1.53v-1.99s.34-.55,1.21-.55,1.21.55,1.21.55v1.99c0,.84.68,1.53,1.53,1.53h5.37c.84,0,1.53-.68,1.53-1.53v-1.99l.45-.3c.31-.07.56-.37.56-.67s-.26-.54-.58-.54Zm-12,3.49c0,.44-.36.8-.8.8h-5.37c-.44,0-.8-.36-.8-.8v-1.99c0-.44.36-.8.8-.8h5.37c.44,0,.8.36.8.8v1.99Zm10.84,0c0,.44-.36.8-.8.8h-5.37c-.44,0-.8-.36-.8-.8v-1.99c0-.44.36-.8.8-.8h5.37c.44,0,.8.36.8.8v1.99Z" style="fill: #5f5a56;"/>
  <path d="m145.19,121.29c-.24,0-.43-.19-.43-.43v-.48c0-.38-.31-.68-.68-.68s-.68.31-.68.68v.48c0,.24-.19.43-.43.43s-.43-.19-.43-.43v-.48c0-.86.7-1.55,1.55-1.55s1.55.7,1.55,1.55v.48c0,.24-.19.43-.43.43Z" style="fill: #615c56;"/>
  <path d="m155.58,121.29c-.24,0-.43-.19-.43-.43v-.48c0-.38-.31-.68-.68-.68s-.68.31-.68.68v.48c0,.24-.19.43-.43.43s-.43-.19-.43-.43v-.48c0-.86.7-1.55,1.55-1.55s1.55.7,1.55,1.55v.48c0,.24-.19.43-.43.43Z" style="fill: #615c56;"/>
  <path d="m145.88,126.38h6.78c0,1.76-1.62,3.2-3.39,3.2s-3.39-1.43-3.39-3.2Z" style="fill: #fff;"/>
  <path d="m152.66,126.12h-6.78c-.14,0-.25.11-.25.25,0,1.87,1.67,3.45,3.64,3.45s3.64-1.58,3.64-3.45c0-.14-.11-.25-.25-.25Zm-.27.51c-.02.22-.08.43-.15.63h-5.95c-.07-.2-.13-.42-.15-.63h6.24Zm-5.02,2.05h3.79c-.53.39-1.2.63-1.89.63s-1.36-.24-1.89-.63Z" style="fill: #e8667f;"/>
</svg>