<?xml version="1.0" encoding="UTF-8"?>
<svg id="laptop" xmlns="http://www.w3.org/2000/svg" width="300" height="250.45" viewBox="0 0 300 250.45">
  <path d="m294.38,102.19l-26.76-11.13c-.85-.35-1.55-.1-2.16.88l-9.08,13.77c-.35.84.05,1.8.89,2.15l32.49,13.51c.83.35,1.8-.05,2.15-.89l3.36-16.14c.18-1.08-.05-1.8-.89-2.15Zm-13.89-1.32l3.91,1.63-.58,1.9-4.09-1.7.76-1.83Zm-6.27-2.61l4,1.66-.76,1.83-4.18-1.74.94-1.75Zm-6.28-2.61l3.99,1.66-.94,1.75-4.15-1.73c.45-.68.83-1.26,1.1-1.68Zm-1.35,11.63l-4.96-2.06c.4-.59.83-1.25,1.27-1.93l4.76,1.98-1.07,2.01Zm-2.3-6.08c.39-.6.79-1.2,1.16-1.77l4.37,1.82-.99,1.84-4.54-1.89Zm9.6,9.12l-5.01-2.09,1.07-2,4.81,2-.87,2.09Zm-2.77-6.28l.99-1.84,4.4,1.83-.8,1.92-4.59-1.91Zm9.98,9.27l-4.93-2.05.87-2.09,4.72,1.97-.66,2.17Zm1.39-4.55l-4.5-1.87.8-1.91,4.31,1.79-.61,1.99Zm6.06,7.66l-5.17-2.16.67-2.17,4.97,2.07c-.16.8-.32,1.56-.47,2.26Zm.99-4.72l-4.76-1.98.61-2,4.58,1.91c-.14.67-.29,1.36-.43,2.07Zm.94-4.53l-4.37-1.82.59-1.9,4.19,1.74c-.1.5-.24,1.18-.41,1.98Zm9.52-24.29v-4.46l-22.3-9.27c-1.84-.77-3.95.1-4.72,1.94l-5.83,14.03c-.77,1.83.11,3.95,1.94,4.71l25.12,10.45c1.84.76,3.95-.11,4.71-1.94l1.08-2.59v-10.72c-1.44,3.47-4.41,10.59-4.68,11.26-.89-.37-23.29-9.69-24.18-10.06.36-.85,5.09-12.24,5.45-13.09.81.34,19.33,8.05,23.41,9.74Z" style="fill: #f7ce68;"/>
</svg>