<?xml version="1.0" encoding="UTF-8"?>
<svg id="nine" xmlns="http://www.w3.org/2000/svg" width="300" height="250.45" viewBox="0 0 300 250.45">
  <path d="m196.06,82.87c-1.45-.32-3.68-.71-6.01-.71-2.33,0-4.57.39-6.02.72-.92.2-1.65,1.18-1.65,2.12v15.32h15.33v-15.32c0-.94-.73-1.92-1.65-2.12Z" style="fill: #e62d4d;"/>
  <path d="m193.22,80.7l.24,2.06s-.6,2.26-3.41,2.26-3.41-2.26-3.41-2.26l.24-2.06h6.35Z" style="fill: #ebc98a;"/>
  <path d="m182.38,100.31l.07,18.61,6.23,1.02-.02-15.09c0-.63.51-1.13,1.13-1.13h.49c.63,0,1.13.51,1.13,1.13v15.09s6.24-1.02,6.24-1.02l.05-18.61h-15.33Z" style="fill: #405256;"/>
  <polygon points="188.68 121.11 181.86 121.11 181.86 119.97 182.45 118.93 188.68 119.94 188.68 121.11" style="fill: #a58a47;"/>
  <polygon points="191.43 121.11 198.25 121.11 198.25 119.97 197.66 118.93 191.43 119.94 191.43 121.11" style="fill: #a58a47;"/>
  <path d="m193.21,81.55s-1.01.49-3.19.49-3.22-.5-3.22-.5c0,0,1.72-.36,3.22-.36s3.19.37,3.19.37Z" style="fill: #d1af72;"/>
  <path d="m192.83,55.93h-5.61c-7.65,0-7.76,13.1-7.76,13.1v3.84c0,4.86,3.94,8.79,8.79,8.79h3.56c4.85,0,8.79-3.94,8.79-8.79v-3.82s-.11-13.12-7.76-13.12Z" style="fill: #ebc98a;"/>
  <path d="m181.46,71.63c0,1.11-.9,2.01-2.01,2.01s-2.01-.9-2.01-2.01.9-2.01,2.01-2.01,2.01.9,2.01,2.01Z" style="fill: #ebc98a;"/>
  <path d="m202.61,71.63c0,1.11-.9,2.01-2.01,2.01s-2.01-.9-2.01-2.01.9-2.01,2.01-2.01,2.01.9,2.01,2.01Z" style="fill: #ebc98a;"/>
  <path d="m185.76,69.44c0,.61-.49,1.1-1.1,1.1s-1.09-.49-1.09-1.1v-.47c0-.61.49-1.1,1.09-1.1s1.1.49,1.1,1.1v.47Z" style="fill: #324448;"/>
  <path d="m196.52,69.44c0,.61-.49,1.1-1.1,1.1s-1.1-.49-1.1-1.1v-.47c0-.61.49-1.1,1.1-1.1s1.1.49,1.1,1.1v.47Z" style="fill: #324448;"/>
  <path d="m186.49,76.74s1.03.3,3.56.3,3.51-.29,3.56-.3c.22-.07.35-.3.28-.53-.07-.22-.3-.35-.53-.28l.05.16-.05-.16h0s.05.16.05.16l-.05-.16s-.93.27-3.31.27c-1.23,0-2.07-.07-2.6-.14-.26-.03-.45-.07-.56-.09-.06-.01-.1-.02-.12-.03h-.02s0,0,0,0l-.05.16.05-.16h0s-.05.16-.05.16l.05-.16c-.22-.07-.46.06-.53.28-.07.22.06.46.28.53Z" style="fill: #a17650;"/>
  <path d="m206.64,94.03c-.02-.12-.05-.23-.1-.35-.04-.11-.07-.23-.13-.34l-.19-.33-.1-.16-.12-.16-.23-.32c-.14-.2-.35-.45-.41-.53-.73-.88-1.45-1.67-2.18-2.46l-.49-.53s-.25-.27-.64-.67h0s-.2-.21-.2-.21h0c-.47-.5-1.09-1.14-1.72-1.78-1.28-1.32-3.48-3.06-3.48-3.06-.86-.87-.93,5.4.33,6.7,1.27,1.3,4.36,4.06,4.97,4.8l.07.09v.02c-.52.78-1.14,1.6-1.76,2.41-.62.81-1.27,1.62-1.92,2.42l-.65.79c-.76.92-.63,2.3.29,3.08.92.79,2.32.66,3.1-.29l.67-.82c.67-.83,1.34-1.66,1.99-2.51.66-.86,1.3-1.71,1.95-2.69l.09-.14.1-.17.2-.34c.14-.22.24-.46.36-.69.21-.47.26-.94.26-1.43l-.08-.35Z" style="fill: #ebc98a;"/>
  <path d="m183.33,83.2s-1.88,1.67-3.17,2.97c-.63.64-1.25,1.28-1.73,1.78h0s-.2.21-.2.21h0c-.39.41-.64.67-.64.67l-.49.53c-.73.78-1.44,1.56-2.17,2.42l-.14.17-.22.27-.46.62-.19.33c-.06.11-.14.22-.17.33l-.12.34-.08.34c-.09.23-.05.48-.03.72.03.24.06.47.16.71.04.12.09.23.15.35l.16.35c.13.22.25.45.39.67l.26.42.23.35.47.68c.31.45.63.88.94,1.31.63.86,1.27,1.7,1.92,2.53l.65.83c.76.97,2.16,1.13,3.1.36.94-.77,1.1-2.14.36-3.08l-.63-.81c-.63-.81-1.25-1.63-1.85-2.44-.3-.41-.6-.82-.88-1.22l-.41-.61-.2-.3-.16-.24h0s.14-.17.14-.17c.62-.73,3.72-3.48,4.99-4.77,1.28-1.29.9-7.48.04-6.62Z" style="fill: #ebc98a;"/>
  <path d="m190.02,54.75c-6.1,0-10.11,2.4-10.11,2.4-1.51,4.92-.95,12.46-.95,12.46l.95,1.58s-.34-6.62,1.21-9.83c0,0,2.65-.95,8.9-.95s8.9.95,8.9.95c1.55,3.2,1.21,9.83,1.21,9.83l.95-1.58s.57-7.54-.95-12.46c0,0-4.02-2.4-10.11-2.4Z" style="fill: #324448;"/>
</svg>