<?xml version="1.0" encoding="UTF-8"?>
<svg id="one" xmlns="http://www.w3.org/2000/svg" width="300" height="250.45" viewBox="0 0 300 250.45">
  <path d="m38.31,161.22c-.83-.83-2.18-.83-3,0-.82.83-.82,2.17,0,2.99l.43.43c1.06,1.07,2.11,2.14,3.15,3.21,1.03,1.08,2.06,2.17,3.02,3.25.23.27.47.54.68.8l.03.04-.23.35c-.79,1.15-1.72,2.33-2.64,3.49l-1.1,1.36,3.27,2.68,1.13-1.4c.96-1.21,1.9-2.4,2.83-3.74l.17-.26.22-.34c.19-.32.39-.64.54-.98.09-.17.14-.34.2-.5.04-.17.07-.34.09-.51l.02-.26v-.13s0-.09-.01-.13c-.04-.17-.07-.34-.12-.5l-.09-.25c-.03-.08-.05-.17-.11-.24-.09-.16-.18-.32-.28-.47l-.33-.45c-.05-.08-.11-.15-.17-.22l-.15-.18c-.26-.33-.52-.63-.78-.93-1.04-1.18-2.09-2.29-3.15-3.39-1.06-1.1-2.12-2.19-3.2-3.27l-.44-.44Z" style="fill: #52606b;"/>
  <polygon points="38.65 177.14 39.37 176.26 42.66 178.92 41.92 179.83 38.65 177.14" style="fill: #7f8d96;"/>
  <path d="m27.04,164.2c.82-.82.83-2.15.01-2.99-.82-.84-2.16-.84-3-.01l-.44.44c-1.07,1.07-2.13,2.14-3.19,3.24-1.06,1.09-2.11,2.19-3.14,3.36-.26.29-.52.59-.78.91l-.25.31c-.11.14-.22.3-.34.45l-.17.23-.14.23c-.09.16-.2.31-.24.48l-.09.25-.06.25c-.03.17-.1.34-.07.51.02.34.06.68.2,1.02.14.34.3.67.5.99.05.08.09.16.14.24l.12.19.17.26c.89,1.36,1.8,2.57,2.73,3.79l1.1,1.42,3.33-2.61-1.07-1.38c-.89-1.17-1.79-2.37-2.54-3.52l-.17-.27.11-.13c.22-.26.45-.53.69-.8.96-1.08,1.99-2.16,3.02-3.22,1.03-1.07,2.08-2.13,3.14-3.19l.43-.43Z" style="fill: #52606b;"/>
  <polygon points="20.1 179.76 19.38 178.83 22.73 176.25 23.43 177.15 20.1 179.76" style="fill: #7f8d96;"/>
  <path d="m36.87,160.54c-1.39-.31-3.55-.69-5.79-.69-2.24,0-4.4.38-5.8.69-.88.2-1.59,1.14-1.59,2.04v14.75h14.76v-14.75c0-.9-.7-1.85-1.59-2.04Z" style="fill: #52606b;"/>
  <path d="m35.37,160.24c-1.24-.21-2.74-.39-4.28-.39-1.55,0-3.05.18-4.3.39l4.13,5.27h.31l4.13-5.27Z" style="fill: #ffda96;"/>
  <path d="m34.13,158.45l.23,1.64s-1.41,1.7-3.29,1.7-3.29-1.7-3.29-1.7l.23-1.64h6.12Z" style="fill: #ffda96;"/>
  <polygon points="27.31 162.73 25.8 164.54 24.57 162.73 26.08 160.91 27.31 162.73" style="fill: #7f8d96;"/>
  <polygon points="37.58 162.73 36.35 164.54 34.84 162.73 36.08 160.91 37.58 162.73" style="fill: #7f8d96;"/>
  <polygon points="30.83 166.89 29.32 168.7 27.81 166.89 29.05 165.07 30.83 166.89" style="fill: #7f8d96;"/>
  <polygon points="27.31 166.89 25.8 168.7 24.57 166.89 25.8 165.07 27.31 166.89" style="fill: #7f8d96;"/>
  <polygon points="34.34 166.89 32.83 168.7 31.33 166.89 33.11 165.07 34.34 166.89" style="fill: #7f8d96;"/>
  <polygon points="37.58 166.89 36.35 168.7 34.84 166.89 36.35 165.07 37.58 166.89" style="fill: #7f8d96;"/>
  <polygon points="30.83 171.05 29.32 172.86 27.81 171.05 29.32 169.24 30.83 171.05" style="fill: #7f8d96;"/>
  <polygon points="27.31 171.05 25.8 172.86 24.57 171.05 25.8 169.24 27.31 171.05" style="fill: #7f8d96;"/>
  <polygon points="34.34 171.05 32.83 172.86 31.33 171.05 32.83 169.24 34.34 171.05" style="fill: #7f8d96;"/>
  <polygon points="37.58 171.05 36.35 172.86 34.84 171.05 36.35 169.24 37.58 171.05" style="fill: #7f8d96;"/>
  <polygon points="30.83 175.21 29.32 177.02 27.81 175.21 29.32 173.4 30.83 175.21" style="fill: #7f8d96;"/>
  <polygon points="27.31 175.21 25.8 177.02 24.57 175.21 25.8 173.4 27.31 175.21" style="fill: #7f8d96;"/>
  <polygon points="34.34 175.21 32.83 177.02 31.33 175.21 32.83 173.4 34.34 175.21" style="fill: #7f8d96;"/>
  <polygon points="37.58 175.21 36.35 177.02 34.84 175.21 36.35 173.4 37.58 175.21" style="fill: #7f8d96;"/>
  <path d="m39.68,195.25l-1.22-17.92h-14.76l-1.02,17.92,6,.98.91-14.53c.04-.6.56-1.09,1.16-1.09h.84c.6,0,1.12.49,1.16,1.09l.93,14.53,6-.98Z" style="fill: #8e6c59;"/>
  <path d="m41.72,180.08l.2-.25-3.27-2.68-.2.24c-.73.89-.61,2.21.28,2.97.89.76,2.24.63,2.99-.28Z" style="fill: #ffda96;"/>
  <path d="m23.62,177.39l-.19-.25-3.33,2.61.2.25c.73.93,2.07,1.08,2.98.35.91-.74,1.06-2.06.35-2.96Z" style="fill: #ffda96;"/>
  <polygon points="28.68 197.35 22.11 197.35 22.11 196.26 22.67 195.25 28.68 196.23 28.68 197.35" style="fill: #b9b7b8;"/>
  <polygon points="33.68 197.35 40.24 197.35 40.24 196.26 39.68 195.25 33.68 196.23 33.68 197.35" style="fill: #b9b7b8;"/>
  <path d="m34.13,159.26s-.98.47-3.07.47-3.1-.48-3.1-.48c0,0,1.66-.35,3.1-.35s3.07.35,3.07.35Z" style="fill: #ebc580;"/>
  <path d="m22.82,149.71c0,1.07-.87,1.94-1.94,1.94s-1.94-.87-1.94-1.94.87-1.94,1.94-1.94,1.94.87,1.94,1.94Z" style="fill: #ffda96;"/>
  <path d="m43.17,149.71c0,1.07-.87,1.94-1.94,1.94s-1.94-.87-1.94-1.94.87-1.94,1.94-1.94,1.94.87,1.94,1.94Z" style="fill: #ffda96;"/>
  <rect x="20.89" y="133.5" width="20.36" height="25.87" rx="8.46" ry="8.46" style="fill: #ffda96;"/>
  <path d="m45.85,134.84l-7-.55,3.3-.64c-2.28-1-5.97-2.64-11.03-2.64-6.06,0-10.89,3.02-11.07,4.2-1.43,9.43.85,14.58.85,14.58l.7-1.36v-7.61c0-.45.36-.78.8-.73,6.65.68,10.63.69,17.37,0,.44-.04.8.28.8.73v7.61l.7,1.36s1.72-3.76,1.23-11.07c.28-.15,2.34-1.35,3.35-3.87Z" style="fill: #ea955a;"/>
  <path d="m26.95,148.28c-.23,0-.41-.18-.41-.41v-.46c0-.36-.29-.65-.65-.65s-.64.29-.64.65v.46c0,.23-.18.41-.41.41s-.41-.18-.41-.41v-.46c0-.81.66-1.46,1.46-1.46s1.46.66,1.46,1.46v.46c0,.23-.18.41-.41.41Z" style="fill: #615c56;"/>
  <path d="m37.31,148.28c-.23,0-.41-.18-.41-.41v-.46c0-.36-.29-.65-.65-.65s-.65.29-.65.65v.46c0,.23-.18.41-.41.41s-.41-.18-.41-.41v-.46c0-.81.66-1.46,1.46-1.46s1.46.66,1.46,1.46v.46c0,.23-.18.41-.41.41Z" style="fill: #615c56;"/>
  <path d="m31.08,155.2c-3,0-4.11-1.17-4.15-1.23-.15-.17-.14-.43.03-.58.17-.15.42-.14.58.02.02.02.97.96,3.55.96s3.54-.95,3.55-.96c.16-.16.41-.17.58-.02.16.15.17.41.02.57-.05.05-1.16,1.22-4.15,1.22Z" style="fill: #a17650;"/>
</svg>