<?xml version="1.0" encoding="UTF-8"?>
<svg id="seven" xmlns="http://www.w3.org/2000/svg" width="300" height="250.45" viewBox="0 0 300 250.45">
  <path d="m264.99,163.4c.82-.85.8-2.22-.05-3.05-.85-.84-2.23-.82-3.06.05l-.63.66c-1.01,1.05-2.02,2.11-3.02,3.19-1,1.08-1.99,2.16-2.98,3.3-.25.29-.49.58-.74.88l-.19.23-.13.17c-.05.07-.11.14-.16.21l-.32.44c-.1.15-.18.3-.27.46-.17.31-.25.63-.32.96-.01.08-.05.16-.05.25l.02.25c0,.17.03.33.06.5,0,.08.04.17.07.25l.09.25c.07.16.15.32.22.48.08.16.18.32.26.47l.13.23.11.17c.43.69.87,1.3,1.3,1.92.44.61.88,1.2,1.33,1.79l.95,1.24,3.42-2.65-.92-1.2c-.43-.57-.86-1.14-1.26-1.71-.41-.57-.81-1.14-1.15-1.69l-.04-.06.19-.24c.21-.26.43-.52.66-.79.91-1.06,1.88-2.12,2.86-3.17.98-1.05,1.97-2.1,2.97-3.14l.63-.65Z" style="fill: #c5bbaf;"/>
  <path d="m261.75,176.95l-.71-.91-3.42,2.65.72.93c.75.95,2.12,1.11,3.05.36.93-.75,1.08-2.1.35-3.03Z" style="fill: #ffda96;"/>
  <polygon points="257.07 177.97 256.9 177.75 260.34 175.13 260.51 175.35 257.07 177.97" style="fill: #9f978c;"/>
  <path d="m276.94,160.77c-.3-.34-.67-.63-1.11-.8-.44-.17-.9-.22-1.29-.14-.19.04-.36.11-.5.2-.14.09-.25.2-.34.32-.18.25-.25.53-.25.83,0,.6.19,1.15.15,1.56-.03.41-.16.6.05.83.1.11.2.27.31.44.23.39.45.88.63,1.4.19.53.35,1.09.5,1.67.29,1.16.51,2.38.68,3.62.35,2.48.54,5.02.65,7.57l.05,1.5,4.32-.12-.05-1.56c-.11-2.66-.31-5.32-.69-8-.19-1.34-.43-2.69-.77-4.06-.17-.68-.37-1.38-.62-2.08-.25-.7-.56-1.42-.98-2.15-.21-.34-.43-.69-.73-1.04Z" style="fill: #c5bbaf;"/>
  <path d="m280.81,180.85l-.03-1.19-4.32.12.03,1.14c.02,1.17.98,2.11,2.17,2.13,1.2.02,2.17-.98,2.15-2.2Z" style="fill: #ffda96;"/>
  <polygon points="276.43 178.9 276.42 178.63 280.74 178.46 280.75 178.75 276.43 178.9" style="fill: #9f978c;"/>
  <path d="m274.99,159.72c-1.43-.32-3.63-.7-5.91-.7-2.29,0-4.5.39-5.93.7-.9.2-1.62,1.16-1.62,2.09v15.08h15.09v-15.08c0-.92-.72-1.89-1.62-2.09Z" style="fill: #c5bbaf;"/>
  <path d="m265.07,159.52c1.27,2.91,1.84,3.94,2.2,3.94.47,0,1.43-1.18,1.79-1.65.36.47,1.33,1.65,1.79,1.65.35,0,.94-1.07,2.2-3.94.02-.05.04-.1.06-.15-.09-.01-.18-.03-.26-.04-.01.03-.02.05-.04.09-1.07,2.45-1.73,3.72-1.96,3.79-.29,0-1.16-.98-1.69-1.68l-.1-.14-.1.14c-.53.7-1.4,1.68-1.68,1.68-.24-.07-.9-1.34-1.97-3.79-.01-.03-.03-.06-.04-.09-.09.01-.18.03-.26.04.02.05.04.09.07.15Z" style="fill: #9f978c;"/>
  <polygon points="272.19 157.31 272.42 159.26 269.06 161.39 265.71 159.26 265.94 157.31 272.19 157.31" style="fill: #ffda96;"/>
  <polygon points="267.72 167.25 268.62 164.62 267.9 163.89 269.06 162.29 270.23 163.89 269.5 164.62 270.41 167.25 269.06 169.47 267.72 167.25" style="fill: #685848;"/>
  <path d="m276.61,168.76c-.45-1.06-1.42-3.89-1.8-9.08-.38-.08-.81-.17-1.28-.25-.65,1.66-2.55,6.41-4.46,9.57-1.91-3.16-3.81-7.9-4.46-9.57-.47.08-.9.17-1.28.25-.38,5.18-1.35,8.02-1.8,9.08v8.13h6.78l.76-1.08.76,1.08h6.78v-8.13Z" style="fill: #dc814c;"/>
  <path d="m270.33,170.32c0,.2-.17.37-.37.37s-.37-.17-.37-.37.17-.37.37-.37.37.17.37.37Z" style="fill: #b05d2b;"/>
  <path d="m270.33,172.09c0,.2-.17.37-.37.37s-.37-.17-.37-.37.17-.37.37-.37.37.17.37.37Z" style="fill: #b05d2b;"/>
  <path d="m270.33,173.87c0,.21-.17.37-.37.37s-.37-.17-.37-.37.17-.37.37-.37.37.17.37.37Z" style="fill: #b05d2b;"/>
  <path d="m269.06,175.55c-.07,0-.13-.06-.13-.13v-5.94c0-.07.06-.13.13-.13s.13.06.13.13v5.94c0,.07-.06.13-.13.13Z" style="fill: #b05d2b;"/>
  <path d="m278.13,195.21l-1.53-15.5v-2.81h-15.09l.07,18.32,6.13,1v-14.85c-.01-.62.48-1.12,1.1-1.12h.52c.62,0,1.16.5,1.22,1.11l1.43,14.85,6.13-1Z" style="fill: #8e815f;"/>
  <polygon points="267.73 197.35 261.02 197.35 261.02 196.23 261.59 195.21 267.73 196.21 267.73 197.35" style="fill: #d6ab43;"/>
  <polygon points="272 197.35 278.71 197.35 278.71 196.23 278.13 195.21 272 196.21 272 197.35" style="fill: #d6ab43;"/>
  <path d="m272.22,158.42s-1,.48-3.14.48-3.16-.49-3.16-.49c0,0,1.7-.36,3.16-.36s3.14.36,3.14.36Z" style="fill: #ebc580;"/>
  <path d="m271.84,132.09h-5.52c-7.53,0-7.64,14.01-7.64,14.01v3.78c0,4.78,3.87,8.65,8.65,8.65h3.5c4.78,0,8.65-3.87,8.65-8.65v-3.76s-.11-14.03-7.64-14.03Z" style="fill: #ffda96;"/>
  <path d="m260.65,148.65c0,1.09-.89,1.98-1.98,1.98s-1.98-.89-1.98-1.98.89-1.98,1.98-1.98,1.98.89,1.98,1.98Z" style="fill: #ffda96;"/>
  <path d="m281.46,148.65c0,1.09-.89,1.98-1.98,1.98s-1.98-.89-1.98-1.98.89-1.98,1.98-1.98,1.98.89,1.98,1.98Z" style="fill: #ffda96;"/>
  <path d="m268.61,131c3.67,0,7.73,1.3,9.79,3.36,2.06,2.06,1.51,12.52,1.51,12.52,0,0-.75,1.06-1.35.87-.6-.19-.12-1.33-.12-1.33,0,0-.31.26-.57,0-.44-.44.21-1.65.25-3.5.02-.93-.59-1.24-1.42-2.83-.71-1.36-2.25-2.22-2.25-2.22,0,0,.34,2.16-1.99,2.73-2.86.7-5.81-3.56-5.81-3.56,0,0-.87.87-1.65.74-.78-.12-.49-1.15-.49-1.15,0,0-3.73,2.07-4.74,6.28-.44,1.8.95,3.07.51,3.5-.26.26-.57,0-.57,0,0,0,.48,1.13-.12,1.33-.6.19-1.35-.87-1.35-.87,0,0-.55-10.46,1.51-12.52,2.06-2.06,6.13-3.36,9.79-3.36h-.93Z" style="fill: #dc814c;"/>
  <path d="m264.88,146.5c0,.6-.48,1.08-1.08,1.08s-1.08-.48-1.08-1.08v-.47c0-.6.48-1.08,1.08-1.08s1.08.48,1.08,1.08v.47Z" style="fill: #615c56;"/>
  <path d="m275.47,146.5c0,.6-.48,1.08-1.08,1.08s-1.08-.48-1.08-1.08v-.47c0-.6.48-1.08,1.08-1.08s1.08.48,1.08,1.08v.47Z" style="fill: #615c56;"/>
  <path d="m269.09,153.99c-2.48,0-3.46-.28-3.5-.3-.22-.07-.35-.3-.28-.52.07-.22.3-.35.52-.28.02,0,.94.26,3.26.26s3.25-.26,3.26-.26c.22-.06.45.06.52.28.07.22-.06.45-.28.52-.04.01-1.02.3-3.5.3Z" style="fill: #a17650;"/>
</svg>