<?xml version="1.0" encoding="UTF-8"?>
<svg id="six" xmlns="http://www.w3.org/2000/svg" width="300" height="250.45" viewBox="0 0 300 250.45">
  <path d="m232.4,135.56c-.06-.61-.6-1.05-1.2-.99-.61.06-1.05.6-.99,1.2l.35,3.65,2.2-.21-.35-3.65Z" style="fill: #e9e9e9;"/>
  <path d="m234.11,153.3l-.05-.52-1.3-13.57-2.2.21,1.3,13.57.05.52c.06.61.6,1.05,1.2.99.61-.06,1.05-.6.99-1.2Z" style="fill: #ffda96;"/>
  <rect x="230.5" y="138.72" width="2.21" height=".14" transform="translate(-12.28 22.93) rotate(-5.52)" style="fill: #a4a4a4;"/>
  <path d="m224.54,134.56c-.37.31-.79,4.72-.79,4.72l1.31,5.58-1.57,4.58h8.83l-1.57-4.58,1.31-5.58s-.43-4.41-.79-4.72c-.37-.31-6.36-.31-6.72,0Z" style="fill: #e9e9e9;"/>
  <path d="m229.55,132.15l.13,2.44s-.46,1.32-1.87,1.32-1.86-1.32-1.86-1.32l.13-2.44h3.47Z" style="fill: #ffda96;"/>
  <path d="m225.9,135.72c.49.51,1.2.82,1.91.82s1.42-.31,1.91-.82c.37-.39.57-.85.58-1.32-.05,0-.09,0-.14,0,0,.44-.2.87-.54,1.23-.46.48-1.13.77-1.81.77s-1.35-.29-1.81-.77c-.34-.36-.53-.79-.54-1.22-.05,0-.1,0-.14.01.01.47.21.93.58,1.31Z" style="fill: #a4a4a4;"/>
  <polygon points="226.48 169.71 224.46 169.71 224.19 170.69 224.19 171.12 226.59 171.12 226.48 169.71" style="fill: #473543;"/>
  <polygon points="231.28 169.71 233.3 169.71 233.57 170.69 233.57 171.12 231.17 171.12 231.28 169.71" style="fill: #473543;"/>
  <path d="m232.32,149.44h-8.83l-.21,1.94,1.18,18.33h2.02l.83-17.76c.01-.31.28-.57.6-.57h0c.31,0,.61.25.66.56l2.72,17.76h2.01l-.77-18.33-.21-1.94Z" style="fill: #a9635b;"/>
  <path d="m227.87,104.76c10.14,0,12.11,10.92,9.93,16.18-2.6,6.26-.32,9.7-.32,9.7-3.14,2.4-16.08,2.4-19.22,0,0,0,2.28-3.44-.32-9.7-2.18-5.26-.21-16.18,9.93-16.18Z" style="fill: #aa7762;"/>
  <path d="m229.69,133.04s-.58.54-1.78.54-1.86-.56-1.86-.56c0,0,.37-.3,1.86-.3s1.78.32,1.78.32Z" style="fill: #ebc580;"/>
  <path d="m227.91,133.22c4.83,0,9.4-3.92,9.4-8.75v-8.68c0-4.83-3.92-8.75-8.75-8.75h-1.29c-4.83,0-8.75,3.92-8.75,8.75v8.68c0,4.83,4.56,8.75,9.4,8.75Z" style="fill: #ffda96;"/>
  <path d="m220.39,122.48c0,.92-.74,1.66-1.66,1.66s-1.66-.74-1.66-1.66.74-1.66,1.66-1.66,1.66.74,1.66,1.66Z" style="fill: #ffda96;"/>
  <path d="m238.76,122.48c0,.92-.74,1.66-1.66,1.66s-1.66-.74-1.66-1.66.74-1.66,1.66-1.66,1.66.74,1.66,1.66Z" style="fill: #ffda96;"/>
  <path d="m218.47,119.17s.57-4.58,5.34-9.07c0,0,5.17,9.55,13.68,9.07,0,0,2.37-12.82-9.62-12.82s-9.4,12.82-9.4,12.82Z" style="fill: #aa7762;"/>
  <path d="m223.91,120.93c0,.61-.49,1.1-1.1,1.1s-1.1-.49-1.1-1.1v-.48c0-.61.49-1.1,1.1-1.1s1.1.49,1.1,1.1v.48Z" style="fill: #615c56;"/>
  <path d="m234.15,120.93c0,.61-.49,1.1-1.1,1.1s-1.1-.49-1.1-1.1v-.48c0-.61.49-1.1,1.1-1.1s1.1.49,1.1,1.1v.48Z" style="fill: #615c56;"/>
  <path d="m231.21,127.65c-.13-.18-.38-.22-.57-.11h0s-.15.07-.57.12c-.41.06-1.09.11-2.16.11-1.27,0-1.98-.07-2.36-.14-.19-.03-.3-.06-.34-.08h-.02s0-.01,0-.01h0c-.19-.11-.43-.07-.57.11-.15.19-.11.47.09.61h0c.1.07.25.15.7.23.45.08,1.21.15,2.51.15s2.06-.07,2.51-.15c.45-.08.61-.16.7-.23.19-.15.23-.42.09-.61Zm-.57-.11h0s0,0,0,0Z" style="fill: #e8667f;"/>
  <path d="m225.48,136.37c.39-.46.33-1.16-.13-1.55-.46-.4-1.16-.34-1.56.13-.79.94-1.58,1.88-2.36,2.84l1.71,1.39c.77-.94,1.54-1.88,2.33-2.81Z" style="fill: #e9e9e9;"/>
  <path d="m224.03,148.48l-.32-.41c-.63-.83-1.26-1.66-1.87-2.5-.3-.42-.6-.84-.89-1.26-.28-.41-.57-.86-.77-1.23h0s0,0,0,0c.05-.09.12-.19.18-.29.27-.4.57-.81.88-1.22.31-.41.63-.82.95-1.22l.94-1.17-1.71-1.39-.96,1.19c-.33.42-.66.84-.98,1.26-.32.43-.64.86-.96,1.33-.08.12-.16.24-.24.38-.12.21-.26.46-.32.7-.17.49.02,1.01.26,1.46.3.55.59.98.9,1.44.3.45.61.88.92,1.31.62.86,1.26,1.71,1.9,2.55l.32.42c.38.49,1.07.57,1.55.2.48-.38.57-1.07.2-1.55Z" style="fill: #ffda96;"/>
  <rect x="222.56" y="136.96" width=".14" height="2.21" transform="translate(-25.17 223.05) rotate(-50.74)" style="fill: #a4a4a4;"/>
</svg>