<?xml version="1.0" encoding="UTF-8"?>
<svg id="three" xmlns="http://www.w3.org/2000/svg" width="300" height="250.45" viewBox="0 0 300 250.45">
  <path d="m117.58,161.04c-.29-.34-.67-.63-1.11-.8-.43-.17-.89-.22-1.28-.13-.19.04-.36.11-.5.2-.14.09-.25.2-.34.32-.18.25-.24.53-.25.82,0,.59.18,1.14.15,1.55-.03.4-.16.6.05.82l.03.03s.04.05.08.1c.07.09.17.23.28.45.24.41.52,1.11.75,1.86.23.76.42,1.56.55,2.18.13.61.2,1.03.2,1.03l4.23-.74s-.08-.46-.22-1.16c-.14-.7-.36-1.63-.65-2.58-.29-.95-.68-1.92-1.1-2.67-.2-.37-.42-.69-.58-.92-.08-.11-.16-.2-.2-.26-.05-.06-.07-.09-.07-.09Z" style="fill: #e9e9e9;"/>
  <path d="m121.43,180.97l-.02-1.04c-.1-3.49-.32-6.97-.87-10.5l-.12-.72-4.23.74.11.65c.51,3.23.72,6.59.82,9.94l.02,1c.02,1.16.97,2.09,2.16,2.11,1.19.02,2.16-.97,2.14-2.18Z" style="fill: #ffda96;"/>
  <polygon points="116.03 168.63 115.98 168.38 120.18 167.5 120.24 167.79 116.03 168.63" style="fill: #a4a4a4;"/>
  <path d="m105.25,163.82c.2-.22.08-.42.05-.82-.03-.41.15-.95.15-1.55,0-.3-.07-.58-.25-.82-.09-.13-.2-.23-.34-.32-.14-.09-.31-.17-.5-.2-.39-.09-.84-.04-1.28.13-.44.17-.81.46-1.11.8,0,0-.03.03-.07.09-.05.06-.13.15-.2.26-.16.22-.38.54-.58.92-.42.75-.81,1.72-1.1,2.67-.29.95-.51,1.88-.65,2.58-.14.7-.22,1.16-.22,1.16l4.23.74s.07-.42.2-1.03c.12-.61.31-1.42.55-2.18.23-.75.52-1.45.75-1.86.12-.22.22-.35.28-.45.03-.05.06-.07.08-.1l.03-.03Z" style="fill: #e9e9e9;"/>
  <path d="m102.42,181.04l.02-1c.09-3.35.31-6.71.82-9.94l.11-.65-4.23-.74-.12.72c-.55,3.53-.77,7.02-.87,10.5l-.02,1.04c-.02,1.21.95,2.2,2.14,2.18,1.18-.02,2.14-.95,2.16-2.11Z" style="fill: #ffda96;"/>
  <polygon points="99.31 167.79 99.37 167.5 103.57 168.38 103.52 168.63 99.31 167.79" style="fill: #a4a4a4;"/>
  <path d="m115.72,160c-1.41-.32-3.6-.7-5.87-.7-2.28,0-4.47.38-5.88.7-.9.2-1.61,1.15-1.61,2.07v14.97h14.98v-14.97c0-.92-.71-1.87-1.61-2.07Z" style="fill: #e9e9e9;"/>
  <path d="m112.94,157.88l.23,2.01s-.58,2.2-3.33,2.2-3.33-2.2-3.33-2.2l.23-2.01h6.21Z" style="fill: #ffda96;"/>
  <path d="m109.84,162.79c2.6,0,3.76-1.78,4-2.72l.03-.13-.03-.3c-.09-.01-.19-.03-.28-.04l.04.33-.02.08c-.23.87-1.31,2.51-3.74,2.51s-3.51-1.65-3.74-2.51l-.02-.08.04-.33c-.1.01-.19.03-.28.04l-.03.3.03.13c.25.94,1.4,2.72,4,2.72Z" style="fill: #a4a4a4;"/>
  <path d="m102.35,177.04l.07,18.18,6.09.99-.02-14.74c0-.61.5-1.11,1.11-1.11h.47c.61,0,1.11.5,1.11,1.11v14.74s6.09-.99,6.09-.99l.05-18.18h-14.98Z" style="fill: #79b1d4;"/>
  <polygon points="108.51 197.35 101.85 197.35 101.85 196.24 102.42 195.22 108.51 196.22 108.51 197.35" style="fill: #473543;"/>
  <polygon points="111.19 197.35 117.85 197.35 117.85 196.24 117.28 195.22 111.19 196.22 111.19 197.35" style="fill: #473543;"/>
  <path d="m112.97,158.7s-.99.48-3.12.48-3.14-.49-3.14-.49c0,0,1.68-.35,3.14-.35s3.12.36,3.12.36Z" style="fill: #ebc580;"/>
  <path d="m112.59,132.57h-5.48c-7.48,0-7.59,13.91-7.59,13.91v3.75c0,4.74,3.85,8.59,8.59,8.59h3.48c4.74,0,8.59-3.84,8.59-8.59v-3.73s-.11-13.92-7.59-13.92Z" style="fill: #ffda96;"/>
  <path d="m101.49,149.01c0,1.09-.88,1.97-1.97,1.97s-1.97-.88-1.97-1.97.88-1.97,1.97-1.97,1.97.88,1.97,1.97Z" style="fill: #ffda96;"/>
  <path d="m122.14,149.01c0,1.09-.88,1.97-1.97,1.97s-1.97-.88-1.97-1.97.88-1.97,1.97-1.97,1.97.88,1.97,1.97Z" style="fill: #ffda96;"/>
  <path d="m120.18,147.05s1.54-8.16-1.4-13c-.49-.81-3.35-3.05-9.1-3.05-5.75,0-8.2,2.31-8.76,3.05-2.91,3.84-1.4,13-1.4,13,0,0,2.84-2.44,6.46-4.36l-.69,1.36s8.02.17,11.64-5.06c1,6.17,3.24,8.05,3.24,8.05Z" style="fill: #8e6c59;"/>
  <path d="m105.68,146.87c0,.59-.48,1.07-1.07,1.07s-1.07-.48-1.07-1.07v-.46c0-.59.48-1.07,1.07-1.07s1.07.48,1.07,1.07v.46Z" style="fill: #8e6c59;"/>
  <path d="m116.19,146.87c0,.59-.48,1.07-1.07,1.07s-1.07-.48-1.07-1.07v-.46c0-.59.48-1.07,1.07-1.07s1.07.48,1.07,1.07v.46Z" style="fill: #8e6c59;"/>
  <path d="m109.87,154.3c-2.47,0-3.43-.28-3.47-.29-.22-.07-.34-.3-.28-.52.07-.22.3-.34.52-.28.02,0,.93.26,3.24.26s3.23-.26,3.24-.26c.22-.06.45.06.51.28.06.22-.06.45-.28.51-.04.01-1.01.29-3.47.29Z" style="fill: #a17650;"/>
</svg>