<?xml version="1.0" encoding="UTF-8"?>
<svg id="two" xmlns="http://www.w3.org/2000/svg" width="300" height="250.45" viewBox="0 0 300 250.45">
  <path d="m68.11,134.82c.06-.61-.39-1.15-1-1.21-.61-.06-1.15.39-1.21,1l-.29,3.06v.14s-.01,0-.01,0l-.04.46-1.31,13.61-.05.52c-.06.61.39,1.15,1,1.21.61.06,1.15-.39,1.21-1l.05-.52,1.31-13.61.04-.46v-.14s.31-3.06.31-3.06Z" style="fill: #c0935c;"/>
  <path d="m76.72,151.87l-1.31-13.61-.04-.46v-.14h-.01l-.29-3.06c-.06-.61-.6-1.05-1.21-1-.61.06-1.05.6-1,1.21l.29,3.06v.14s.06.46.06.46l1.31,13.61.05.52c.06.61.6,1.05,1.21,1,.61-.06,1.05-.6,1-1.21l-.05-.52Z" style="fill: #c0935c;"/>
  <polygon points="73.34 143.93 74.65 138.34 73.86 133.61 67.11 133.61 66.32 138.34 67.63 143.93 67.3 144.91 73.67 144.91 73.34 143.93" style="fill: #181511;"/>
  <polygon points="72.14 131.19 72.28 133.6 68.53 133.6 68.66 131.19 72.14 131.19" style="fill: #c0935c;"/>
  <polygon points="69.15 169.7 67.13 169.7 66.86 170.69 66.86 171.12 69.26 171.12 69.15 169.7" style="fill: #181511;"/>
  <polygon points="71.83 169.7 73.85 169.7 74.12 170.69 74.12 171.12 71.72 171.12 71.83 169.7" style="fill: #181511;"/>
  <polygon points="67.13 169.7 69.15 169.7 69.88 151.19 65.9 151.19 67.13 169.7" style="fill: #c0935c;"/>
  <path d="m74.91,148.53l-1.24-3.62h-6.37l-1.24,3.62-.21,1.95.05.71h3.98v-.14c.02-.32.29-.57.6-.57h0c.32,0,.58.26.6.57v.14h3.99l.05-.71-.21-1.95Z" style="fill: #4db697;"/>
  <polygon points="71.09 151.19 71.83 169.7 73.85 169.7 75.07 151.19 71.09 151.19" style="fill: #c0935c;"/>
  <path d="m72.28,132.09s-.58.54-1.78.54-1.87-.56-1.87-.56c0,0,.37-.31,1.87-.31s1.78.32,1.78.32Z" style="fill: #986d39;"/>
  <path d="m62.95,121.5c0,.92-.74,1.66-1.66,1.66s-1.66-.75-1.66-1.66.74-1.66,1.66-1.66,1.66.75,1.66,1.66Z" style="fill: #c0935c;"/>
  <path d="m81.37,121.5c0,.92-.75,1.66-1.66,1.66s-1.66-.75-1.66-1.66.75-1.66,1.66-1.66,1.66.75,1.66,1.66Z" style="fill: #c0935c;"/>
  <path d="m70.49,132.27c4.85,0,9.42-3.93,9.42-8.78v-8.7c0-4.85-3.93-8.77-8.77-8.77h-1.29c-4.85,0-8.77,3.93-8.77,8.77v8.7c0,4.85,4.57,8.78,9.42,8.78Z" style="fill: #c0935c;"/>
  <path d="m61.03,118.18s9.37-2.59,13.92-9.09c0,0,1.64,2.38,4.96,5.09,0,0,1.46-9.42-9.46-9.42-12.02,0-9.42,13.42-9.42,13.42Z" style="fill: #181511;"/>
  <path d="m66.49,119.95c0,.61-.49,1.1-1.1,1.1s-1.1-.49-1.1-1.1v-.48c0-.61.49-1.1,1.1-1.1s1.1.49,1.1,1.1v.48Z" style="fill: #181511;"/>
  <path d="m76.75,119.95c0,.61-.49,1.1-1.1,1.1s-1.1-.49-1.1-1.1v-.48c0-.61.49-1.1,1.1-1.1s1.1.49,1.1,1.1v.48Z" style="fill: #181511;"/>
  <path d="m73.74,126.92c-.13-.18-.37-.22-.56-.11h0s0,0,0,0h0s-.15.07-.55.12c-.4.06-1.07.11-2.12.11-1.24,0-1.94-.07-2.31-.14-.19-.03-.29-.06-.33-.08h-.02s0-.01,0-.01h0c-.18-.11-.42-.06-.56.11-.14.19-.11.46.08.6.09.07.24.14.69.22.44.08,1.19.15,2.46.15,1.27,0,2.01-.07,2.46-.15.44-.08.59-.16.69-.22.19-.14.23-.41.08-.6Zm-.56-.11h0s0,0,0,0Z" style="fill: #6f4717;"/>
  <polygon points="69.21 168.21 68.39 168.21 67.89 168.21 67.03 168.21 67.06 168.62 67.89 168.62 67.89 170.17 68.39 170.17 68.39 168.62 69.19 168.62 69.21 168.21" style="fill: #181511;"/>
  <polygon points="73.95 168.21 73.2 168.21 72.7 168.21 71.77 168.21 71.79 168.62 72.7 168.62 72.7 170.17 73.2 170.17 73.2 168.62 73.92 168.62 73.95 168.21" style="fill: #181511;"/>
</svg>