<?xml version="1.0" encoding="UTF-8"?>
<svg id="b" data-name="elements" xmlns="http://www.w3.org/2000/svg" width="300" height="250" viewBox="0 0 300 250">
  <rect width="300" height="250" style="fill: none;"/>
  <g>
    <circle cx="150" cy="125" r="81.15" style="fill: #ede2dd;"/>
    <g>
      <g>
        <g>
          <path d="m53.73,122.18c.3-.43.76-.82,1.36-1.17h30.73c.82-.09,1.51.19,2.07.84l.19,1.23v.78l-.45,3.31c-.04.26-.06.56-.06.91,0,.3-.02.63-.06.97l-.65,4.47-.39,1.1c-.26.22-.53.41-.81.58-.28.17-.62.3-1,.39-1.21.26-2.36-.02-3.44-.84-.22-.82-.35-1.86-.39-3.11,0-.43-.11-.93-.32-1.49l-.19-.58-.52-.65c-1.38-.6-2.92-.73-4.6-.39l-3.95,27.81.06.71c4.02.22,5.38,1.88,4.08,4.99-.35.61-.87,1.1-1.56,1.49h-17.37c-.52-.39-.91-.93-1.17-1.62-.09-1.47.43-2.83,1.56-4.08.43-.17.89-.29,1.36-.36.47-.07,1.01-.12,1.62-.16l.97-.45.26-.78,3.89-27.55c-3.85-.91-6.31.91-7.39,5.45-.17.22-.36.43-.55.65-.19.22-.4.43-.62.65-1.12.48-2.29.58-3.5.32-.43-.3-.84-.76-1.23-1.36l1.1-7.65c.09-.35.17-.75.26-1.2.09-.45.17-.96.26-1.52.09-.6.24-1.17.45-1.69Z" style="fill: #048abf;"/>
          <path d="m75.66,170.54h-21.54l-1.87-1.4c-1.58-1.18-2.8-2.83-3.52-4.76l-.37-.99-.06-1.06c-.2-3.35.95-6.52,3.33-9.17l1.09-1.22,1.52-.61c.15-.06.29-.11.44-.17l1.21-8.55c-1.47.2-2.98.15-4.47-.17l-1.38-.3-1.16-.81c-1.19-.83-2.23-1.94-3.12-3.32l-1.41-2.2,1.61-10.92c.06-.24.12-.52.18-.83.07-.36.14-.8.22-1.27.16-1.1.47-2.25.91-3.31l.29-.69.43-.62c.9-1.28,2.12-2.37,3.62-3.23l1.62-.92h32.33c2.97-.16,5.67,1.01,7.62,3.26l1.31,1.51.59,3.75v1.8l-.52,3.78c0,.59-.04,1.16-.12,1.78l-.02.15-.75,5.15-1.26,3.56-1.47,1.23c-.51.43-1.06.83-1.63,1.18-.95.58-2.01,1.01-3.16,1.26-2.06.44-3.98.31-5.84-.31l-1.44,10.16c1.02.72,1.87,1.62,2.54,2.69,1.01,1.6,2.4,5.01.42,9.77l-.17.4-.22.38c-.98,1.72-2.39,3.1-4.2,4.12l-1.6.9Z" style="fill: #048abf;"/>
        </g>
        <g>
          <path d="m97.68,132.69l.39-.26c1.47-.26,2.59.17,3.37,1.3,4.54-2.51,7.54-1.84,9.01,2.01l-.45,3.44c-.13.3-.37.67-.71,1.1l-.13.26c-2.55,2.12-5.04,2.16-7.46.13-.22.22-.42.48-.62.78-.19.3-.42.63-.68.97l-1.62,11.41c-.04.26-.08.54-.1.84-.02.3.01.63.1.97,1.82-.09,3.11.5,3.89,1.75.13.99-.15,2.1-.84,3.31l-.91.65h-14.46l-.78-.26c-.95-1.51-.67-3.13.84-4.86.17-.09.37-.15.58-.19.22-.04.45-.09.71-.13l1.43-.39,2.07-14.85c-2.68.26-3.65-1.04-2.92-3.89.3-.52.78-.99,1.43-1.43.39-.09.82-.22,1.3-.39.47-.17,1.01-.39,1.62-.65l1.49-.32c.26-.26.6-.39,1.04-.39l.39-.26.58-.13,1.43-.52Z" style="fill: #048abf;"/>
          <path d="m103.17,168.34h-17.83l-4.23-1.41-1.34-2.12c-2.63-4.18-2.07-9.12,1.5-13.2l.91-1.04.76-.38.74-5.31c-.24-.24-.43-.48-.6-.69-1.3-1.68-2.61-4.63-1.44-9.17l.24-.94.49-.84c.84-1.44,2.05-2.7,3.59-3.73l1.09-.73,1.28-.28s.13-.03.42-.13c.36-.13.78-.3,1.25-.5l.62-.26,1.04-.23c.27-.12.54-.23.82-.33l.41-.27,1.62-.39.91-.61,1.44-.25c1.82-.32,3.6-.2,5.21.33,1.38-.42,2.72-.62,4.03-.62,4.91,0,8.98,2.99,10.9,7.99l.63,1.66-.81,6.15-.38.89c-.29.67-.67,1.35-1.17,2.04l-.51,1.01-1.13.94c-2.22,1.85-4.61,2.91-7.1,3.17l-.27,1.93c.92.74,1.72,1.63,2.37,2.68l.8,1.29.2,1.5c.33,2.54-.24,5.12-1.71,7.68l-.76,1.33-3.98,2.85Z" style="fill: #048abf;"/>
        </g>
        <g>
          <path d="m121.86,132.23c4.45-.65,8.02.37,10.7,3.05.47.78.82,1.75,1.04,2.92l.06.65c-.09.65-.06,1.19.07,1.62l-1.82,12.9c3.15-.82,4.21.63,3.18,4.34-1.77,2.55-4.24,3.85-7.39,3.89-1.77.17-3.28-.5-4.54-2.01-7.22,3.98-11.8,2.77-13.74-3.63-.09-4.71,2.31-8.34,7.2-10.89-3.37-.26-4.67-2.2-3.89-5.83,1.73-3.67,4.78-6.01,9.14-7Zm1.56,15.95c-2.16.78-3.59,2.23-4.28,4.34.43,1.73,1.69,1.86,3.76.39l.58-4.34-.07-.39Zm-.26-10.11c-.17.04-.37.1-.58.16-.22.06-.45.18-.71.36.26,1.64-.22,3.2-1.43,4.67.26-.04.52-.12.78-.23.26-.11.54-.25.84-.42l2.4-.84.19-1.43c.39-1.25-.11-2.01-1.49-2.27Z" style="fill: #048abf;"/>
          <path d="m116.02,168.88c-3,0-10.32-1.06-13.3-10.88l-.28-.93-.02-.97c-.08-4.25,1.19-8.08,3.66-11.29-.59-1.79-.83-4.11-.2-7.03l.17-.79.34-.73c2.65-5.62,7.46-9.37,13.92-10.85l.55-.1c6.63-.97,12.43.8,16.65,5.02l.59.59.44.71c.92,1.5,1.57,3.28,1.94,5.28l.08.59.15,1.46-.04.28.2.67.64.05-.7.36-1.15,8.18c.35.33.67.69.97,1.08,1.94,2.55,2.34,5.92,1.2,10.01l-.32,1.14-.68.97c-3.03,4.36-7.44,6.74-12.78,6.89-2,.14-3.89-.19-5.64-.96-2.25.84-4.37,1.25-6.4,1.25Zm8.84-18.21l.3.36h.02s.2-1.46.2-1.46c-.12-.19-.26-.38-.41-.56l-.07.03c-.34.18-.67.33-1.01.47l.51,1.42.45-.25Z" style="fill: #048abf;"/>
        </g>
        <g>
          <path d="m139.36,136.58c-.04-1.6.52-2.94,1.69-4.02h12.58l.65.58.19.26c.52,2.16-.32,3.74-2.53,4.73l2.01,7.46.19.39,4.15-7.97c-2.07-.73-2.55-2.27-1.43-4.6l1.17-.84h9.53c.13.13.27.29.42.49.15.19.33.4.55.62l-.45,2.92c-.65.78-1.51,1.34-2.59,1.69l-12.32,22.24c-1.25,1.25-2.66,1.51-4.21.78-.3-.3-2.57-7.87-6.81-22.69l-.45-.58c-1-.04-1.77-.52-2.33-1.43Z" style="fill: #048abf;"/>
          <path d="m150.62,168.68c-1.57,0-3.14-.36-4.65-1.08l-1.09-.52-.86-.85c-1.58-1.57-1.73-1.73-7.81-22.99-1.09-.77-2.04-1.77-2.79-2.98l-.99-1.6-.05-1.89c-.1-3.59,1.29-6.91,3.93-9.35l2.01-1.86h32.16l2.05,2.05c.33.33.66.71.99,1.13l2.53,2.52-1.33,8.31-1.24,1.49c-.84,1.01-1.82,1.85-2.92,2.54l-11.72,21.15-.7.7c-2.67,2.67-5.56,3.24-7.5,3.24Z" style="fill: #048abf;"/>
        </g>
        <g>
          <path d="m181.5,132.3c4.88-.48,8.34.87,10.37,4.02,2.07,3.11,1.97,5.32-.32,6.61l-13.48,7.78v.84c3.2,4.37,7.11,3.39,11.73-2.92.47-.17,1.12-.26,1.94-.26,2.51.95,2.83,2.74.97,5.38-4.41,7.39-10.57,10.18-18.48,8.36l-1.88-1.04-.84-.65c-3.2-3.59-4.13-8.21-2.79-13.87,1.04-7.17,5.29-11.93,12.77-14.26Zm-.65,6.42c-2.9,1.04-3.95,2.98-3.18,5.83l6.61-3.89c-.65-1.38-1.79-2.03-3.44-1.94Z" style="fill: #048abf;"/>
          <path d="m178.71,169.65c-1.94,0-3.98-.24-6.04-.71l-.96-.22-3.2-1.77-1.78-1.37-.44-.49c-3.26-3.66-6.66-10.06-4.44-19.84,1.51-9.73,7.58-16.52,17.57-19.63l.69-.21.72-.07c.86-.08,1.71-.13,2.52-.13,7.97,0,12.22,3.94,14.38,7.27,2.31,3.49,3.1,6.85,2.35,10-.23.97-.61,1.88-1.11,2.73.85,1.09,1.3,2.16,1.53,2.93.64,2.1.82,5.41-1.9,9.41-6.06,10-14.15,12.1-19.88,12.1Z" style="fill: #048abf;"/>
        </g>
        <g>
          <path d="m207.75,121.41l2.4-.71c1.81-.35,2.94.32,3.37,2.01l-4.6,32.93c2.98.17,4.02,1.69,3.11,4.54-.17.17-.36.36-.55.55s-.42.4-.68.62h-14.84c-.52-.34-.82-.82-.91-1.43-.13-2.64,1.36-4.06,4.47-4.28.09-.3.16-.63.23-.97.07-.35.12-.71.16-1.1l3.57-25.02c-3.46.26-4.56-1.27-3.31-4.6.17-.3.5-.58.97-.84l3.05-.78c.6-.13,1.12-.26,1.56-.39.43-.13.84-.26,1.23-.39l.78-.13Z" style="fill: #048abf;"/>
          <path d="m213.33,168.34h-19.49l-1.76-1.17c-2.19-1.45-3.59-3.68-3.96-6.27l-.06-.64c-.19-3.83,1.43-7.82,5.25-9.99l2.44-17.1c-.66-.57-1.13-1.15-1.46-1.63-1.32-1.9-2.5-5.19-.66-10.07l.19-.51.27-.48c.83-1.45,2.08-2.64,3.71-3.53l.77-.42,4.15-1.06c.4-.08.74-.17,1.02-.25.35-.11.69-.21,1.02-.32l.52-.18.89-.15,2.67-.76c5.43-1.04,10.13,1.98,11.46,7.15l.34,1.34-4.09,29.26c.46.46.84.92,1.14,1.36,1.24,1.81,2.42,4.9,1,9.36l-.52,1.62-1.76,1.76c-.35.35-.74.7-1.16,1.05l-1.95,1.62Z" style="fill: #048abf;"/>
        </g>
      </g>
      <g>
        <path d="m53.73,122.18c.3-.43.76-.82,1.36-1.17h30.73c.82-.09,1.51.19,2.07.84l.19,1.23v.78l-.45,3.31c-.04.26-.06.56-.06.91,0,.3-.02.63-.06.97l-.65,4.47-.39,1.1c-.26.22-.53.41-.81.58-.28.17-.62.3-1,.39-1.21.26-2.36-.02-3.44-.84-.22-.82-.35-1.86-.39-3.11,0-.43-.11-.93-.32-1.49l-.19-.58-.52-.65c-1.38-.6-2.92-.73-4.6-.39l-3.95,27.81.06.71c4.02.22,5.38,1.88,4.08,4.99-.35.61-.87,1.1-1.56,1.49h-17.37c-.52-.39-.91-.93-1.17-1.62-.09-1.47.43-2.83,1.56-4.08.43-.17.89-.29,1.36-.36.47-.07,1.01-.12,1.62-.16l.97-.45.26-.78,3.89-27.55c-3.85-.91-6.31.91-7.39,5.45-.17.22-.36.43-.55.65-.19.22-.4.43-.62.65-1.12.48-2.29.58-3.5.32-.43-.3-.84-.76-1.23-1.36l1.1-7.65c.09-.35.17-.75.26-1.2.09-.45.17-.96.26-1.52.09-.6.24-1.17.45-1.69Z" style="fill: #f2c3a7;"/>
        <path d="m97.68,132.69l.39-.26c1.47-.26,2.59.17,3.37,1.3,4.54-2.51,7.54-1.84,9.01,2.01l-.45,3.44c-.13.3-.37.67-.71,1.1l-.13.26c-2.55,2.12-5.04,2.16-7.46.13-.22.22-.42.48-.62.78-.19.3-.42.63-.68.97l-1.62,11.41c-.04.26-.08.54-.1.84-.02.3.01.63.1.97,1.82-.09,3.11.5,3.89,1.75.13.99-.15,2.1-.84,3.31l-.91.65h-14.46l-.78-.26c-.95-1.51-.67-3.13.84-4.86.17-.09.37-.15.58-.19.22-.04.45-.09.71-.13l1.43-.39,2.07-14.85c-2.68.26-3.65-1.04-2.92-3.89.3-.52.78-.99,1.43-1.43.39-.09.82-.22,1.3-.39.47-.17,1.01-.39,1.62-.65l1.49-.32c.26-.26.6-.39,1.04-.39l.39-.26.58-.13,1.43-.52Z" style="fill: #f2c3a7;"/>
        <path d="m121.86,132.23c4.45-.65,8.02.37,10.7,3.05.47.78.82,1.75,1.04,2.92l.06.65c-.09.65-.06,1.19.07,1.62l-1.82,12.9c3.15-.82,4.21.63,3.18,4.34-1.77,2.55-4.24,3.85-7.39,3.89-1.77.17-3.28-.5-4.54-2.01-7.22,3.98-11.8,2.77-13.74-3.63-.09-4.71,2.31-8.34,7.2-10.89-3.37-.26-4.67-2.2-3.89-5.83,1.73-3.67,4.78-6.01,9.14-7Zm1.56,15.95c-2.16.78-3.59,2.23-4.28,4.34.43,1.73,1.69,1.86,3.76.39l.58-4.34-.07-.39Zm-.26-10.11c-.17.04-.37.1-.58.16-.22.06-.45.18-.71.36.26,1.64-.22,3.2-1.43,4.67.26-.04.52-.12.78-.23.26-.11.54-.25.84-.42l2.4-.84.19-1.43c.39-1.25-.11-2.01-1.49-2.27Z" style="fill: #f2c3a7;"/>
        <path d="m139.36,136.58c-.04-1.6.52-2.94,1.69-4.02h12.58l.65.58.19.26c.52,2.16-.32,3.74-2.53,4.73l2.01,7.46.19.39,4.15-7.97c-2.07-.73-2.55-2.27-1.43-4.6l1.17-.84h9.53c.13.13.27.29.42.49.15.19.33.4.55.62l-.45,2.92c-.65.78-1.51,1.34-2.59,1.69l-12.32,22.24c-1.25,1.25-2.66,1.51-4.21.78-.3-.3-2.57-7.87-6.81-22.69l-.45-.58c-1-.04-1.77-.52-2.33-1.43Z" style="fill: #f2c3a7;"/>
        <path d="m181.5,132.3c4.88-.48,8.34.87,10.37,4.02,2.07,3.11,1.97,5.32-.32,6.61l-13.48,7.78v.84c3.2,4.37,7.11,3.39,11.73-2.92.47-.17,1.12-.26,1.94-.26,2.51.95,2.83,2.74.97,5.38-4.41,7.39-10.57,10.18-18.48,8.36l-1.88-1.04-.84-.65c-3.2-3.59-4.13-8.21-2.79-13.87,1.04-7.17,5.29-11.93,12.77-14.26Zm-.65,6.42c-2.9,1.04-3.95,2.98-3.18,5.83l6.61-3.89c-.65-1.38-1.79-2.03-3.44-1.94Z" style="fill: #f2c3a7;"/>
        <path d="m207.75,121.41l2.4-.71c1.81-.35,2.94.32,3.37,2.01l-4.6,32.93c2.98.17,4.02,1.69,3.11,4.54-.17.17-.36.36-.55.55s-.42.4-.68.62h-14.84c-.52-.34-.82-.82-.91-1.43-.13-2.64,1.36-4.06,4.47-4.28.09-.3.16-.63.23-.97.07-.35.12-.71.16-1.1l3.57-25.02c-3.46.26-4.56-1.27-3.31-4.6.17-.3.5-.58.97-.84l3.05-.78c.6-.13,1.12-.26,1.56-.39.43-.13.84-.26,1.23-.39l.78-.13Z" style="fill: #f2c3a7;"/>
      </g>
      <g>
        <g>
          <path d="m190.79,170.76c-.24.76-1.08,1.17-1.87.92h0c-.8-.25-1.25-1.07-1.01-1.83l23.22-74.29c.24-.77,1.08-1.18,1.87-.93h0c.79.25,1.25,1.06,1.01,1.83l-23.22,74.29Z" style="fill: #f2884b;"/>
          <g>
            <path d="m218.63,77.47c-.08-.03-.16-.05-.23-.08-.1-.03-.21-.06-.31-.09-28.95,1.71-33.85,31.94-34.43,36.61.01.04.02.07.03.1,6.42-3.94,15.25-5.06,23.99-2.32,8.72,2.72,15.34,8.65,18.38,15.54,2.09-3.98,15.49-31.79-7.43-49.75Z" style="fill: #037f8c;"/>
            <path d="m218.09,77.31c-25.61-7.86-51.81,2.65-60.17,23.66,3.91-1.47,8.38-1.68,12.76-.31,6.63,2.07,11.37,7.25,12.98,13.26.58-4.66,5.48-34.9,34.43-36.61Z" style="fill: #f2884b;"/>
            <path d="m244.37,123.68c4.38,1.37,7.94,4.1,10.31,7.52,5.09-22.05-10.49-45.63-36.06-53.73,22.92,17.97,9.52,45.78,7.43,49.75,0,0,0,.02.01.03,4.75-4.08,11.64-5.66,18.3-3.58Z" style="fill: #f2884b;"/>
          </g>
          <path d="m219.89,77.17c-.23.72-.99,1.12-1.71.9-.72-.23-1.12-.99-.9-1.71.23-.72.99-1.12,1.72-.9.72.23,1.12.99.89,1.71Z" style="fill: #642927;"/>
        </g>
        <path d="m201.29,175.3c-.52-4.19-5.63-7.47-11.85-7.47s-11.33,3.28-11.85,7.47h23.7Z" style="fill: #f2884b;"/>
      </g>
    </g>
  </g>
</svg>